G04*
G04 #@! TF.GenerationSoftware,Altium Limited,Altium Designer,22.1.2 (22)*
G04*
G04 Layer_Physical_Order=2*
G04 Layer_Color=16711680*
%FSLAX25Y25*%
%MOIN*%
G70*
G04*
G04 #@! TF.SameCoordinates,E16E6B7E-0D5A-4F64-8BAA-C1CDB9B7C18E*
G04*
G04*
G04 #@! TF.FilePolarity,Positive*
G04*
G01*
G75*
%ADD14C,0.01000*%
%ADD21C,0.04921*%
%ADD22C,0.06181*%
%ADD23R,0.06181X0.06181*%
%ADD26C,0.05512*%
%ADD27R,0.05512X0.05512*%
%ADD28C,0.05118*%
%ADD29R,0.05118X0.05118*%
%ADD30R,0.04921X0.04921*%
%ADD32R,0.05512X0.05512*%
%ADD39C,0.02500*%
%ADD42R,0.04547X0.04547*%
%ADD43C,0.04547*%
%ADD44C,0.04724*%
%ADD45R,0.06299X0.06299*%
%ADD46C,0.06299*%
%ADD47C,0.15000*%
%ADD48C,0.02000*%
%ADD49C,0.01000*%
G36*
X337004Y257317D02*
X336826Y257281D01*
X335279Y256641D01*
X333887Y255710D01*
X332703Y254526D01*
X331773Y253134D01*
X331132Y251587D01*
X330806Y249945D01*
Y249608D01*
X339306D01*
Y249108D01*
X339806D01*
Y240608D01*
X340143D01*
X341785Y240935D01*
X343332Y241575D01*
X344724Y242506D01*
X345806Y243587D01*
X346306Y243442D01*
Y14274D01*
X345806Y14129D01*
X344724Y15210D01*
X343332Y16141D01*
X341785Y16781D01*
X340143Y17108D01*
X339806D01*
Y8608D01*
X339306D01*
Y8108D01*
X330806D01*
Y7771D01*
X331132Y6129D01*
X331773Y4582D01*
X332703Y3190D01*
X333073Y2820D01*
X332881Y2358D01*
X15730D01*
X15538Y2820D01*
X15908Y3190D01*
X16838Y4582D01*
X17479Y6129D01*
X17806Y7771D01*
Y8108D01*
X9306D01*
Y8608D01*
X8806D01*
Y17108D01*
X8468D01*
X6826Y16781D01*
X5279Y16141D01*
X3887Y15210D01*
X2703Y14026D01*
X2056Y13057D01*
X1556Y13209D01*
Y244507D01*
X2056Y244659D01*
X2703Y243690D01*
X3887Y242506D01*
X5279Y241575D01*
X6826Y240935D01*
X8468Y240608D01*
X8806D01*
Y249108D01*
X9306D01*
Y249608D01*
X17806D01*
Y249945D01*
X17479Y251587D01*
X16838Y253134D01*
X15908Y254526D01*
X14998Y255436D01*
X15204Y255938D01*
X336954Y257817D01*
X337004Y257317D01*
D02*
G37*
%LPC*%
G36*
X338806Y248608D02*
X330806D01*
Y248271D01*
X331132Y246629D01*
X331773Y245082D01*
X332703Y243690D01*
X333887Y242506D01*
X335279Y241575D01*
X336826Y240935D01*
X338468Y240608D01*
X338806D01*
Y248608D01*
D02*
G37*
G36*
X17806D02*
X9806D01*
Y240608D01*
X10143D01*
X11785Y240935D01*
X13332Y241575D01*
X14724Y242506D01*
X15908Y243690D01*
X16838Y245082D01*
X17479Y246629D01*
X17806Y248271D01*
Y248608D01*
D02*
G37*
G36*
X282989Y233659D02*
Y230608D01*
X286039D01*
X285805Y231482D01*
X285337Y232293D01*
X284674Y232956D01*
X283862Y233424D01*
X282989Y233659D01*
D02*
G37*
G36*
X281989D02*
X281115Y233424D01*
X280303Y232956D01*
X279641Y232293D01*
X279172Y231482D01*
X278938Y230608D01*
X281989D01*
Y233659D01*
D02*
G37*
G36*
X38478Y235073D02*
X37567D01*
X36687Y234837D01*
X35898Y234381D01*
X35254Y233737D01*
X34798Y232948D01*
X34562Y232068D01*
Y231156D01*
X34798Y230276D01*
X35254Y229487D01*
X35898Y228843D01*
X36687Y228387D01*
X37567Y228151D01*
X38478D01*
X39359Y228387D01*
X40148Y228843D01*
X40792Y229487D01*
X41248Y230276D01*
X41484Y231156D01*
Y232068D01*
X41248Y232948D01*
X40792Y233737D01*
X40148Y234381D01*
X39359Y234837D01*
X38478Y235073D01*
D02*
G37*
G36*
X316306Y231209D02*
Y227954D01*
X319560D01*
X319305Y228904D01*
X318811Y229761D01*
X318112Y230460D01*
X317255Y230954D01*
X316306Y231209D01*
D02*
G37*
G36*
X315306D02*
X314356Y230954D01*
X313499Y230460D01*
X312800Y229761D01*
X312306Y228904D01*
X312051Y227954D01*
X315306D01*
Y231209D01*
D02*
G37*
G36*
X286039Y229608D02*
X282989D01*
Y226557D01*
X283862Y226792D01*
X284674Y227260D01*
X285337Y227923D01*
X285805Y228734D01*
X286039Y229608D01*
D02*
G37*
G36*
X281989D02*
X278938D01*
X279172Y228734D01*
X279641Y227923D01*
X280303Y227260D01*
X281115Y226792D01*
X281989Y226557D01*
Y229608D01*
D02*
G37*
G36*
X278174Y233667D02*
X271056D01*
Y226549D01*
X278174D01*
Y233667D01*
D02*
G37*
G36*
X319560Y226954D02*
X316306D01*
Y223700D01*
X317255Y223955D01*
X318112Y224449D01*
X318811Y225148D01*
X319305Y226005D01*
X319560Y226954D01*
D02*
G37*
G36*
X315306D02*
X312051D01*
X312306Y226005D01*
X312800Y225148D01*
X313499Y224449D01*
X314356Y223955D01*
X315306Y223700D01*
Y226954D01*
D02*
G37*
G36*
X254306Y225066D02*
Y223608D01*
X255763D01*
X255501Y224241D01*
X254939Y224803D01*
X254306Y225066D01*
D02*
G37*
G36*
X253306D02*
X252673Y224803D01*
X252110Y224241D01*
X251848Y223608D01*
X253306D01*
Y225066D01*
D02*
G37*
G36*
X255763Y222608D02*
X254306D01*
Y221150D01*
X254939Y221412D01*
X255501Y221975D01*
X255763Y222608D01*
D02*
G37*
G36*
X253306D02*
X251848D01*
X252110Y221975D01*
X252673Y221412D01*
X253306Y221150D01*
Y222608D01*
D02*
G37*
G36*
X97464Y241655D02*
X96668D01*
X95933Y241351D01*
X95767Y241185D01*
X95760Y241185D01*
X88853D01*
X88267Y241068D01*
X87771Y240737D01*
X74233Y227199D01*
X68215D01*
Y221015D01*
X67753Y220823D01*
X64387Y224189D01*
X63891Y224521D01*
X63305Y224637D01*
X51848D01*
X51835Y224687D01*
X51296Y225620D01*
X50535Y226381D01*
X49602Y226920D01*
X48561Y227199D01*
X47484D01*
X46444Y226920D01*
X45511Y226381D01*
X44750Y225620D01*
X44211Y224687D01*
X43932Y223646D01*
Y222569D01*
X44211Y221529D01*
X44750Y220596D01*
X45511Y219835D01*
X46444Y219296D01*
X47484Y219018D01*
X48561D01*
X49602Y219296D01*
X50535Y219835D01*
X51296Y220596D01*
X51835Y221529D01*
X51848Y221579D01*
X62672D01*
X92168Y192083D01*
X92664Y191751D01*
X92946Y191695D01*
X93173Y191469D01*
X93908Y191164D01*
X93837Y190694D01*
X60427D01*
X60220Y191194D01*
X60501Y191475D01*
X60806Y192210D01*
Y193006D01*
X60501Y193741D01*
X59939Y194304D01*
X59203Y194608D01*
X58969D01*
X58963Y194613D01*
X50835Y202742D01*
Y211825D01*
X50718Y212411D01*
X50387Y212907D01*
X41809Y221485D01*
X41835Y221529D01*
X42113Y222569D01*
Y223646D01*
X41835Y224687D01*
X41296Y225620D01*
X40535Y226381D01*
X39602Y226920D01*
X38561Y227199D01*
X37484D01*
X36444Y226920D01*
X35511Y226381D01*
X34750Y225620D01*
X34211Y224687D01*
X33932Y223646D01*
Y222569D01*
X34211Y221529D01*
X34750Y220596D01*
X35511Y219835D01*
X36444Y219296D01*
X37484Y219018D01*
X38561D01*
X39602Y219296D01*
X39646Y219322D01*
X47776Y211192D01*
Y202108D01*
X47893Y201523D01*
X48224Y201027D01*
X56806Y192445D01*
Y192210D01*
X57110Y191475D01*
X57391Y191194D01*
X57184Y190694D01*
X47948D01*
X47362Y190577D01*
X46866Y190246D01*
X42149Y185528D01*
X42112Y185521D01*
X41616Y185189D01*
X21938Y165512D01*
X21072Y165744D01*
X20083D01*
X19128Y165488D01*
X18271Y164993D01*
X17572Y164294D01*
X17077Y163438D01*
X16821Y162482D01*
Y161493D01*
X17077Y160538D01*
X17572Y159682D01*
X18271Y158982D01*
X19128Y158488D01*
X20083Y158232D01*
X21072D01*
X22027Y158488D01*
X22883Y158982D01*
X23583Y159682D01*
X24077Y160538D01*
X24333Y161493D01*
Y162482D01*
X24101Y163349D01*
X43440Y182688D01*
X43477Y182695D01*
X43973Y183027D01*
X48581Y187635D01*
X78845D01*
Y181743D01*
X82522D01*
X92511Y171754D01*
Y87280D01*
X82522Y77291D01*
X81850D01*
X80970Y77055D01*
X80637Y76863D01*
X79295D01*
X60955Y95203D01*
Y100258D01*
X60582D01*
X60375Y100758D01*
X90161Y130544D01*
X90396D01*
X91131Y130848D01*
X91694Y131411D01*
X91998Y132146D01*
Y132941D01*
X91694Y133677D01*
X91131Y134239D01*
X90396Y134544D01*
X89600D01*
X88865Y134239D01*
X88303Y133677D01*
X87998Y132941D01*
Y132708D01*
X87993Y132702D01*
X61417Y106125D01*
X60955Y106317D01*
Y106654D01*
X60672Y107710D01*
X60126Y108656D01*
X59465Y109317D01*
X59390Y109768D01*
X59412Y109972D01*
X88636Y139196D01*
X88908Y139084D01*
X89703D01*
X90438Y139388D01*
X91001Y139951D01*
X91306Y140686D01*
Y141481D01*
X91001Y142217D01*
X90438Y142779D01*
X89703Y143084D01*
X88908D01*
X88173Y142779D01*
X87919Y142525D01*
X87776Y142497D01*
X87279Y142165D01*
X61417Y116303D01*
X60955Y116494D01*
Y116654D01*
X60672Y117710D01*
X60126Y118656D01*
X59354Y119429D01*
X58407Y119975D01*
X57352Y120258D01*
X56259D01*
X55204Y119975D01*
X54258Y119429D01*
X53485Y118656D01*
X52939Y117710D01*
X52656Y116654D01*
Y115562D01*
X52939Y114506D01*
X53485Y113560D01*
X54258Y112787D01*
X54559Y112613D01*
X54472Y112086D01*
X54145Y112021D01*
X53649Y111689D01*
X39661Y97702D01*
X24031D01*
X23583Y98479D01*
X22883Y99178D01*
X22027Y99673D01*
X21072Y99929D01*
X20083D01*
X19128Y99673D01*
X18271Y99178D01*
X17572Y98479D01*
X17077Y97623D01*
X16821Y96667D01*
Y95678D01*
X17077Y94723D01*
X17572Y93867D01*
X18271Y93167D01*
X19128Y92673D01*
X20083Y92417D01*
X21072D01*
X22027Y92673D01*
X22883Y93167D01*
X23583Y93867D01*
X24031Y94643D01*
X40295D01*
X40880Y94760D01*
X41376Y95091D01*
X52194Y105909D01*
X52656Y105718D01*
Y105562D01*
X52939Y104506D01*
X53485Y103560D01*
X53579Y103466D01*
X53414Y102924D01*
X53150Y102871D01*
X52654Y102540D01*
X37974Y87860D01*
X24031D01*
X23583Y88636D01*
X22883Y89336D01*
X22027Y89830D01*
X21072Y90086D01*
X20083D01*
X19128Y89830D01*
X18271Y89336D01*
X17572Y88636D01*
X17077Y87780D01*
X16821Y86825D01*
Y85836D01*
X17077Y84881D01*
X17572Y84024D01*
X18271Y83325D01*
X19128Y82830D01*
X20083Y82574D01*
X21072D01*
X22027Y82830D01*
X22883Y83325D01*
X23583Y84024D01*
X24031Y84801D01*
X38607D01*
X39193Y84917D01*
X39689Y85249D01*
X52194Y97754D01*
X52656Y97563D01*
Y91958D01*
X57711D01*
X76723Y72946D01*
X77467Y72449D01*
X78345Y72275D01*
X79208D01*
X79536Y71705D01*
X80181Y71061D01*
X80970Y70605D01*
X81850Y70370D01*
X82761D01*
X83641Y70605D01*
X84430Y71061D01*
X85075Y71705D01*
X85530Y72495D01*
X85766Y73375D01*
Y74047D01*
X96428Y84708D01*
X96925Y85452D01*
X97100Y86330D01*
Y165998D01*
X97562Y166189D01*
X102724Y161027D01*
X103220Y160695D01*
X103806Y160579D01*
X118453D01*
X118501Y160516D01*
X118638Y160079D01*
X101643Y143084D01*
X101408D01*
X100673Y142779D01*
X100110Y142217D01*
X99806Y141481D01*
Y140686D01*
X100110Y139951D01*
X100673Y139388D01*
X101408Y139084D01*
X102203D01*
X102938Y139388D01*
X103501Y139951D01*
X103806Y140686D01*
Y140920D01*
X103811Y140926D01*
X120463Y157579D01*
X135506D01*
X135673Y157413D01*
X136408Y157108D01*
X137203D01*
X137938Y157413D01*
X138501Y157975D01*
X138806Y158710D01*
Y159506D01*
X138568Y160079D01*
X138817Y160579D01*
X140172D01*
X142776Y157975D01*
Y140108D01*
X142893Y139523D01*
X143040Y139303D01*
X142708Y138899D01*
X142203Y139108D01*
X141408D01*
X140673Y138804D01*
X140110Y138241D01*
X139806Y137506D01*
Y136710D01*
X140110Y135975D01*
X140276Y135810D01*
X140276Y135802D01*
Y113742D01*
X65224Y38689D01*
X64893Y38193D01*
X64776Y37608D01*
Y30752D01*
X64079Y30350D01*
X63380Y29650D01*
X62885Y28794D01*
X62629Y27839D01*
Y26850D01*
X62885Y25894D01*
X63380Y25038D01*
X64079Y24339D01*
X64936Y23844D01*
X65891Y23588D01*
X66880D01*
X67835Y23844D01*
X68691Y24339D01*
X69391Y25038D01*
X69885Y25894D01*
X70141Y26850D01*
Y27839D01*
X69885Y28794D01*
X69391Y29650D01*
X68691Y30350D01*
X67835Y30844D01*
X67835Y30844D01*
Y36974D01*
X142887Y112027D01*
X143219Y112523D01*
X143335Y113108D01*
Y135809D01*
X143501Y135975D01*
X143806Y136710D01*
Y137506D01*
X143641Y137902D01*
X144065Y138185D01*
X145806Y136445D01*
Y136210D01*
X146110Y135475D01*
X146673Y134913D01*
X147408Y134608D01*
X148203D01*
X148939Y134913D01*
X149501Y135475D01*
X149806Y136210D01*
Y137006D01*
X149501Y137741D01*
X148939Y138303D01*
X148203Y138608D01*
X147969D01*
X147963Y138613D01*
X145835Y140742D01*
Y158608D01*
X145719Y159193D01*
X145387Y159689D01*
X142960Y162117D01*
X143151Y162579D01*
X143915D01*
X148276Y158217D01*
Y141108D01*
X148393Y140523D01*
X148724Y140027D01*
X151806Y136945D01*
Y136710D01*
X152110Y135975D01*
X152673Y135413D01*
X153408Y135108D01*
X154203D01*
X154938Y135413D01*
X155501Y135975D01*
X155806Y136710D01*
Y137506D01*
X155501Y138241D01*
X154938Y138804D01*
X154203Y139108D01*
X153969D01*
X153963Y139113D01*
X151335Y141742D01*
Y158851D01*
X151218Y159436D01*
X150887Y159932D01*
X145630Y165189D01*
X145133Y165521D01*
X144548Y165637D01*
X111939D01*
X108335Y169241D01*
Y179309D01*
X108501Y179475D01*
X108806Y180210D01*
Y181006D01*
X108501Y181741D01*
X107939Y182304D01*
X107203Y182608D01*
X106408D01*
X105673Y182304D01*
X105110Y181741D01*
X104806Y181006D01*
Y180210D01*
X105110Y179475D01*
X105275Y179310D01*
X105276Y179302D01*
Y168608D01*
X105393Y168023D01*
X105724Y167527D01*
X109151Y164099D01*
X108960Y163637D01*
X104439D01*
X99085Y168991D01*
Y173843D01*
X98968Y174428D01*
X98637Y174924D01*
X93335Y180226D01*
Y182809D01*
X93501Y182975D01*
X93806Y183710D01*
Y184506D01*
X93501Y185241D01*
X92939Y185803D01*
X92203Y186108D01*
X91408D01*
X90673Y185803D01*
X90110Y185241D01*
X89806Y184506D01*
Y183710D01*
X90110Y182975D01*
X90276Y182810D01*
X90276Y182802D01*
Y181131D01*
X89814Y180939D01*
X85766Y184987D01*
Y187635D01*
X126255D01*
X126534Y187135D01*
X126319Y186614D01*
Y185819D01*
X126623Y185084D01*
X126788Y184918D01*
X126789Y184910D01*
Y177916D01*
X126906Y177331D01*
X127237Y176835D01*
X133895Y170177D01*
Y169942D01*
X134199Y169207D01*
X134762Y168644D01*
X135497Y168340D01*
X136293D01*
X137028Y168644D01*
X137590Y169207D01*
X137895Y169942D01*
Y170738D01*
X137590Y171473D01*
X137028Y172035D01*
X136293Y172340D01*
X136059D01*
X136053Y172345D01*
X129848Y178550D01*
Y184917D01*
X130014Y185084D01*
X130319Y185819D01*
Y186614D01*
X130103Y187135D01*
X130382Y187635D01*
X131116D01*
X156806Y161945D01*
Y161710D01*
X157110Y160975D01*
X157673Y160413D01*
X158408Y160108D01*
X159203D01*
X159939Y160413D01*
X160104Y160578D01*
X160112Y160579D01*
X161027D01*
X161179Y160079D01*
X160981Y159946D01*
X160643Y159608D01*
X160408D01*
X159673Y159303D01*
X159110Y158741D01*
X158806Y158006D01*
Y157210D01*
X159110Y156475D01*
X159673Y155912D01*
X160408Y155608D01*
X161203D01*
X161939Y155912D01*
X162501Y156475D01*
X162806Y157210D01*
Y157335D01*
X193369D01*
X193535Y157169D01*
X194270Y156865D01*
X195065D01*
X195800Y157169D01*
X196363Y157732D01*
X196668Y158467D01*
Y159263D01*
X196363Y159998D01*
X195800Y160560D01*
X195065Y160865D01*
X194270D01*
X193535Y160560D01*
X193369Y160395D01*
X193361Y160394D01*
X166341D01*
X166189Y160894D01*
X166387Y161027D01*
X189344Y183983D01*
X189806Y183792D01*
Y183710D01*
X190110Y182975D01*
X190673Y182413D01*
X191408Y182108D01*
X191642D01*
X191648Y182103D01*
X195276Y178474D01*
Y170608D01*
X195393Y170023D01*
X195724Y169527D01*
X200224Y165027D01*
X200720Y164695D01*
X201306Y164579D01*
X202471D01*
X202637Y164412D01*
X202794Y164347D01*
X202892Y163857D01*
X197724Y158689D01*
X197393Y158193D01*
X197276Y157608D01*
Y141242D01*
X176143Y120108D01*
X175908D01*
X175173Y119804D01*
X174610Y119241D01*
X174306Y118506D01*
Y117710D01*
X174610Y116975D01*
X175173Y116412D01*
X175908Y116108D01*
X176703D01*
X177438Y116412D01*
X178001Y116975D01*
X178306Y117710D01*
Y117944D01*
X178311Y117950D01*
X199887Y139527D01*
X200219Y140023D01*
X200335Y140608D01*
Y156974D01*
X201844Y158483D01*
X202306Y158292D01*
Y158210D01*
X202610Y157475D01*
X203173Y156913D01*
X203908Y156608D01*
X204703D01*
X205438Y156913D01*
X205604Y157078D01*
X205612Y157079D01*
X238901D01*
X239795Y156185D01*
Y156089D01*
X239912Y155504D01*
X240243Y155008D01*
X241306Y153945D01*
Y153710D01*
X241610Y152975D01*
X242173Y152412D01*
X242908Y152108D01*
X243703D01*
X243860Y152173D01*
X244276Y151895D01*
Y128907D01*
X244110Y128741D01*
X243806Y128006D01*
Y127478D01*
X243306Y127271D01*
X240184Y130393D01*
X240200Y130473D01*
X240083Y131058D01*
X239752Y131554D01*
X239255Y131886D01*
X239139Y131909D01*
X239001Y132241D01*
X238439Y132803D01*
X238067Y132957D01*
X237950Y133547D01*
X238652Y134248D01*
X238886D01*
X239622Y134553D01*
X240184Y135116D01*
X240489Y135851D01*
Y136646D01*
X240184Y137381D01*
X239622Y137944D01*
X238886Y138249D01*
X238091D01*
X237565Y138031D01*
X237183Y138414D01*
X237306Y138710D01*
Y139506D01*
X237001Y140241D01*
X236438Y140804D01*
X235703Y141108D01*
X234908D01*
X234173Y140804D01*
X233610Y140241D01*
X233306Y139506D01*
Y139272D01*
X233300Y139266D01*
X221724Y127689D01*
X221393Y127193D01*
X221276Y126608D01*
Y79108D01*
X221393Y78523D01*
X221658Y78126D01*
X221270Y77807D01*
X218342Y80734D01*
Y140481D01*
X220468Y142608D01*
X220703D01*
X221439Y142912D01*
X222001Y143475D01*
X222306Y144210D01*
Y145006D01*
X222001Y145741D01*
X221439Y146303D01*
X220703Y146608D01*
X219908D01*
X219173Y146303D01*
X218610Y145741D01*
X218306Y145006D01*
Y144772D01*
X218301Y144766D01*
X215731Y142197D01*
X215400Y141700D01*
X215283Y141115D01*
Y80101D01*
X215400Y79516D01*
X215731Y79019D01*
X232231Y62520D01*
X232727Y62188D01*
X233313Y62072D01*
X310953D01*
X311144Y61610D01*
X303897Y54363D01*
X303566Y53866D01*
X303449Y53281D01*
Y31684D01*
X302673Y31236D01*
X301973Y30536D01*
X301479Y29680D01*
X301223Y28725D01*
Y27736D01*
X301479Y26780D01*
X301973Y25924D01*
X302673Y25225D01*
X303529Y24730D01*
X304484Y24474D01*
X305473D01*
X306429Y24730D01*
X307285Y25225D01*
X307984Y25924D01*
X308479Y26780D01*
X308735Y27736D01*
Y28725D01*
X308479Y29680D01*
X307984Y30536D01*
X307285Y31236D01*
X306508Y31684D01*
Y52648D01*
X314244Y60383D01*
X314448Y60519D01*
X328887Y74959D01*
X329219Y75455D01*
X329335Y76040D01*
Y126043D01*
X329219Y126629D01*
X328887Y127125D01*
X312680Y143332D01*
Y143567D01*
X312375Y144302D01*
X311812Y144865D01*
X311077Y145169D01*
X310282D01*
X309547Y144865D01*
X308984Y144302D01*
X308680Y143567D01*
Y142772D01*
X308984Y142037D01*
X309547Y141474D01*
X310282Y141170D01*
X310516D01*
X310522Y141164D01*
X326276Y125410D01*
Y76674D01*
X325297Y75695D01*
X324835Y75886D01*
Y96419D01*
X324718Y97004D01*
X324387Y97500D01*
X320560Y101327D01*
Y101858D01*
X321173Y102471D01*
X321668Y103328D01*
X321924Y104283D01*
Y105272D01*
X321668Y106227D01*
X321173Y107083D01*
X320474Y107783D01*
X319618Y108277D01*
X318662Y108533D01*
X317673D01*
X316718Y108277D01*
X315862Y107783D01*
X315162Y107083D01*
X314668Y106227D01*
X314412Y105272D01*
Y104283D01*
X314668Y103328D01*
X315162Y102471D01*
X315862Y101772D01*
X316718Y101277D01*
X317502Y101067D01*
Y100693D01*
X317618Y100108D01*
X317950Y99612D01*
X318371Y99191D01*
X318163Y98691D01*
X317673D01*
X316718Y98435D01*
X315862Y97940D01*
X315162Y97241D01*
X314714Y96464D01*
X280386D01*
X280286Y96964D01*
X280592Y97091D01*
X281154Y97653D01*
X281417Y98286D01*
X277501D01*
X277763Y97653D01*
X278326Y97091D01*
X278631Y96964D01*
X278532Y96464D01*
X274112D01*
X245468Y125108D01*
X245676Y125608D01*
X246203D01*
X246938Y125912D01*
X247501Y126475D01*
X247806Y127210D01*
Y128006D01*
X247501Y128741D01*
X247336Y128906D01*
X247335Y128914D01*
Y132747D01*
X247835Y132995D01*
X248408Y132758D01*
X249203D01*
X249939Y133062D01*
X250501Y133625D01*
X250806Y134360D01*
Y135155D01*
X250501Y135890D01*
X250376Y136016D01*
X264381Y150021D01*
X264610Y149975D01*
X265173Y149413D01*
X265908Y149108D01*
X266142D01*
X266148Y149103D01*
X271224Y144027D01*
X271720Y143695D01*
X272306Y143579D01*
X298506D01*
X298673Y143412D01*
X299408Y143108D01*
X300203D01*
X300645Y143291D01*
X301146Y142966D01*
Y135611D01*
X281643Y116108D01*
X281408D01*
X280673Y115804D01*
X280110Y115241D01*
X279806Y114506D01*
Y113710D01*
X280110Y112975D01*
X280673Y112413D01*
X281408Y112108D01*
X282203D01*
X282939Y112413D01*
X283501Y112975D01*
X283806Y113710D01*
Y113944D01*
X283811Y113950D01*
X303756Y133896D01*
X304088Y134392D01*
X304204Y134977D01*
Y148074D01*
X304370Y148240D01*
X304675Y148975D01*
Y149771D01*
X304370Y150506D01*
X303808Y151068D01*
X303073Y151373D01*
X302277D01*
X301542Y151068D01*
X300979Y150506D01*
X300675Y149771D01*
Y148975D01*
X300979Y148240D01*
X301145Y148075D01*
X301146Y148067D01*
Y147250D01*
X300645Y146925D01*
X300203Y147108D01*
X299408D01*
X298673Y146803D01*
X298507Y146638D01*
X298499Y146637D01*
X272939D01*
X268306Y151271D01*
Y151506D01*
X268001Y152241D01*
X267439Y152804D01*
X267393Y153033D01*
X269163Y154803D01*
X301529D01*
X302114Y154919D01*
X302610Y155251D01*
X322387Y175027D01*
X322719Y175523D01*
X322835Y176109D01*
Y202269D01*
X322719Y202855D01*
X322387Y203351D01*
X319329Y206409D01*
X319562Y207275D01*
Y208264D01*
X319305Y209219D01*
X318811Y210076D01*
X318112Y210775D01*
X317255Y211269D01*
X316300Y211525D01*
X315311D01*
X314356Y211269D01*
X313499Y210775D01*
X312800Y210076D01*
X312306Y209219D01*
X312050Y208264D01*
Y207275D01*
X312306Y206320D01*
X312800Y205463D01*
X313499Y204764D01*
X314356Y204270D01*
X315311Y204013D01*
X316300D01*
X317166Y204246D01*
X319776Y201636D01*
Y199715D01*
X319710Y199672D01*
X319042Y199832D01*
X318811Y200233D01*
X318112Y200932D01*
X317255Y201427D01*
X316300Y201683D01*
X315311D01*
X314356Y201427D01*
X313499Y200932D01*
X312800Y200233D01*
X312352Y199456D01*
X195120D01*
X185835Y208741D01*
Y235936D01*
X185719Y236522D01*
X185387Y237018D01*
X184801Y237604D01*
X184305Y237935D01*
X183720Y238052D01*
X98944D01*
X98752Y238513D01*
X98761Y238522D01*
X99066Y239257D01*
Y240053D01*
X98761Y240788D01*
X98199Y241351D01*
X97464Y241655D01*
D02*
G37*
G36*
X22113Y227199D02*
X13932D01*
Y219018D01*
X22113D01*
Y227199D01*
D02*
G37*
G36*
X316300Y221368D02*
X315311D01*
X314356Y221112D01*
X313499Y220617D01*
X312800Y219918D01*
X312306Y219062D01*
X312050Y218106D01*
Y217118D01*
X312306Y216162D01*
X312800Y215306D01*
X313499Y214606D01*
X314356Y214112D01*
X315311Y213856D01*
X316300D01*
X317255Y214112D01*
X318112Y214606D01*
X318811Y215306D01*
X319305Y216162D01*
X319562Y217118D01*
Y218106D01*
X319305Y219062D01*
X318811Y219918D01*
X318112Y220617D01*
X317255Y221112D01*
X316300Y221368D01*
D02*
G37*
G36*
X194806Y210566D02*
Y209108D01*
X196263D01*
X196001Y209741D01*
X195439Y210303D01*
X194806Y210566D01*
D02*
G37*
G36*
X193806D02*
X193173Y210303D01*
X192610Y209741D01*
X192348Y209108D01*
X193806D01*
Y210566D01*
D02*
G37*
G36*
X196263Y208108D02*
X194806D01*
Y206650D01*
X195439Y206912D01*
X196001Y207475D01*
X196263Y208108D01*
D02*
G37*
G36*
X193806D02*
X192348D01*
X192610Y207475D01*
X193173Y206912D01*
X193806Y206650D01*
Y208108D01*
D02*
G37*
G36*
X28561Y227199D02*
X27484D01*
X26444Y226920D01*
X25511Y226381D01*
X24750Y225620D01*
X24211Y224687D01*
X23932Y223646D01*
Y222569D01*
X24211Y221529D01*
X24750Y220596D01*
X25511Y219835D01*
X26444Y219296D01*
X26493Y219283D01*
Y206391D01*
X26610Y205805D01*
X26941Y205309D01*
X40306Y191945D01*
Y191710D01*
X40610Y190975D01*
X41173Y190412D01*
X41908Y190108D01*
X42703D01*
X43439Y190412D01*
X44001Y190975D01*
X44306Y191710D01*
Y192506D01*
X44001Y193241D01*
X43439Y193804D01*
X42703Y194108D01*
X42469D01*
X42463Y194113D01*
X29552Y207024D01*
Y219283D01*
X29602Y219296D01*
X30535Y219835D01*
X31296Y220596D01*
X31835Y221529D01*
X32113Y222569D01*
Y223646D01*
X31835Y224687D01*
X31296Y225620D01*
X30535Y226381D01*
X29602Y226920D01*
X28561Y227199D01*
D02*
G37*
G36*
X21072Y185429D02*
X20083D01*
X19128Y185173D01*
X18271Y184678D01*
X17572Y183979D01*
X17077Y183123D01*
X16821Y182167D01*
Y181178D01*
X17077Y180223D01*
X17572Y179367D01*
X18271Y178667D01*
X19128Y178173D01*
X20083Y177917D01*
X21072D01*
X22027Y178173D01*
X22883Y178667D01*
X23583Y179367D01*
X24077Y180223D01*
X24333Y181178D01*
Y182167D01*
X24077Y183123D01*
X23583Y183979D01*
X22883Y184678D01*
X22027Y185173D01*
X21072Y185429D01*
D02*
G37*
G36*
X55306Y179455D02*
Y176608D01*
X58152D01*
X57939Y177406D01*
X57496Y178172D01*
X56870Y178798D01*
X56103Y179241D01*
X55306Y179455D01*
D02*
G37*
G36*
X54306D02*
X53508Y179241D01*
X52741Y178798D01*
X52115Y178172D01*
X51673Y177406D01*
X51459Y176608D01*
X54306D01*
Y179455D01*
D02*
G37*
G36*
X58152Y175608D02*
X55306D01*
Y172761D01*
X56103Y172975D01*
X56870Y173418D01*
X57496Y174044D01*
X57939Y174810D01*
X58152Y175608D01*
D02*
G37*
G36*
X54306D02*
X51459D01*
X51673Y174810D01*
X52115Y174044D01*
X52741Y173418D01*
X53508Y172975D01*
X54306Y172761D01*
Y175608D01*
D02*
G37*
G36*
X21072Y175586D02*
X20083D01*
X19128Y175330D01*
X18271Y174836D01*
X17572Y174137D01*
X17077Y173280D01*
X16821Y172325D01*
Y171336D01*
X17077Y170381D01*
X17572Y169524D01*
X18271Y168825D01*
X19128Y168330D01*
X20083Y168075D01*
X21072D01*
X22027Y168330D01*
X22883Y168825D01*
X23583Y169524D01*
X24077Y170381D01*
X24333Y171336D01*
Y172325D01*
X24077Y173280D01*
X23583Y174137D01*
X22883Y174836D01*
X22027Y175330D01*
X21072Y175586D01*
D02*
G37*
G36*
X219306Y154566D02*
Y153108D01*
X220763D01*
X220501Y153741D01*
X219938Y154304D01*
X219306Y154566D01*
D02*
G37*
G36*
X218306D02*
X217673Y154304D01*
X217110Y153741D01*
X216848Y153108D01*
X218306D01*
Y154566D01*
D02*
G37*
G36*
X24333Y155901D02*
X21077D01*
Y152645D01*
X24333D01*
Y155901D01*
D02*
G37*
G36*
X20077D02*
X16821D01*
Y152645D01*
X20077D01*
Y155901D01*
D02*
G37*
G36*
X220763Y152108D02*
X219306D01*
Y150650D01*
X219938Y150912D01*
X220501Y151475D01*
X220763Y152108D01*
D02*
G37*
G36*
X218306D02*
X216848D01*
X217110Y151475D01*
X217673Y150912D01*
X218306Y150650D01*
Y152108D01*
D02*
G37*
G36*
X133950Y154168D02*
X133155D01*
X132420Y153863D01*
X132254Y153698D01*
X132246Y153697D01*
X122865D01*
X122280Y153581D01*
X121784Y153249D01*
X102643Y134108D01*
X102408D01*
X101673Y133803D01*
X101110Y133241D01*
X100806Y132506D01*
Y131710D01*
X101110Y130975D01*
X101673Y130412D01*
X102408Y130108D01*
X103203D01*
X103938Y130412D01*
X104501Y130975D01*
X104806Y131710D01*
Y131944D01*
X104811Y131950D01*
X123499Y150638D01*
X132254D01*
X132420Y150472D01*
X133155Y150168D01*
X133950D01*
X134686Y150472D01*
X135248Y151035D01*
X135553Y151770D01*
Y152566D01*
X135248Y153301D01*
X134686Y153863D01*
X133950Y154168D01*
D02*
G37*
G36*
X24333Y151645D02*
X21077D01*
Y148389D01*
X24333D01*
Y151645D01*
D02*
G37*
G36*
X20077D02*
X16821D01*
Y148389D01*
X20077D01*
Y151645D01*
D02*
G37*
G36*
X55248Y154470D02*
X54363D01*
X53508Y154241D01*
X52741Y153798D01*
X52115Y153172D01*
X51673Y152406D01*
X51443Y151551D01*
Y150665D01*
X51673Y149810D01*
X52115Y149044D01*
X52741Y148418D01*
X53508Y147975D01*
X54363Y147746D01*
X55248D01*
X56103Y147975D01*
X56870Y148418D01*
X57496Y149044D01*
X57939Y149810D01*
X58168Y150665D01*
Y151551D01*
X57939Y152406D01*
X57496Y153172D01*
X56870Y153798D01*
X56103Y154241D01*
X55248Y154470D01*
D02*
G37*
G36*
X128306Y147566D02*
Y146108D01*
X129763D01*
X129501Y146741D01*
X128938Y147303D01*
X128306Y147566D01*
D02*
G37*
G36*
X127306D02*
X126673Y147303D01*
X126110Y146741D01*
X125848Y146108D01*
X127306D01*
Y147566D01*
D02*
G37*
G36*
X129763Y145108D02*
X128306D01*
Y143650D01*
X128938Y143912D01*
X129501Y144475D01*
X129763Y145108D01*
D02*
G37*
G36*
X127306D02*
X125848D01*
X126110Y144475D01*
X126673Y143912D01*
X127306Y143650D01*
Y145108D01*
D02*
G37*
G36*
X82761Y149294D02*
X81850D01*
X80970Y149058D01*
X80181Y148603D01*
X79536Y147959D01*
X79081Y147169D01*
X78845Y146289D01*
Y145378D01*
X79081Y144498D01*
X79536Y143709D01*
X80181Y143064D01*
X80970Y142609D01*
X81850Y142373D01*
X82761D01*
X83641Y142609D01*
X84430Y143064D01*
X85075Y143709D01*
X85530Y144498D01*
X85766Y145378D01*
Y146289D01*
X85530Y147169D01*
X85075Y147959D01*
X84430Y148603D01*
X83641Y149058D01*
X82761Y149294D01*
D02*
G37*
G36*
X174844Y143784D02*
Y142326D01*
X176302D01*
X176039Y142959D01*
X175477Y143522D01*
X174844Y143784D01*
D02*
G37*
G36*
X173844D02*
X173211Y143522D01*
X172648Y142959D01*
X172386Y142326D01*
X173844D01*
Y143784D01*
D02*
G37*
G36*
X176302Y141326D02*
X174844D01*
Y139869D01*
X175477Y140131D01*
X176039Y140693D01*
X176302Y141326D01*
D02*
G37*
G36*
X173844D02*
X172386D01*
X172648Y140693D01*
X173211Y140131D01*
X173844Y139869D01*
Y141326D01*
D02*
G37*
G36*
X265468Y139699D02*
Y138241D01*
X266926D01*
X266663Y138874D01*
X266101Y139437D01*
X265468Y139699D01*
D02*
G37*
G36*
X264468D02*
X263835Y139437D01*
X263272Y138874D01*
X263010Y138241D01*
X264468D01*
Y139699D01*
D02*
G37*
G36*
X266926Y137241D02*
X265468D01*
Y135784D01*
X266101Y136046D01*
X266663Y136609D01*
X266926Y137241D01*
D02*
G37*
G36*
X264468D02*
X263010D01*
X263272Y136609D01*
X263835Y136046D01*
X264468Y135784D01*
Y137241D01*
D02*
G37*
G36*
X202806Y128066D02*
Y126608D01*
X204263D01*
X204001Y127241D01*
X203438Y127804D01*
X202806Y128066D01*
D02*
G37*
G36*
X201806D02*
X201173Y127804D01*
X200610Y127241D01*
X200348Y126608D01*
X201806D01*
Y128066D01*
D02*
G37*
G36*
X321924Y128218D02*
X318668D01*
Y124962D01*
X321924D01*
Y128218D01*
D02*
G37*
G36*
X317668D02*
X314412D01*
Y124962D01*
X317668D01*
Y128218D01*
D02*
G37*
G36*
X204263Y125608D02*
X202806D01*
Y124150D01*
X203438Y124413D01*
X204001Y124975D01*
X204263Y125608D01*
D02*
G37*
G36*
X201806D02*
X200348D01*
X200610Y124975D01*
X201173Y124413D01*
X201806Y124150D01*
Y125608D01*
D02*
G37*
G36*
X108306Y123066D02*
Y121608D01*
X109763D01*
X109501Y122241D01*
X108939Y122803D01*
X108306Y123066D01*
D02*
G37*
G36*
X107306D02*
X106673Y122803D01*
X106110Y122241D01*
X105848Y121608D01*
X107306D01*
Y123066D01*
D02*
G37*
G36*
X321924Y123962D02*
X318668D01*
Y120706D01*
X321924D01*
Y123962D01*
D02*
G37*
G36*
X317668D02*
X314412D01*
Y120706D01*
X317668D01*
Y123962D01*
D02*
G37*
G36*
X109763Y120608D02*
X108306D01*
Y119150D01*
X108939Y119413D01*
X109501Y119975D01*
X109763Y120608D01*
D02*
G37*
G36*
X107306D02*
X105848D01*
X106110Y119975D01*
X106673Y119413D01*
X107306Y119150D01*
Y120608D01*
D02*
G37*
G36*
X281385Y129122D02*
X280589D01*
X279854Y128817D01*
X279292Y128255D01*
X278987Y127520D01*
Y126724D01*
X279292Y125989D01*
X279457Y125823D01*
X279458Y125816D01*
Y121423D01*
X278143Y120108D01*
X277908D01*
X277173Y119804D01*
X276610Y119241D01*
X276306Y118506D01*
Y117710D01*
X276610Y116975D01*
X277173Y116412D01*
X277908Y116108D01*
X278703D01*
X279438Y116412D01*
X280001Y116975D01*
X280306Y117710D01*
Y117944D01*
X280311Y117950D01*
X282068Y119708D01*
X282400Y120204D01*
X282516Y120790D01*
Y125823D01*
X282682Y125989D01*
X282987Y126724D01*
Y127520D01*
X282682Y128255D01*
X282120Y128817D01*
X281385Y129122D01*
D02*
G37*
G36*
X85766Y116661D02*
X82806D01*
Y113700D01*
X85766D01*
Y116661D01*
D02*
G37*
G36*
X81806D02*
X78845D01*
Y113700D01*
X81806D01*
Y116661D01*
D02*
G37*
G36*
X318662Y118376D02*
X317673D01*
X316718Y118120D01*
X315862Y117625D01*
X315162Y116926D01*
X314668Y116069D01*
X314412Y115114D01*
Y114125D01*
X314668Y113170D01*
X315162Y112314D01*
X315862Y111614D01*
X316718Y111120D01*
X317673Y110864D01*
X318662D01*
X319618Y111120D01*
X320474Y111614D01*
X321173Y112314D01*
X321668Y113170D01*
X321924Y114125D01*
Y115114D01*
X321668Y116069D01*
X321173Y116926D01*
X320474Y117625D01*
X319618Y118120D01*
X318662Y118376D01*
D02*
G37*
G36*
X85766Y112700D02*
X82806D01*
Y109740D01*
X85766D01*
Y112700D01*
D02*
G37*
G36*
X81806D02*
X78845D01*
Y109740D01*
X81806D01*
Y112700D01*
D02*
G37*
G36*
X268703Y145108D02*
X267908D01*
X267173Y144804D01*
X266610Y144241D01*
X266306Y143506D01*
Y142710D01*
X266610Y141975D01*
X267173Y141412D01*
X267908Y141108D01*
X268142D01*
X268148Y141103D01*
X271776Y137475D01*
Y108907D01*
X271610Y108741D01*
X271306Y108006D01*
Y107210D01*
X271610Y106475D01*
X272173Y105912D01*
X272908Y105608D01*
X273703D01*
X274439Y105912D01*
X275001Y106475D01*
X275306Y107210D01*
Y108006D01*
X275001Y108741D01*
X274836Y108906D01*
X274835Y108914D01*
Y138108D01*
X274718Y138693D01*
X274387Y139189D01*
X270306Y143271D01*
Y143506D01*
X270001Y144241D01*
X269439Y144804D01*
X268703Y145108D01*
D02*
G37*
G36*
X207806Y104066D02*
Y102608D01*
X209263D01*
X209001Y103241D01*
X208438Y103804D01*
X207806Y104066D01*
D02*
G37*
G36*
X206806D02*
X206173Y103804D01*
X205610Y103241D01*
X205348Y102608D01*
X206806D01*
Y104066D01*
D02*
G37*
G36*
X21072Y109771D02*
X20083D01*
X19128Y109515D01*
X18271Y109021D01*
X17572Y108321D01*
X17077Y107465D01*
X16821Y106510D01*
Y105521D01*
X17077Y104566D01*
X17572Y103709D01*
X18271Y103010D01*
X19128Y102515D01*
X20083Y102259D01*
X21072D01*
X22027Y102515D01*
X22883Y103010D01*
X23583Y103709D01*
X24077Y104566D01*
X24333Y105521D01*
Y106510D01*
X24077Y107465D01*
X23583Y108321D01*
X22883Y109021D01*
X22027Y109515D01*
X21072Y109771D01*
D02*
G37*
G36*
X108449Y101932D02*
Y100475D01*
X109907D01*
X109644Y101108D01*
X109082Y101670D01*
X108449Y101932D01*
D02*
G37*
G36*
X107449D02*
X106816Y101670D01*
X106253Y101108D01*
X105991Y100475D01*
X107449D01*
Y101932D01*
D02*
G37*
G36*
X209263Y101608D02*
X207806D01*
Y100150D01*
X208438Y100412D01*
X209001Y100975D01*
X209263Y101608D01*
D02*
G37*
G36*
X206806D02*
X205348D01*
X205610Y100975D01*
X206173Y100412D01*
X206806Y100150D01*
Y101608D01*
D02*
G37*
G36*
X279959Y100744D02*
Y99286D01*
X281417D01*
X281154Y99919D01*
X280592Y100482D01*
X279959Y100744D01*
D02*
G37*
G36*
X278959D02*
X278326Y100482D01*
X277763Y99919D01*
X277501Y99286D01*
X278959D01*
Y100744D01*
D02*
G37*
G36*
X109907Y99475D02*
X108449D01*
Y98017D01*
X109082Y98279D01*
X109644Y98842D01*
X109907Y99475D01*
D02*
G37*
G36*
X107449D02*
X105991D01*
X106253Y98842D01*
X106816Y98279D01*
X107449Y98017D01*
Y99475D01*
D02*
G37*
G36*
X140203Y104108D02*
X139408D01*
X138673Y103804D01*
X138110Y103241D01*
X137806Y102506D01*
Y101710D01*
X138110Y100975D01*
X138673Y100412D01*
X139408Y100108D01*
X139642D01*
X139648Y100103D01*
X142761Y96989D01*
Y93170D01*
X142261Y92881D01*
X141781Y93159D01*
X140948Y93382D01*
X140086D01*
X139253Y93159D01*
X138507Y92728D01*
X137898Y92118D01*
X137467Y91372D01*
X137243Y90539D01*
Y89677D01*
X137467Y88844D01*
X137898Y88098D01*
X138507Y87489D01*
X139253Y87058D01*
X140086Y86834D01*
X140948D01*
X141781Y87058D01*
X142261Y87335D01*
X142761Y87046D01*
Y86198D01*
X87431Y30868D01*
X86565Y31100D01*
X85576D01*
X84621Y30844D01*
X83764Y30350D01*
X83065Y29650D01*
X82570Y28794D01*
X82314Y27839D01*
Y26850D01*
X82570Y25894D01*
X83065Y25038D01*
X83764Y24339D01*
X84621Y23844D01*
X85576Y23588D01*
X86565D01*
X87520Y23844D01*
X88376Y24339D01*
X89076Y25038D01*
X89570Y25894D01*
X89826Y26850D01*
Y27839D01*
X89594Y28705D01*
X145372Y84483D01*
X145704Y84979D01*
X145820Y85565D01*
Y97623D01*
X145704Y98208D01*
X145372Y98704D01*
X141806Y102271D01*
Y102506D01*
X141501Y103241D01*
X140938Y103804D01*
X140203Y104108D01*
D02*
G37*
G36*
X24333Y80244D02*
X21077D01*
Y76988D01*
X24333D01*
Y80244D01*
D02*
G37*
G36*
X20077D02*
X16821D01*
Y76988D01*
X20077D01*
Y80244D01*
D02*
G37*
G36*
X24333Y75988D02*
X21077D01*
Y72732D01*
X24333D01*
Y75988D01*
D02*
G37*
G36*
X20077D02*
X16821D01*
Y72732D01*
X20077D01*
Y75988D01*
D02*
G37*
G36*
X58806Y56455D02*
Y53608D01*
X61652D01*
X61439Y54406D01*
X60996Y55172D01*
X60370Y55798D01*
X59603Y56241D01*
X58806Y56455D01*
D02*
G37*
G36*
X57806D02*
X57008Y56241D01*
X56241Y55798D01*
X55615Y55172D01*
X55172Y54406D01*
X54959Y53608D01*
X57806D01*
Y56455D01*
D02*
G37*
G36*
X61652Y52608D02*
X58806D01*
Y49761D01*
X59603Y49975D01*
X60370Y50418D01*
X60996Y51044D01*
X61439Y51810D01*
X61652Y52608D01*
D02*
G37*
G36*
X57806D02*
X54959D01*
X55172Y51810D01*
X55615Y51044D01*
X56241Y50418D01*
X57008Y49975D01*
X57806Y49761D01*
Y52608D01*
D02*
G37*
G36*
X48748Y56470D02*
X47863D01*
X47008Y56241D01*
X46241Y55798D01*
X45615Y55172D01*
X45173Y54406D01*
X44943Y53551D01*
Y52665D01*
X45173Y51810D01*
X45615Y51044D01*
X46241Y50418D01*
X47008Y49975D01*
X47863Y49746D01*
X48748D01*
X49603Y49975D01*
X50370Y50418D01*
X50996Y51044D01*
X51439Y51810D01*
X51668Y52665D01*
Y53551D01*
X51439Y54406D01*
X50996Y55172D01*
X50370Y55798D01*
X49603Y56241D01*
X48748Y56470D01*
D02*
G37*
G36*
X20930Y42122D02*
Y38868D01*
X24184D01*
X23930Y39818D01*
X23435Y40674D01*
X22736Y41373D01*
X21879Y41868D01*
X20930Y42122D01*
D02*
G37*
G36*
X19930D02*
X18980Y41868D01*
X18123Y41373D01*
X17424Y40674D01*
X16930Y39818D01*
X16675Y38868D01*
X19930D01*
Y42122D01*
D02*
G37*
G36*
X24184Y37868D02*
X20930D01*
Y34613D01*
X21879Y34868D01*
X22736Y35362D01*
X23435Y36062D01*
X23930Y36918D01*
X24184Y37868D01*
D02*
G37*
G36*
X19930D02*
X16675D01*
X16930Y36918D01*
X17424Y36062D01*
X18123Y35362D01*
X18980Y34868D01*
X19930Y34613D01*
Y37868D01*
D02*
G37*
G36*
X154546Y102339D02*
X153750D01*
X153015Y102034D01*
X152452Y101471D01*
X152148Y100736D01*
Y100502D01*
X152143Y100496D01*
X148224Y96578D01*
X147893Y96082D01*
X147776Y95496D01*
Y32741D01*
X145903Y30868D01*
X145036Y31100D01*
X144047D01*
X143092Y30844D01*
X142236Y30350D01*
X141536Y29650D01*
X141042Y28794D01*
X140786Y27839D01*
Y26850D01*
X141042Y25894D01*
X141536Y25038D01*
X142236Y24339D01*
X143092Y23844D01*
X144047Y23588D01*
X145036D01*
X145992Y23844D01*
X146848Y24339D01*
X147547Y25038D01*
X148042Y25894D01*
X148298Y26850D01*
Y27839D01*
X148065Y28705D01*
X150387Y31027D01*
X150718Y31523D01*
X150835Y32108D01*
Y94863D01*
X154311Y98339D01*
X154546D01*
X155281Y98643D01*
X155843Y99206D01*
X156148Y99941D01*
Y100736D01*
X155843Y101471D01*
X155281Y102034D01*
X154546Y102339D01*
D02*
G37*
G36*
X184412Y31099D02*
Y27844D01*
X187666D01*
X187412Y28794D01*
X186917Y29650D01*
X186218Y30350D01*
X185362Y30844D01*
X184412Y31099D01*
D02*
G37*
G36*
X183412D02*
X182462Y30844D01*
X181606Y30350D01*
X180906Y29650D01*
X180412Y28794D01*
X180157Y27844D01*
X183412D01*
Y31099D01*
D02*
G37*
G36*
X174569D02*
Y27844D01*
X177824D01*
X177569Y28794D01*
X177075Y29650D01*
X176375Y30350D01*
X175519Y30844D01*
X174569Y31099D01*
D02*
G37*
G36*
X173569D02*
X172620Y30844D01*
X171763Y30350D01*
X171064Y29650D01*
X170569Y28794D01*
X170315Y27844D01*
X173569D01*
Y31099D01*
D02*
G37*
G36*
X154884D02*
Y27844D01*
X158139D01*
X157884Y28794D01*
X157390Y29650D01*
X156691Y30350D01*
X155834Y30844D01*
X154884Y31099D01*
D02*
G37*
G36*
X153884D02*
X152935Y30844D01*
X152078Y30350D01*
X151379Y29650D01*
X150884Y28794D01*
X150630Y27844D01*
X153884D01*
Y31099D01*
D02*
G37*
G36*
X106255D02*
Y27844D01*
X109510D01*
X109255Y28794D01*
X108761Y29650D01*
X108062Y30350D01*
X107205Y30844D01*
X106255Y31099D01*
D02*
G37*
G36*
X105255D02*
X104306Y30844D01*
X103449Y30350D01*
X102750Y29650D01*
X102255Y28794D01*
X102001Y27844D01*
X105255D01*
Y31099D01*
D02*
G37*
G36*
X96413D02*
Y27844D01*
X99667D01*
X99413Y28794D01*
X98918Y29650D01*
X98219Y30350D01*
X97363Y30844D01*
X96413Y31099D01*
D02*
G37*
G36*
X95413D02*
X94463Y30844D01*
X93607Y30350D01*
X92907Y29650D01*
X92413Y28794D01*
X92158Y27844D01*
X95413D01*
Y31099D01*
D02*
G37*
G36*
X76728D02*
Y27844D01*
X79982D01*
X79728Y28794D01*
X79233Y29650D01*
X78534Y30350D01*
X77678Y30844D01*
X76728Y31099D01*
D02*
G37*
G36*
X75728D02*
X74778Y30844D01*
X73922Y30350D01*
X73222Y29650D01*
X72728Y28794D01*
X72473Y27844D01*
X75728D01*
Y31099D01*
D02*
G37*
G36*
X24185Y32281D02*
X16674D01*
Y24769D01*
X24185D01*
Y32281D01*
D02*
G37*
G36*
X315316Y31986D02*
X314327D01*
X313372Y31730D01*
X312515Y31236D01*
X311816Y30536D01*
X311321Y29680D01*
X311065Y28725D01*
Y27736D01*
X311321Y26780D01*
X311816Y25924D01*
X312515Y25225D01*
X313372Y24730D01*
X314327Y24474D01*
X315316D01*
X316271Y24730D01*
X317127Y25225D01*
X317827Y25924D01*
X318321Y26780D01*
X318577Y27736D01*
Y28725D01*
X318321Y29680D01*
X317827Y30536D01*
X317127Y31236D01*
X316271Y31730D01*
X315316Y31986D01*
D02*
G37*
G36*
X295631D02*
X294642D01*
X293687Y31730D01*
X292830Y31236D01*
X292131Y30536D01*
X291636Y29680D01*
X291380Y28725D01*
Y27736D01*
X291636Y26780D01*
X292131Y25924D01*
X292830Y25225D01*
X293687Y24730D01*
X294642Y24474D01*
X295631D01*
X296586Y24730D01*
X297442Y25225D01*
X298142Y25924D01*
X298636Y26780D01*
X298892Y27736D01*
Y28725D01*
X298636Y29680D01*
X298142Y30536D01*
X297442Y31236D01*
X296586Y31730D01*
X295631Y31986D01*
D02*
G37*
G36*
X289050D02*
X281538D01*
Y24474D01*
X289050D01*
Y31986D01*
D02*
G37*
G36*
X256516D02*
X255527D01*
X254572Y31730D01*
X253715Y31236D01*
X253016Y30536D01*
X252522Y29680D01*
X252266Y28725D01*
Y27736D01*
X252522Y26780D01*
X253016Y25924D01*
X253715Y25225D01*
X254572Y24730D01*
X255527Y24474D01*
X256516D01*
X257471Y24730D01*
X258328Y25225D01*
X259027Y25924D01*
X259522Y26780D01*
X259778Y27736D01*
Y28725D01*
X259522Y29680D01*
X259027Y30536D01*
X258328Y31236D01*
X257471Y31730D01*
X256516Y31986D01*
D02*
G37*
G36*
X246674D02*
X245685D01*
X244729Y31730D01*
X243873Y31236D01*
X243174Y30536D01*
X242679Y29680D01*
X242423Y28725D01*
Y27736D01*
X242679Y26780D01*
X243174Y25924D01*
X243873Y25225D01*
X244729Y24730D01*
X245685Y24474D01*
X246674D01*
X247629Y24730D01*
X248485Y25225D01*
X249185Y25924D01*
X249679Y26780D01*
X249935Y27736D01*
Y28725D01*
X249679Y29680D01*
X249185Y30536D01*
X248485Y31236D01*
X247629Y31730D01*
X246674Y31986D01*
D02*
G37*
G36*
X236831D02*
X235842D01*
X234887Y31730D01*
X234031Y31236D01*
X233331Y30536D01*
X232837Y29680D01*
X232581Y28725D01*
Y27736D01*
X232837Y26780D01*
X233331Y25924D01*
X234031Y25225D01*
X234887Y24730D01*
X235842Y24474D01*
X236831D01*
X237786Y24730D01*
X238643Y25225D01*
X239342Y25924D01*
X239837Y26780D01*
X240092Y27736D01*
Y28725D01*
X239837Y29680D01*
X239342Y30536D01*
X238643Y31236D01*
X237786Y31730D01*
X236831Y31986D01*
D02*
G37*
G36*
X230250D02*
X222738D01*
Y24474D01*
X230250D01*
Y31986D01*
D02*
G37*
G36*
X187666Y26844D02*
X184412D01*
Y23590D01*
X185362Y23844D01*
X186218Y24339D01*
X186917Y25038D01*
X187412Y25894D01*
X187666Y26844D01*
D02*
G37*
G36*
X183412D02*
X180157D01*
X180412Y25894D01*
X180906Y25038D01*
X181606Y24339D01*
X182462Y23844D01*
X183412Y23590D01*
Y26844D01*
D02*
G37*
G36*
X177824D02*
X174569D01*
Y23590D01*
X175519Y23844D01*
X176375Y24339D01*
X177075Y25038D01*
X177569Y25894D01*
X177824Y26844D01*
D02*
G37*
G36*
X173569D02*
X170315D01*
X170569Y25894D01*
X171064Y25038D01*
X171763Y24339D01*
X172620Y23844D01*
X173569Y23590D01*
Y26844D01*
D02*
G37*
G36*
X158139D02*
X154884D01*
Y23590D01*
X155834Y23844D01*
X156691Y24339D01*
X157390Y25038D01*
X157884Y25894D01*
X158139Y26844D01*
D02*
G37*
G36*
X153884D02*
X150630D01*
X150884Y25894D01*
X151379Y25038D01*
X152078Y24339D01*
X152935Y23844D01*
X153884Y23590D01*
Y26844D01*
D02*
G37*
G36*
X109510D02*
X106255D01*
Y23590D01*
X107205Y23844D01*
X108062Y24339D01*
X108761Y25038D01*
X109255Y25894D01*
X109510Y26844D01*
D02*
G37*
G36*
X105255D02*
X102001D01*
X102255Y25894D01*
X102750Y25038D01*
X103449Y24339D01*
X104306Y23844D01*
X105255Y23590D01*
Y26844D01*
D02*
G37*
G36*
X99667D02*
X96413D01*
Y23590D01*
X97363Y23844D01*
X98219Y24339D01*
X98918Y25038D01*
X99413Y25894D01*
X99667Y26844D01*
D02*
G37*
G36*
X95413D02*
X92158D01*
X92413Y25894D01*
X92907Y25038D01*
X93607Y24339D01*
X94463Y23844D01*
X95413Y23590D01*
Y26844D01*
D02*
G37*
G36*
X79982D02*
X76728D01*
Y23590D01*
X77678Y23844D01*
X78534Y24339D01*
X79233Y25038D01*
X79728Y25894D01*
X79982Y26844D01*
D02*
G37*
G36*
X75728D02*
X72473D01*
X72728Y25894D01*
X73222Y25038D01*
X73922Y24339D01*
X74778Y23844D01*
X75728Y23590D01*
Y26844D01*
D02*
G37*
G36*
X163703Y104608D02*
X162908D01*
X162173Y104304D01*
X161610Y103741D01*
X161306Y103006D01*
Y102210D01*
X161610Y101475D01*
X162173Y100912D01*
X162237Y100886D01*
Y93382D01*
X156456D01*
Y86834D01*
X162237D01*
Y30532D01*
X161921Y30350D01*
X161221Y29650D01*
X160727Y28794D01*
X160471Y27839D01*
Y26850D01*
X160727Y25894D01*
X161221Y25038D01*
X161921Y24339D01*
X162777Y23844D01*
X163732Y23588D01*
X164721D01*
X165676Y23844D01*
X166533Y24339D01*
X167232Y25038D01*
X167727Y25894D01*
X167983Y26850D01*
Y27839D01*
X167727Y28794D01*
X167232Y29650D01*
X166533Y30350D01*
X165676Y30844D01*
X165296Y30946D01*
Y102147D01*
X165290Y102173D01*
X165306Y102210D01*
Y103006D01*
X165001Y103741D01*
X164438Y104304D01*
X163703Y104608D01*
D02*
G37*
G36*
X138455Y31100D02*
X130943D01*
Y23588D01*
X138455D01*
Y31100D01*
D02*
G37*
G36*
X60299D02*
X52787D01*
Y23588D01*
X60299D01*
Y31100D01*
D02*
G37*
G36*
X338806Y17108D02*
X338468D01*
X336826Y16781D01*
X335279Y16141D01*
X333887Y15210D01*
X332703Y14026D01*
X331773Y12634D01*
X331132Y11087D01*
X330806Y9445D01*
Y9108D01*
X338806D01*
Y17108D01*
D02*
G37*
G36*
X10143D02*
X9806D01*
Y9108D01*
X17806D01*
Y9445D01*
X17479Y11087D01*
X16838Y12634D01*
X15908Y14026D01*
X14724Y15210D01*
X13332Y16141D01*
X11785Y16781D01*
X10143Y17108D01*
D02*
G37*
%LPD*%
G36*
X96352Y238955D02*
X96309Y238993D01*
X96259Y239027D01*
X96202Y239057D01*
X96137Y239083D01*
X96066Y239105D01*
X95987Y239123D01*
X95901Y239137D01*
X95808Y239147D01*
X95600Y239155D01*
Y240155D01*
X95707Y240157D01*
X95901Y240173D01*
X95987Y240187D01*
X96066Y240205D01*
X96137Y240227D01*
X96202Y240253D01*
X96259Y240283D01*
X96309Y240317D01*
X96352Y240355D01*
Y238955D01*
D02*
G37*
G36*
X134210Y227561D02*
X133210Y227549D01*
Y228549D01*
X133401Y228554D01*
X133573Y228569D01*
X133724Y228594D01*
X133855Y228629D01*
X133967Y228674D01*
X134058Y228729D01*
X134129Y228794D01*
X134180Y228869D01*
X134211Y228954D01*
X134222Y229049D01*
X134210Y227561D01*
D02*
G37*
G36*
X140316Y226549D02*
X140776Y226454D01*
Y218276D01*
X140276Y218210D01*
X140073Y218968D01*
X139605Y219779D01*
X138942Y220442D01*
X138130Y220910D01*
X137225Y221153D01*
X136288D01*
X135383Y220910D01*
X134571Y220442D01*
X133909Y219779D01*
X133440Y218968D01*
X133198Y218062D01*
Y217125D01*
X133440Y216220D01*
X133909Y215409D01*
X134571Y214746D01*
X135383Y214277D01*
X136288Y214035D01*
X137225D01*
X138130Y214277D01*
X138942Y214746D01*
X139605Y215409D01*
X140073Y216220D01*
X140276Y216978D01*
X140776Y216912D01*
Y195907D01*
X140610Y195741D01*
X140306Y195006D01*
Y194210D01*
X140543Y193637D01*
X140295Y193137D01*
X130518D01*
X130240Y193553D01*
X130306Y193710D01*
Y194506D01*
X130001Y195241D01*
X129438Y195803D01*
X128703Y196108D01*
X128469D01*
X128463Y196113D01*
X126353Y198223D01*
Y214035D01*
X132442D01*
Y221153D01*
X127786D01*
X127594Y221615D01*
X130910Y224931D01*
X131686Y225252D01*
X132847Y226143D01*
X133136Y226519D01*
X134698D01*
X134845Y226549D01*
X140316D01*
Y226549D01*
D02*
G37*
G36*
X182776Y208108D02*
X182893Y207523D01*
X183224Y207027D01*
X190651Y199599D01*
X190460Y199137D01*
X181897D01*
X181615Y199819D01*
X181052Y200382D01*
X180317Y200686D01*
X179522D01*
X178787Y200382D01*
X178224Y199819D01*
X177919Y199084D01*
Y198289D01*
X178224Y197554D01*
X178445Y197333D01*
X178507Y197023D01*
X178838Y196527D01*
X179334Y196195D01*
X179920Y196079D01*
X191344D01*
X193785Y193637D01*
X193648Y193200D01*
X193600Y193137D01*
X190975D01*
X190922Y193189D01*
X190426Y193521D01*
X189841Y193637D01*
X187770D01*
X187185Y193521D01*
X186689Y193189D01*
X186636Y193137D01*
X151026D01*
X150749Y193553D01*
X150819Y193724D01*
Y193958D01*
X150824Y193964D01*
X152387Y195527D01*
X173324Y216464D01*
X173655Y216960D01*
X173772Y217545D01*
Y226881D01*
X174428Y227260D01*
X175091Y227923D01*
X175559Y228734D01*
X175802Y229639D01*
Y230577D01*
X175559Y231482D01*
X175091Y232293D01*
X174428Y232956D01*
X173616Y233424D01*
X172711Y233667D01*
X171774D01*
X170869Y233424D01*
X170057Y232956D01*
X169395Y232293D01*
X168926Y231482D01*
X168684Y230577D01*
Y229639D01*
X168926Y228734D01*
X169395Y227923D01*
X170057Y227260D01*
X170713Y226881D01*
Y218179D01*
X150224Y197689D01*
X148656Y196122D01*
X148421D01*
X147686Y195817D01*
X147124Y195255D01*
X146819Y194519D01*
Y193724D01*
X146890Y193553D01*
X146612Y193137D01*
X144317D01*
X144068Y193637D01*
X144306Y194210D01*
Y195006D01*
X144001Y195741D01*
X143836Y195906D01*
X143835Y195914D01*
Y233608D01*
X143719Y234193D01*
X143518Y234493D01*
X143764Y234993D01*
X182776D01*
Y208108D01*
D02*
G37*
G36*
X90566Y237626D02*
X90533Y237604D01*
X82724Y229795D01*
X82393Y229298D01*
X82276Y228713D01*
Y227199D01*
X81767D01*
X80727Y226920D01*
X79794Y226381D01*
X79032Y225620D01*
X78494Y224687D01*
X78215Y223646D01*
Y222569D01*
X78494Y221529D01*
X79032Y220596D01*
X79794Y219835D01*
X80727Y219296D01*
X81767Y219018D01*
X82844D01*
X83885Y219296D01*
X84817Y219835D01*
X85579Y220596D01*
X86117Y221529D01*
X86396Y222569D01*
Y223646D01*
X86117Y224687D01*
X85579Y225620D01*
X85311Y225888D01*
X85335Y226010D01*
Y228080D01*
X88374Y231119D01*
X88903Y230940D01*
X89081Y230276D01*
X89536Y229487D01*
X90181Y228843D01*
X90970Y228387D01*
X91850Y228151D01*
X92761D01*
X93641Y228387D01*
X94431Y228843D01*
X95075Y229487D01*
X95530Y230276D01*
X95766Y231156D01*
Y232068D01*
X95530Y232948D01*
X95075Y233737D01*
X94431Y234381D01*
X94237Y234493D01*
X94371Y234993D01*
X129874D01*
X130066Y234531D01*
X129202Y233667D01*
X128414D01*
X127509Y233424D01*
X126697Y232956D01*
X126035Y232293D01*
X125566Y231482D01*
X125324Y230577D01*
Y229639D01*
X125566Y228734D01*
X126035Y227923D01*
X126697Y227260D01*
X127509Y226792D01*
X127764Y226723D01*
X127894Y226240D01*
X123742Y222089D01*
X123411Y221592D01*
X123294Y221007D01*
Y197590D01*
X123411Y197005D01*
X123676Y196608D01*
X123287Y196289D01*
X103335Y216242D01*
Y219149D01*
X103884Y219296D01*
X104817Y219835D01*
X105579Y220596D01*
X106117Y221529D01*
X106396Y222569D01*
Y223646D01*
X106117Y224687D01*
X105579Y225620D01*
X104817Y226381D01*
X103884Y226920D01*
X102844Y227199D01*
X101767D01*
X100727Y226920D01*
X99794Y226381D01*
X99032Y225620D01*
X98494Y224687D01*
X98215Y223646D01*
Y222569D01*
X98494Y221529D01*
X99032Y220596D01*
X99794Y219835D01*
X100276Y219556D01*
Y215608D01*
X100393Y215023D01*
X100724Y214527D01*
X124095Y191156D01*
X123904Y190694D01*
X94774D01*
X94703Y191164D01*
X95438Y191469D01*
X96001Y192031D01*
X96306Y192766D01*
Y193562D01*
X96001Y194297D01*
X95438Y194860D01*
X94703Y195164D01*
X93908D01*
X93557Y195019D01*
X70021Y218555D01*
X70212Y219018D01*
X76396D01*
Y225036D01*
X89486Y238126D01*
X90415D01*
X90566Y237626D01*
D02*
G37*
G36*
X142808Y195966D02*
X142824Y195773D01*
X142838Y195687D01*
X142856Y195608D01*
X142878Y195536D01*
X142904Y195472D01*
X142934Y195415D01*
X142968Y195365D01*
X143006Y195322D01*
X141606D01*
X141644Y195365D01*
X141678Y195415D01*
X141708Y195472D01*
X141734Y195536D01*
X141756Y195608D01*
X141774Y195687D01*
X141788Y195773D01*
X141798Y195866D01*
X141806Y196074D01*
X142806D01*
X142808Y195966D01*
D02*
G37*
G36*
X150209Y194805D02*
X150135Y194727D01*
X150009Y194579D01*
X149958Y194508D01*
X149915Y194440D01*
X149880Y194374D01*
X149853Y194310D01*
X149834Y194248D01*
X149823Y194189D01*
X149819Y194132D01*
X148829Y195122D01*
X148886Y195125D01*
X148946Y195136D01*
X149007Y195156D01*
X149071Y195183D01*
X149138Y195218D01*
X149206Y195261D01*
X149277Y195312D01*
X149350Y195370D01*
X149502Y195512D01*
X150209Y194805D01*
D02*
G37*
G36*
X127700Y195423D02*
X127848Y195298D01*
X127919Y195247D01*
X127987Y195204D01*
X128053Y195169D01*
X128117Y195142D01*
X128179Y195123D01*
X128238Y195111D01*
X128296Y195108D01*
X127306Y194118D01*
X127302Y194175D01*
X127291Y194235D01*
X127272Y194296D01*
X127244Y194360D01*
X127209Y194426D01*
X127166Y194495D01*
X127116Y194565D01*
X127057Y194638D01*
X126915Y194791D01*
X127622Y195498D01*
X127700Y195423D01*
D02*
G37*
G36*
X58200Y193923D02*
X58348Y193798D01*
X58419Y193747D01*
X58487Y193704D01*
X58553Y193669D01*
X58617Y193642D01*
X58679Y193623D01*
X58738Y193611D01*
X58796Y193608D01*
X57806Y192618D01*
X57802Y192675D01*
X57791Y192735D01*
X57772Y192796D01*
X57744Y192860D01*
X57709Y192926D01*
X57666Y192995D01*
X57616Y193065D01*
X57557Y193138D01*
X57415Y193291D01*
X58122Y193998D01*
X58200Y193923D01*
D02*
G37*
G36*
X202309Y192041D02*
X202320Y191981D01*
X202340Y191920D01*
X202367Y191856D01*
X202402Y191790D01*
X202445Y191721D01*
X202496Y191651D01*
X202554Y191578D01*
X202696Y191425D01*
X201989Y190718D01*
X201911Y190793D01*
X201763Y190918D01*
X201692Y190969D01*
X201624Y191012D01*
X201558Y191047D01*
X201494Y191074D01*
X201432Y191093D01*
X201373Y191105D01*
X201316Y191108D01*
X202306Y192098D01*
X202309Y192041D01*
D02*
G37*
G36*
X246290Y191029D02*
X246256Y190979D01*
X246226Y190922D01*
X246200Y190857D01*
X246178Y190786D01*
X246160Y190707D01*
X246146Y190621D01*
X246136Y190528D01*
X246128Y190320D01*
X245128D01*
X245126Y190427D01*
X245110Y190621D01*
X245096Y190707D01*
X245078Y190786D01*
X245056Y190857D01*
X245030Y190922D01*
X245000Y190979D01*
X244966Y191029D01*
X244928Y191072D01*
X246328D01*
X246290Y191029D01*
D02*
G37*
G36*
X312800Y195621D02*
X313499Y194921D01*
X314356Y194427D01*
X315311Y194171D01*
X316300D01*
X317255Y194427D01*
X318112Y194921D01*
X318811Y195621D01*
X319042Y196021D01*
X319710Y196182D01*
X319776Y196139D01*
Y189872D01*
X319710Y189830D01*
X319042Y189990D01*
X318811Y190391D01*
X318112Y191090D01*
X317255Y191584D01*
X316306Y191839D01*
Y188084D01*
Y184330D01*
X317255Y184584D01*
X318112Y185079D01*
X318811Y185778D01*
X319042Y186179D01*
X319710Y186339D01*
X319776Y186297D01*
Y182409D01*
X319562Y181998D01*
X312050D01*
Y176649D01*
X296038Y160637D01*
X262774D01*
X262703Y161108D01*
X263439Y161413D01*
X264001Y161975D01*
X264306Y162710D01*
Y163506D01*
X264001Y164241D01*
X263439Y164804D01*
X262703Y165108D01*
X262469D01*
X262463Y165113D01*
X247157Y180420D01*
Y190487D01*
X247323Y190653D01*
X247628Y191388D01*
Y192184D01*
X247323Y192919D01*
X246761Y193482D01*
X246025Y193786D01*
X245230D01*
X244495Y193482D01*
X243932Y192919D01*
X243628Y192184D01*
Y191388D01*
X243932Y190653D01*
X244098Y190488D01*
X244098Y190480D01*
Y179786D01*
X244215Y179201D01*
X244546Y178705D01*
X260306Y162945D01*
Y162710D01*
X260610Y161975D01*
X261173Y161413D01*
X261908Y161108D01*
X261837Y160637D01*
X249439D01*
X246887Y163189D01*
X227806Y182271D01*
Y182506D01*
X227501Y183241D01*
X226939Y183803D01*
X226203Y184108D01*
X225408D01*
X224673Y183803D01*
X224110Y183241D01*
X223806Y182506D01*
Y181710D01*
X224110Y180975D01*
X224673Y180412D01*
X225408Y180108D01*
X225642D01*
X225648Y180103D01*
X244116Y161635D01*
X244078Y161371D01*
X243549Y161193D01*
X243439Y161303D01*
X242703Y161608D01*
X242469D01*
X242463Y161613D01*
X208387Y195689D01*
X208076Y195897D01*
X208227Y196397D01*
X312352D01*
X312800Y195621D01*
D02*
G37*
G36*
X189468Y188851D02*
X189434Y188801D01*
X189404Y188744D01*
X189378Y188680D01*
X189356Y188608D01*
X189338Y188529D01*
X189324Y188443D01*
X189314Y188350D01*
X189306Y188142D01*
X188306D01*
X188304Y188250D01*
X188288Y188443D01*
X188274Y188529D01*
X188256Y188608D01*
X188234Y188680D01*
X188208Y188744D01*
X188178Y188801D01*
X188144Y188851D01*
X188106Y188894D01*
X189506D01*
X189468Y188851D01*
D02*
G37*
G36*
X149778Y188849D02*
X149780Y188789D01*
X149791Y188727D01*
X149811Y188662D01*
X149840Y188596D01*
X149878Y188527D01*
X149925Y188456D01*
X149981Y188382D01*
X150046Y188307D01*
X150121Y188229D01*
X149252Y187684D01*
X149174Y187760D01*
X148960Y187946D01*
X148896Y187993D01*
X148777Y188067D01*
X148723Y188093D01*
X148672Y188113D01*
X148624Y188125D01*
X149785Y188907D01*
X149778Y188849D01*
D02*
G37*
G36*
X128981Y185460D02*
X128947Y185410D01*
X128917Y185352D01*
X128891Y185288D01*
X128869Y185216D01*
X128850Y185138D01*
X128837Y185052D01*
X128826Y184959D01*
X128819Y184750D01*
X127819D01*
X127817Y184858D01*
X127801Y185052D01*
X127787Y185138D01*
X127769Y185216D01*
X127747Y185288D01*
X127721Y185352D01*
X127691Y185410D01*
X127656Y185460D01*
X127619Y185502D01*
X129019D01*
X128981Y185460D01*
D02*
G37*
G36*
X192809Y184041D02*
X192820Y183982D01*
X192840Y183920D01*
X192867Y183856D01*
X192902Y183790D01*
X192945Y183721D01*
X192996Y183651D01*
X193054Y183578D01*
X193196Y183425D01*
X192489Y182718D01*
X192411Y182792D01*
X192263Y182918D01*
X192192Y182969D01*
X192124Y183012D01*
X192058Y183047D01*
X191994Y183074D01*
X191932Y183093D01*
X191873Y183105D01*
X191816Y183108D01*
X192806Y184098D01*
X192809Y184041D01*
D02*
G37*
G36*
X199468Y183351D02*
X199434Y183301D01*
X199404Y183244D01*
X199378Y183179D01*
X199356Y183108D01*
X199338Y183029D01*
X199324Y182943D01*
X199314Y182850D01*
X199306Y182642D01*
X198306D01*
X198304Y182749D01*
X198288Y182943D01*
X198274Y183029D01*
X198256Y183108D01*
X198234Y183179D01*
X198208Y183244D01*
X198178Y183301D01*
X198144Y183351D01*
X198106Y183394D01*
X199506D01*
X199468Y183351D01*
D02*
G37*
G36*
X92468D02*
X92434Y183301D01*
X92404Y183244D01*
X92378Y183179D01*
X92356Y183108D01*
X92338Y183029D01*
X92324Y182943D01*
X92314Y182850D01*
X92306Y182642D01*
X91306D01*
X91304Y182749D01*
X91288Y182943D01*
X91274Y183029D01*
X91256Y183108D01*
X91234Y183179D01*
X91208Y183244D01*
X91178Y183301D01*
X91144Y183351D01*
X91106Y183394D01*
X92506D01*
X92468Y183351D01*
D02*
G37*
G36*
X150808Y181966D02*
X150824Y181773D01*
X150838Y181687D01*
X150856Y181608D01*
X150878Y181536D01*
X150904Y181472D01*
X150934Y181415D01*
X150968Y181365D01*
X151006Y181322D01*
X149606D01*
X149644Y181365D01*
X149678Y181415D01*
X149708Y181472D01*
X149734Y181536D01*
X149756Y181608D01*
X149774Y181687D01*
X149788Y181773D01*
X149798Y181866D01*
X149806Y182074D01*
X150806D01*
X150808Y181966D01*
D02*
G37*
G36*
X199107Y186608D02*
X198900Y186108D01*
X198408D01*
X197673Y185803D01*
X197110Y185241D01*
X196806Y184506D01*
Y183710D01*
X197110Y182975D01*
X197275Y182810D01*
X197276Y182802D01*
Y181454D01*
X196814Y181262D01*
X193806Y184271D01*
Y184506D01*
X193501Y185241D01*
X192938Y185803D01*
X192203Y186108D01*
X191408D01*
X190835Y185871D01*
X190413Y186080D01*
X190335Y186164D01*
Y188309D01*
X190501Y188475D01*
X190806Y189210D01*
Y190006D01*
X190854Y190079D01*
X195636D01*
X199107Y186608D01*
D02*
G37*
G36*
X226809Y182041D02*
X226820Y181982D01*
X226839Y181920D01*
X226867Y181856D01*
X226902Y181790D01*
X226945Y181721D01*
X226996Y181651D01*
X227054Y181578D01*
X227196Y181425D01*
X226489Y180718D01*
X226411Y180792D01*
X226263Y180918D01*
X226192Y180969D01*
X226124Y181012D01*
X226058Y181047D01*
X225994Y181074D01*
X225932Y181093D01*
X225873Y181105D01*
X225816Y181108D01*
X226805Y182098D01*
X226809Y182041D01*
D02*
G37*
G36*
X107468Y179851D02*
X107434Y179801D01*
X107404Y179744D01*
X107378Y179680D01*
X107356Y179608D01*
X107338Y179529D01*
X107324Y179443D01*
X107314Y179350D01*
X107306Y179142D01*
X106306D01*
X106304Y179250D01*
X106288Y179443D01*
X106274Y179529D01*
X106256Y179608D01*
X106234Y179680D01*
X106208Y179744D01*
X106178Y179801D01*
X106144Y179851D01*
X106106Y179894D01*
X107506D01*
X107468Y179851D01*
D02*
G37*
G36*
X186806Y190006D02*
Y189210D01*
X187110Y188475D01*
X187276Y188310D01*
X187276Y188302D01*
Y186241D01*
X164672Y163637D01*
X160105D01*
X159939Y163804D01*
X159203Y164108D01*
X158969D01*
X158963Y164113D01*
X133460Y189617D01*
X133651Y190079D01*
X146593D01*
X146871Y189663D01*
X146806Y189506D01*
Y188710D01*
X147110Y187975D01*
X147673Y187413D01*
X148335Y187138D01*
X148387Y187093D01*
X148776Y186704D01*
Y181907D01*
X148610Y181741D01*
X148306Y181006D01*
Y180210D01*
X148610Y179475D01*
X149173Y178912D01*
X149908Y178608D01*
X150703D01*
X151438Y178912D01*
X152001Y179475D01*
X152306Y180210D01*
Y181006D01*
X152001Y181741D01*
X151836Y181906D01*
X151835Y181914D01*
Y187337D01*
X151718Y187923D01*
X151387Y188419D01*
X150806Y189000D01*
Y189506D01*
X150741Y189663D01*
X151018Y190079D01*
X186757D01*
X186806Y190006D01*
D02*
G37*
G36*
X220117Y173052D02*
X220136Y172861D01*
X220153Y172777D01*
X220175Y172702D01*
X220201Y172634D01*
X220233Y172574D01*
X220269Y172522D01*
X220310Y172479D01*
X220356Y172443D01*
X218982Y172175D01*
X219007Y172217D01*
X219029Y172267D01*
X219049Y172324D01*
X219067Y172388D01*
X219081Y172460D01*
X219102Y172626D01*
X219109Y172720D01*
X219114Y172931D01*
X220114Y173159D01*
X220117Y173052D01*
D02*
G37*
G36*
X135289Y171655D02*
X135437Y171530D01*
X135508Y171479D01*
X135576Y171436D01*
X135643Y171401D01*
X135707Y171374D01*
X135768Y171354D01*
X135828Y171343D01*
X135885Y171340D01*
X134895Y170350D01*
X134891Y170407D01*
X134880Y170466D01*
X134861Y170528D01*
X134834Y170592D01*
X134799Y170658D01*
X134756Y170727D01*
X134705Y170797D01*
X134646Y170870D01*
X134505Y171023D01*
X135212Y171730D01*
X135289Y171655D01*
D02*
G37*
G36*
X204776Y169474D02*
Y168306D01*
X204360Y168028D01*
X204168Y168108D01*
X203372D01*
X202637Y167804D01*
X202472Y167638D01*
X202464Y167637D01*
X201939D01*
X198335Y171241D01*
Y175262D01*
X198797Y175454D01*
X204776Y169474D01*
D02*
G37*
G36*
X203056Y165408D02*
X203013Y165446D01*
X202963Y165480D01*
X202906Y165510D01*
X202841Y165536D01*
X202770Y165558D01*
X202691Y165576D01*
X202605Y165590D01*
X202512Y165600D01*
X202304Y165608D01*
Y166608D01*
X202412Y166610D01*
X202605Y166626D01*
X202691Y166640D01*
X202770Y166658D01*
X202841Y166680D01*
X202906Y166706D01*
X202963Y166736D01*
X203013Y166770D01*
X203056Y166808D01*
Y165408D01*
D02*
G37*
G36*
X226709Y165337D02*
X226665Y165367D01*
X226614Y165393D01*
X226556Y165417D01*
X226491Y165437D01*
X226419Y165454D01*
X226339Y165468D01*
X226159Y165487D01*
X226058Y165491D01*
X225949Y165493D01*
X225793Y166493D01*
X225901Y166495D01*
X226092Y166514D01*
X226177Y166530D01*
X226254Y166551D01*
X226323Y166576D01*
X226384Y166606D01*
X226438Y166641D01*
X226484Y166681D01*
X226522Y166725D01*
X226709Y165337D01*
D02*
G37*
G36*
X239113Y160637D02*
X238906Y160137D01*
X205605D01*
X205438Y160303D01*
X204703Y160608D01*
X204622D01*
X204430Y161070D01*
X207387Y164027D01*
X207718Y164523D01*
X207835Y165108D01*
Y170108D01*
X207718Y170693D01*
X207387Y171189D01*
X200335Y178242D01*
Y182809D01*
X200501Y182975D01*
X200806Y183710D01*
Y184203D01*
X201306Y184410D01*
X220804Y164911D01*
X221300Y164580D01*
X221885Y164463D01*
X226140D01*
X226159Y164462D01*
X226190Y164430D01*
X226925Y164126D01*
X227721D01*
X228456Y164430D01*
X229019Y164993D01*
X229323Y165728D01*
Y166524D01*
X229019Y167259D01*
X228456Y167821D01*
X227721Y168126D01*
X226925D01*
X226190Y167821D01*
X225891Y167522D01*
X222519D01*
X220684Y169357D01*
X220781Y169847D01*
X220938Y169913D01*
X221501Y170475D01*
X221806Y171210D01*
Y172006D01*
X221501Y172741D01*
X221144Y173098D01*
Y173799D01*
X221027Y174385D01*
X220696Y174881D01*
X203306Y192271D01*
Y192506D01*
X203240Y192663D01*
X203518Y193079D01*
X206672D01*
X239113Y160637D01*
D02*
G37*
G36*
X261700Y164424D02*
X261848Y164298D01*
X261919Y164247D01*
X261987Y164204D01*
X262053Y164169D01*
X262117Y164142D01*
X262179Y164123D01*
X262238Y164111D01*
X262296Y164108D01*
X261306Y163118D01*
X261302Y163175D01*
X261291Y163234D01*
X261272Y163296D01*
X261245Y163360D01*
X261210Y163426D01*
X261167Y163495D01*
X261116Y163565D01*
X261057Y163638D01*
X260915Y163791D01*
X261623Y164498D01*
X261700Y164424D01*
D02*
G37*
G36*
X158200Y163424D02*
X158348Y163298D01*
X158419Y163247D01*
X158487Y163204D01*
X158553Y163169D01*
X158617Y163142D01*
X158679Y163123D01*
X158738Y163111D01*
X158796Y163108D01*
X157806Y162118D01*
X157802Y162175D01*
X157791Y162234D01*
X157772Y162296D01*
X157745Y162360D01*
X157709Y162426D01*
X157667Y162495D01*
X157616Y162565D01*
X157557Y162638D01*
X157415Y162791D01*
X158123Y163498D01*
X158200Y163424D01*
D02*
G37*
G36*
X159563Y162770D02*
X159613Y162736D01*
X159670Y162706D01*
X159734Y162680D01*
X159806Y162658D01*
X159885Y162640D01*
X159970Y162626D01*
X160064Y162616D01*
X160272Y162608D01*
Y161608D01*
X160164Y161606D01*
X159970Y161590D01*
X159885Y161576D01*
X159806Y161558D01*
X159734Y161536D01*
X159670Y161510D01*
X159613Y161480D01*
X159563Y161446D01*
X159520Y161408D01*
Y162808D01*
X159563Y162770D01*
D02*
G37*
G36*
X241700Y160924D02*
X241848Y160798D01*
X241919Y160747D01*
X241987Y160704D01*
X242054Y160669D01*
X242117Y160642D01*
X242179Y160623D01*
X242238Y160611D01*
X242296Y160608D01*
X241306Y159618D01*
X241302Y159675D01*
X241291Y159734D01*
X241272Y159796D01*
X241245Y159860D01*
X241210Y159926D01*
X241166Y159995D01*
X241116Y160065D01*
X241057Y160138D01*
X240915Y160291D01*
X241622Y160998D01*
X241700Y160924D01*
D02*
G37*
G36*
X136091Y158408D02*
X136049Y158446D01*
X135999Y158480D01*
X135941Y158510D01*
X135877Y158536D01*
X135805Y158558D01*
X135727Y158576D01*
X135641Y158590D01*
X135547Y158600D01*
X135339Y158608D01*
Y159608D01*
X135447Y159610D01*
X135641Y159626D01*
X135727Y159640D01*
X135805Y159658D01*
X135877Y159680D01*
X135941Y159706D01*
X135999Y159736D01*
X136049Y159770D01*
X136091Y159808D01*
Y158408D01*
D02*
G37*
G36*
X193954Y158165D02*
X193911Y158203D01*
X193861Y158237D01*
X193804Y158267D01*
X193739Y158293D01*
X193667Y158315D01*
X193589Y158333D01*
X193503Y158347D01*
X193410Y158357D01*
X193202Y158365D01*
Y159365D01*
X193309Y159367D01*
X193503Y159383D01*
X193589Y159397D01*
X193667Y159415D01*
X193739Y159437D01*
X193804Y159463D01*
X193861Y159493D01*
X193911Y159527D01*
X193954Y159565D01*
Y158165D01*
D02*
G37*
G36*
X205063Y159270D02*
X205113Y159236D01*
X205170Y159206D01*
X205234Y159180D01*
X205306Y159158D01*
X205384Y159140D01*
X205470Y159126D01*
X205564Y159116D01*
X205772Y159108D01*
Y158108D01*
X205664Y158106D01*
X205470Y158090D01*
X205384Y158076D01*
X205306Y158058D01*
X205234Y158036D01*
X205170Y158010D01*
X205113Y157980D01*
X205063Y157946D01*
X205020Y157908D01*
Y159308D01*
X205063Y159270D01*
D02*
G37*
G36*
X317058Y174024D02*
X300895Y157861D01*
X298295D01*
X298088Y158361D01*
X314213Y174486D01*
X316867D01*
X317058Y174024D01*
D02*
G37*
G36*
X162196Y158291D02*
X162121Y158214D01*
X161996Y158065D01*
X161945Y157995D01*
X161902Y157926D01*
X161867Y157860D01*
X161839Y157796D01*
X161820Y157735D01*
X161809Y157675D01*
X161805Y157618D01*
X160816Y158608D01*
X160873Y158611D01*
X160932Y158623D01*
X160994Y158642D01*
X161058Y158669D01*
X161124Y158704D01*
X161192Y158747D01*
X161263Y158798D01*
X161336Y158857D01*
X161489Y158998D01*
X162196Y158291D01*
D02*
G37*
G36*
X242700Y155423D02*
X242848Y155298D01*
X242919Y155247D01*
X242987Y155204D01*
X243054Y155169D01*
X243117Y155142D01*
X243179Y155123D01*
X243238Y155111D01*
X243296Y155108D01*
X242306Y154118D01*
X242302Y154175D01*
X242291Y154235D01*
X242272Y154296D01*
X242245Y154360D01*
X242210Y154426D01*
X242166Y154495D01*
X242116Y154565D01*
X242057Y154638D01*
X241915Y154791D01*
X242622Y155498D01*
X242700Y155423D01*
D02*
G37*
G36*
X267309Y151041D02*
X267320Y150981D01*
X267339Y150920D01*
X267367Y150856D01*
X267402Y150790D01*
X267445Y150721D01*
X267496Y150651D01*
X267554Y150578D01*
X267696Y150425D01*
X266989Y149718D01*
X266911Y149793D01*
X266763Y149918D01*
X266692Y149969D01*
X266624Y150012D01*
X266558Y150047D01*
X266494Y150074D01*
X266432Y150093D01*
X266373Y150105D01*
X266316Y150108D01*
X267305Y151098D01*
X267309Y151041D01*
D02*
G37*
G36*
X303337Y148616D02*
X303303Y148566D01*
X303273Y148509D01*
X303247Y148444D01*
X303225Y148373D01*
X303207Y148294D01*
X303193Y148208D01*
X303183Y148115D01*
X303175Y147907D01*
X302175D01*
X302173Y148014D01*
X302157Y148208D01*
X302143Y148294D01*
X302125Y148373D01*
X302103Y148444D01*
X302077Y148509D01*
X302047Y148566D01*
X302013Y148616D01*
X301975Y148659D01*
X303375D01*
X303337Y148616D01*
D02*
G37*
G36*
X299091Y144408D02*
X299049Y144446D01*
X298999Y144480D01*
X298941Y144510D01*
X298877Y144536D01*
X298805Y144558D01*
X298727Y144576D01*
X298641Y144590D01*
X298548Y144600D01*
X298340Y144608D01*
Y145608D01*
X298447Y145610D01*
X298641Y145626D01*
X298727Y145640D01*
X298805Y145658D01*
X298877Y145680D01*
X298941Y145706D01*
X298999Y145736D01*
X299049Y145770D01*
X299091Y145808D01*
Y144408D01*
D02*
G37*
G36*
X220296Y143608D02*
X220238Y143605D01*
X220179Y143593D01*
X220117Y143574D01*
X220054Y143547D01*
X219987Y143512D01*
X219919Y143469D01*
X219848Y143418D01*
X219775Y143359D01*
X219622Y143218D01*
X218915Y143925D01*
X218990Y144002D01*
X219116Y144151D01*
X219166Y144221D01*
X219210Y144290D01*
X219245Y144356D01*
X219272Y144420D01*
X219291Y144482D01*
X219302Y144541D01*
X219306Y144598D01*
X220296Y143608D01*
D02*
G37*
G36*
X311683Y143102D02*
X311694Y143043D01*
X311714Y142981D01*
X311741Y142917D01*
X311776Y142851D01*
X311819Y142783D01*
X311870Y142712D01*
X311928Y142639D01*
X312070Y142486D01*
X311363Y141779D01*
X311285Y141854D01*
X311137Y141980D01*
X311066Y142030D01*
X310998Y142073D01*
X310932Y142108D01*
X310868Y142136D01*
X310806Y142155D01*
X310747Y142166D01*
X310690Y142169D01*
X311680Y143159D01*
X311683Y143102D01*
D02*
G37*
G36*
X103196Y141767D02*
X103121Y141689D01*
X102996Y141541D01*
X102945Y141470D01*
X102902Y141402D01*
X102867Y141336D01*
X102840Y141272D01*
X102820Y141210D01*
X102809Y141151D01*
X102805Y141094D01*
X101816Y142084D01*
X101873Y142087D01*
X101932Y142098D01*
X101994Y142118D01*
X102058Y142145D01*
X102124Y142180D01*
X102192Y142223D01*
X102263Y142274D01*
X102336Y142332D01*
X102489Y142474D01*
X103196Y141767D01*
D02*
G37*
G36*
X88630Y140346D02*
X88596Y140369D01*
X88558Y140381D01*
X88514Y140382D01*
X88465Y140372D01*
X88411Y140351D01*
X88352Y140319D01*
X88288Y140276D01*
X88219Y140222D01*
X88145Y140157D01*
X88065Y140081D01*
X87529Y140959D01*
X88480Y141647D01*
X88630Y140346D01*
D02*
G37*
G36*
X248220Y157695D02*
X248806Y157579D01*
X266906D01*
X267113Y157079D01*
X265148Y155113D01*
X264685Y155021D01*
X264189Y154689D01*
X262724Y153225D01*
X262393Y152729D01*
X262300Y152266D01*
X247835Y137800D01*
X247398Y137937D01*
X247335Y137985D01*
Y157778D01*
X247835Y157952D01*
X248220Y157695D01*
D02*
G37*
G36*
X235296Y138108D02*
X235238Y138105D01*
X235179Y138093D01*
X235117Y138074D01*
X235053Y138047D01*
X234987Y138012D01*
X234919Y137969D01*
X234848Y137918D01*
X234775Y137859D01*
X234623Y137718D01*
X233915Y138425D01*
X233990Y138502D01*
X234116Y138651D01*
X234167Y138721D01*
X234209Y138790D01*
X234244Y138856D01*
X234272Y138920D01*
X234291Y138981D01*
X234302Y139041D01*
X234306Y139098D01*
X235296Y138108D01*
D02*
G37*
G36*
X153200Y138424D02*
X153348Y138298D01*
X153419Y138247D01*
X153487Y138204D01*
X153553Y138169D01*
X153617Y138142D01*
X153679Y138123D01*
X153738Y138111D01*
X153796Y138108D01*
X152806Y137118D01*
X152802Y137175D01*
X152791Y137234D01*
X152772Y137296D01*
X152744Y137360D01*
X152709Y137426D01*
X152666Y137495D01*
X152616Y137565D01*
X152557Y137638D01*
X152415Y137791D01*
X153122Y138498D01*
X153200Y138424D01*
D02*
G37*
G36*
X147200Y137924D02*
X147348Y137798D01*
X147419Y137747D01*
X147487Y137704D01*
X147553Y137669D01*
X147617Y137642D01*
X147679Y137623D01*
X147738Y137611D01*
X147796Y137608D01*
X146806Y136618D01*
X146802Y136675D01*
X146791Y136734D01*
X146772Y136796D01*
X146745Y136860D01*
X146709Y136926D01*
X146667Y136995D01*
X146616Y137065D01*
X146557Y137138D01*
X146415Y137291D01*
X147123Y137998D01*
X147200Y137924D01*
D02*
G37*
G36*
X142468Y136351D02*
X142434Y136301D01*
X142404Y136244D01*
X142378Y136179D01*
X142356Y136108D01*
X142338Y136029D01*
X142324Y135943D01*
X142314Y135850D01*
X142306Y135642D01*
X141306D01*
X141304Y135749D01*
X141288Y135943D01*
X141274Y136029D01*
X141256Y136108D01*
X141234Y136179D01*
X141208Y136244D01*
X141178Y136301D01*
X141144Y136351D01*
X141106Y136394D01*
X142506D01*
X142468Y136351D01*
D02*
G37*
G36*
X249308Y136116D02*
X249324Y135923D01*
X249338Y135837D01*
X249356Y135758D01*
X249378Y135686D01*
X249404Y135622D01*
X249434Y135565D01*
X249468Y135515D01*
X249506Y135472D01*
X248106D01*
X248144Y135515D01*
X248178Y135565D01*
X248208Y135622D01*
X248234Y135686D01*
X248256Y135758D01*
X248274Y135837D01*
X248288Y135923D01*
X248298Y136016D01*
X248306Y136224D01*
X249306D01*
X249308Y136116D01*
D02*
G37*
G36*
X238479Y135249D02*
X238422Y135245D01*
X238362Y135234D01*
X238300Y135215D01*
X238237Y135187D01*
X238170Y135152D01*
X238102Y135109D01*
X238031Y135058D01*
X237958Y135000D01*
X237806Y134858D01*
X237099Y135565D01*
X237173Y135643D01*
X237299Y135791D01*
X237350Y135862D01*
X237393Y135930D01*
X237428Y135996D01*
X237455Y136060D01*
X237474Y136122D01*
X237485Y136181D01*
X237489Y136239D01*
X238479Y135249D01*
D02*
G37*
G36*
X89988Y131544D02*
X89931Y131540D01*
X89872Y131529D01*
X89810Y131510D01*
X89746Y131483D01*
X89680Y131448D01*
X89612Y131405D01*
X89541Y131354D01*
X89468Y131295D01*
X89315Y131154D01*
X88608Y131861D01*
X88683Y131938D01*
X88808Y132086D01*
X88859Y132157D01*
X88902Y132225D01*
X88937Y132292D01*
X88964Y132355D01*
X88984Y132417D01*
X88995Y132477D01*
X88998Y132534D01*
X89988Y131544D01*
D02*
G37*
G36*
X246308Y128966D02*
X246324Y128773D01*
X246338Y128687D01*
X246356Y128608D01*
X246378Y128536D01*
X246404Y128472D01*
X246434Y128415D01*
X246468Y128365D01*
X246506Y128322D01*
X245106D01*
X245144Y128365D01*
X245178Y128415D01*
X245208Y128472D01*
X245234Y128536D01*
X245256Y128608D01*
X245274Y128687D01*
X245288Y128773D01*
X245298Y128866D01*
X245306Y129074D01*
X246306D01*
X246308Y128966D01*
D02*
G37*
G36*
X235456Y130346D02*
X235610Y129975D01*
X236173Y129412D01*
X236908Y129108D01*
X237170D01*
X237224Y129027D01*
X239383Y126868D01*
X239100Y126444D01*
X238703Y126608D01*
X237908D01*
X237173Y126304D01*
X236610Y125741D01*
X236306Y125006D01*
Y124210D01*
X236610Y123475D01*
X237173Y122913D01*
X237908Y122608D01*
X238142D01*
X238148Y122603D01*
X276740Y84011D01*
X277236Y83679D01*
X277821Y83563D01*
X314714D01*
X315162Y82786D01*
X315862Y82087D01*
X316718Y81592D01*
X317673Y81336D01*
X318662D01*
X319618Y81592D01*
X320474Y82087D01*
X321173Y82786D01*
X321276Y82964D01*
X321776Y82830D01*
Y77512D01*
X321276Y77378D01*
X321173Y77556D01*
X320474Y78255D01*
X319618Y78750D01*
X318662Y79006D01*
X317673D01*
X316718Y78750D01*
X315862Y78255D01*
X315162Y77556D01*
X314668Y76700D01*
X314412Y75744D01*
Y74755D01*
X314668Y73800D01*
X315162Y72944D01*
X315862Y72244D01*
X316718Y71750D01*
X317584Y71518D01*
X317821Y71047D01*
X311904Y65130D01*
X279515D01*
X279238Y65546D01*
X279306Y65710D01*
Y66506D01*
X279001Y67241D01*
X278836Y67406D01*
X278835Y67414D01*
Y79608D01*
X278718Y80193D01*
X278387Y80689D01*
X264306Y94771D01*
Y95006D01*
X264001Y95741D01*
X263439Y96303D01*
X262703Y96608D01*
X261908D01*
X261173Y96303D01*
X260610Y95741D01*
X260306Y95006D01*
Y94210D01*
X260610Y93475D01*
X261173Y92913D01*
X261908Y92608D01*
X262142D01*
X262148Y92603D01*
X275776Y78974D01*
Y67407D01*
X275610Y67241D01*
X275306Y66506D01*
Y65710D01*
X275374Y65546D01*
X275096Y65130D01*
X252757D01*
X252703Y65608D01*
X253438Y65912D01*
X254001Y66475D01*
X254306Y67210D01*
Y68006D01*
X254001Y68741D01*
X253836Y68906D01*
X253835Y68914D01*
Y76608D01*
X253718Y77193D01*
X253387Y77689D01*
X240362Y90714D01*
X240264Y91206D01*
X239933Y91702D01*
X238015Y93620D01*
Y97432D01*
X238218Y97736D01*
X238335Y98321D01*
Y103309D01*
X238501Y103475D01*
X238806Y104210D01*
Y105006D01*
X238501Y105741D01*
X237938Y106304D01*
X237203Y106608D01*
X236408D01*
X235673Y106304D01*
X235110Y105741D01*
X235028Y105543D01*
X234487D01*
X234433Y105673D01*
X233870Y106236D01*
X233135Y106540D01*
X232340D01*
X231605Y106236D01*
X231042Y105673D01*
X230737Y104938D01*
Y104142D01*
X231042Y103407D01*
X231207Y103242D01*
X231208Y103234D01*
Y93906D01*
X231236Y93768D01*
X230918Y93382D01*
X230768D01*
X229935Y93159D01*
X229189Y92728D01*
X228579Y92118D01*
X228148Y91372D01*
X227925Y90539D01*
Y89677D01*
X228148Y88844D01*
X228579Y88098D01*
X229189Y87489D01*
X229935Y87058D01*
X230768Y86834D01*
X231630D01*
X232462Y87058D01*
X233209Y87489D01*
X233818Y88098D01*
X234249Y88844D01*
X234393Y89381D01*
X234951Y89530D01*
X235322Y89159D01*
Y71562D01*
X235438Y70977D01*
X235770Y70481D01*
X238495Y67756D01*
Y67072D01*
X238800Y66337D01*
X239362Y65775D01*
X239710Y65630D01*
X239611Y65130D01*
X233946D01*
X224968Y74108D01*
X225176Y74608D01*
X225703D01*
X226438Y74913D01*
X227001Y75475D01*
X227306Y76210D01*
Y76744D01*
X227806Y76951D01*
X228710Y76046D01*
Y73897D01*
X228544Y73731D01*
X228240Y72996D01*
Y72200D01*
X228544Y71465D01*
X229107Y70902D01*
X229842Y70598D01*
X230638D01*
X231373Y70902D01*
X231935Y71465D01*
X232240Y72200D01*
Y72996D01*
X231935Y73731D01*
X231770Y73896D01*
X231769Y73904D01*
Y76680D01*
X231653Y77265D01*
X231321Y77761D01*
X227335Y81748D01*
Y122932D01*
X234866Y130464D01*
X235456Y130346D01*
D02*
G37*
G36*
X239309Y124541D02*
X239320Y124481D01*
X239339Y124420D01*
X239367Y124356D01*
X239402Y124290D01*
X239445Y124221D01*
X239496Y124151D01*
X239554Y124078D01*
X239696Y123925D01*
X238989Y123218D01*
X238911Y123293D01*
X238763Y123418D01*
X238692Y123469D01*
X238624Y123512D01*
X238558Y123547D01*
X238494Y123574D01*
X238432Y123593D01*
X238373Y123605D01*
X238316Y123608D01*
X239305Y124598D01*
X239309Y124541D01*
D02*
G37*
G36*
X177696Y118791D02*
X177621Y118714D01*
X177496Y118565D01*
X177445Y118495D01*
X177402Y118426D01*
X177367Y118360D01*
X177339Y118296D01*
X177320Y118235D01*
X177309Y118175D01*
X177305Y118118D01*
X176316Y119108D01*
X176373Y119111D01*
X176432Y119123D01*
X176494Y119142D01*
X176558Y119169D01*
X176624Y119204D01*
X176692Y119247D01*
X176763Y119298D01*
X176836Y119357D01*
X176989Y119498D01*
X177696Y118791D01*
D02*
G37*
G36*
X283196Y114791D02*
X283121Y114714D01*
X282996Y114565D01*
X282945Y114495D01*
X282902Y114426D01*
X282867Y114360D01*
X282839Y114296D01*
X282820Y114234D01*
X282809Y114175D01*
X282805Y114118D01*
X281816Y115108D01*
X281873Y115111D01*
X281932Y115123D01*
X281994Y115142D01*
X282058Y115169D01*
X282124Y115204D01*
X282192Y115247D01*
X282263Y115298D01*
X282336Y115357D01*
X282489Y115498D01*
X283196Y114791D01*
D02*
G37*
G36*
X237468Y103851D02*
X237434Y103801D01*
X237404Y103744D01*
X237378Y103680D01*
X237356Y103608D01*
X237338Y103529D01*
X237324Y103443D01*
X237314Y103350D01*
X237306Y103142D01*
X236306D01*
X236304Y103250D01*
X236288Y103443D01*
X236274Y103529D01*
X236256Y103608D01*
X236234Y103680D01*
X236208Y103744D01*
X236178Y103801D01*
X236144Y103851D01*
X236106Y103894D01*
X237506D01*
X237468Y103851D01*
D02*
G37*
G36*
X233400Y103783D02*
X233366Y103733D01*
X233335Y103676D01*
X233310Y103611D01*
X233288Y103540D01*
X233270Y103461D01*
X233256Y103375D01*
X233245Y103282D01*
X233238Y103074D01*
X232238D01*
X232236Y103182D01*
X232220Y103375D01*
X232206Y103461D01*
X232188Y103540D01*
X232166Y103611D01*
X232139Y103676D01*
X232109Y103733D01*
X232076Y103783D01*
X232037Y103826D01*
X233437D01*
X233400Y103783D01*
D02*
G37*
G36*
X263309Y94541D02*
X263320Y94481D01*
X263339Y94420D01*
X263367Y94356D01*
X263402Y94290D01*
X263445Y94221D01*
X263496Y94151D01*
X263554Y94078D01*
X263696Y93925D01*
X262989Y93218D01*
X262911Y93292D01*
X262763Y93418D01*
X262692Y93469D01*
X262624Y93512D01*
X262558Y93547D01*
X262494Y93574D01*
X262432Y93593D01*
X262373Y93605D01*
X262316Y93608D01*
X263305Y94598D01*
X263309Y94541D01*
D02*
G37*
G36*
X302949Y91445D02*
X302898Y91434D01*
X302845Y91417D01*
X302788Y91391D01*
X302729Y91359D01*
X302666Y91319D01*
X302601Y91273D01*
X302460Y91157D01*
X302385Y91089D01*
X302308Y91013D01*
X301473Y91593D01*
X301547Y91670D01*
X301669Y91819D01*
X301717Y91890D01*
X301756Y91959D01*
X301786Y92026D01*
X301808Y92091D01*
X301820Y92153D01*
X301824Y92214D01*
X301819Y92272D01*
X302949Y91445D01*
D02*
G37*
G36*
X299919Y88625D02*
X299845Y88547D01*
X299723Y88398D01*
X299675Y88327D01*
X299636Y88258D01*
X299605Y88191D01*
X299584Y88126D01*
X299571Y88064D01*
X299568Y88003D01*
X299573Y87945D01*
X298443Y88772D01*
X298493Y88783D01*
X298547Y88801D01*
X298603Y88826D01*
X298663Y88858D01*
X298726Y88898D01*
X298791Y88945D01*
X298932Y89060D01*
X299006Y89128D01*
X299084Y89204D01*
X299919Y88625D01*
D02*
G37*
G36*
X315162Y92629D02*
X315862Y91929D01*
X316718Y91435D01*
X317673Y91179D01*
X318662D01*
X319618Y91435D01*
X320474Y91929D01*
X321173Y92629D01*
X321276Y92807D01*
X321776Y92673D01*
Y87354D01*
X321276Y87220D01*
X321173Y87398D01*
X320474Y88098D01*
X319618Y88592D01*
X318662Y88848D01*
X317673D01*
X316718Y88592D01*
X315862Y88098D01*
X315162Y87398D01*
X314714Y86622D01*
X300811D01*
X300477Y87122D01*
X300586Y87384D01*
Y87836D01*
X303176Y90426D01*
X303187Y90435D01*
X303203D01*
X303939Y90739D01*
X304501Y91302D01*
X304806Y92037D01*
Y92833D01*
X304741Y92990D01*
X305018Y93405D01*
X314714D01*
X315162Y92629D01*
D02*
G37*
G36*
X272397Y93853D02*
X272894Y93522D01*
X273479Y93405D01*
X300593D01*
X300871Y92990D01*
X300806Y92833D01*
Y92381D01*
X298215Y89791D01*
X298205Y89782D01*
X298188D01*
X297453Y89478D01*
X296890Y88915D01*
X296586Y88180D01*
Y87384D01*
X296695Y87122D01*
X296361Y86622D01*
X278455D01*
X240306Y124771D01*
Y125006D01*
X240141Y125402D01*
X240565Y125685D01*
X272397Y93853D01*
D02*
G37*
G36*
X224700Y77924D02*
X224848Y77798D01*
X224919Y77747D01*
X224987Y77704D01*
X225054Y77669D01*
X225117Y77642D01*
X225179Y77623D01*
X225238Y77611D01*
X225296Y77608D01*
X224306Y76618D01*
X224302Y76675D01*
X224291Y76735D01*
X224272Y76796D01*
X224244Y76860D01*
X224209Y76926D01*
X224166Y76995D01*
X224116Y77065D01*
X224057Y77138D01*
X223915Y77291D01*
X224623Y77998D01*
X224700Y77924D01*
D02*
G37*
G36*
X230742Y73956D02*
X230758Y73763D01*
X230772Y73677D01*
X230790Y73598D01*
X230812Y73526D01*
X230838Y73462D01*
X230868Y73405D01*
X230902Y73355D01*
X230940Y73312D01*
X229540D01*
X229578Y73355D01*
X229612Y73405D01*
X229642Y73462D01*
X229668Y73526D01*
X229690Y73598D01*
X229708Y73677D01*
X229722Y73763D01*
X229732Y73856D01*
X229740Y74064D01*
X230740D01*
X230742Y73956D01*
D02*
G37*
G36*
X252808Y68966D02*
X252824Y68773D01*
X252838Y68687D01*
X252856Y68608D01*
X252878Y68537D01*
X252904Y68472D01*
X252934Y68415D01*
X252968Y68365D01*
X253006Y68322D01*
X251606D01*
X251644Y68365D01*
X251678Y68415D01*
X251708Y68472D01*
X251734Y68537D01*
X251756Y68608D01*
X251774Y68687D01*
X251788Y68773D01*
X251798Y68866D01*
X251806Y69074D01*
X252806D01*
X252808Y68966D01*
D02*
G37*
G36*
X240320Y68802D02*
X240639Y68519D01*
X240688Y68484D01*
X240731Y68456D01*
X240770Y68435D01*
X240803Y68422D01*
X239550Y67796D01*
X239564Y67851D01*
X239567Y67909D01*
X239562Y67969D01*
X239546Y68031D01*
X239520Y68096D01*
X239485Y68164D01*
X239440Y68234D01*
X239385Y68307D01*
X239321Y68382D01*
X239246Y68460D01*
X240241Y68880D01*
X240320Y68802D01*
D02*
G37*
G36*
X277808Y67466D02*
X277824Y67273D01*
X277838Y67187D01*
X277856Y67108D01*
X277878Y67036D01*
X277904Y66972D01*
X277934Y66915D01*
X277968Y66865D01*
X278006Y66822D01*
X276606D01*
X276644Y66865D01*
X276678Y66915D01*
X276708Y66972D01*
X276734Y67036D01*
X276756Y67108D01*
X276774Y67187D01*
X276788Y67273D01*
X276798Y67366D01*
X276806Y67574D01*
X277806D01*
X277808Y67466D01*
D02*
G37*
G36*
X250776Y75975D02*
Y68907D01*
X250610Y68741D01*
X250306Y68006D01*
Y67210D01*
X250610Y66475D01*
X251173Y65912D01*
X251908Y65608D01*
X251854Y65130D01*
X241380D01*
X241280Y65630D01*
X241628Y65775D01*
X242191Y66337D01*
X242495Y67072D01*
Y67868D01*
X242191Y68603D01*
X241628Y69165D01*
X241291Y69305D01*
X241282Y69314D01*
X241273Y69320D01*
X241132Y69444D01*
X238381Y72196D01*
Y87717D01*
X238843Y87908D01*
X250776Y75975D01*
D02*
G37*
%LPC*%
G36*
X167928Y233667D02*
X160810D01*
Y226549D01*
X167928D01*
Y233667D01*
D02*
G37*
G36*
X92844Y227199D02*
X91767D01*
X90727Y226920D01*
X89794Y226381D01*
X89032Y225620D01*
X88494Y224687D01*
X88215Y223646D01*
Y222569D01*
X88494Y221529D01*
X89032Y220596D01*
X89794Y219835D01*
X90727Y219296D01*
X91767Y219018D01*
X92844D01*
X93884Y219296D01*
X94817Y219835D01*
X95579Y220596D01*
X96117Y221529D01*
X96396Y222569D01*
Y223646D01*
X96117Y224687D01*
X95579Y225620D01*
X94817Y226381D01*
X93884Y226920D01*
X92844Y227199D01*
D02*
G37*
G36*
X315306Y191839D02*
X314356Y191584D01*
X313499Y191090D01*
X312800Y190391D01*
X312306Y189534D01*
X312051Y188584D01*
X315306D01*
Y191839D01*
D02*
G37*
G36*
Y187584D02*
X312051D01*
X312306Y186635D01*
X312800Y185778D01*
X313499Y185079D01*
X314356Y184584D01*
X315306Y184330D01*
Y187584D01*
D02*
G37*
G36*
X253685Y93382D02*
X247138D01*
Y86834D01*
X253685D01*
Y93382D01*
D02*
G37*
G36*
X258203Y95108D02*
X257408D01*
X256673Y94804D01*
X256110Y94241D01*
X255806Y93506D01*
Y92710D01*
X256110Y91975D01*
X256673Y91413D01*
X257408Y91108D01*
X257642D01*
X257648Y91103D01*
X264270Y84481D01*
Y69995D01*
X264104Y69829D01*
X263799Y69094D01*
Y68298D01*
X264104Y67563D01*
X264667Y67001D01*
X265402Y66696D01*
X266197D01*
X266932Y67001D01*
X267495Y67563D01*
X267799Y68298D01*
Y69094D01*
X267495Y69829D01*
X267330Y69995D01*
X267329Y70002D01*
Y85114D01*
X267212Y85699D01*
X266881Y86196D01*
X259806Y93271D01*
Y93506D01*
X259501Y94241D01*
X258939Y94804D01*
X258203Y95108D01*
D02*
G37*
%LPD*%
G36*
X258809Y93041D02*
X258820Y92981D01*
X258840Y92920D01*
X258867Y92856D01*
X258902Y92790D01*
X258945Y92721D01*
X258996Y92651D01*
X259054Y92578D01*
X259196Y92425D01*
X258489Y91718D01*
X258411Y91793D01*
X258263Y91918D01*
X258192Y91969D01*
X258124Y92012D01*
X258058Y92047D01*
X257994Y92074D01*
X257932Y92093D01*
X257873Y92105D01*
X257816Y92108D01*
X258805Y93098D01*
X258809Y93041D01*
D02*
G37*
G36*
X266301Y70055D02*
X266318Y69861D01*
X266331Y69775D01*
X266349Y69696D01*
X266371Y69625D01*
X266397Y69560D01*
X266427Y69503D01*
X266461Y69453D01*
X266499Y69410D01*
X265099D01*
X265137Y69453D01*
X265172Y69503D01*
X265201Y69560D01*
X265227Y69625D01*
X265249Y69696D01*
X265267Y69775D01*
X265281Y69861D01*
X265291Y69954D01*
X265299Y70162D01*
X266299D01*
X266301Y70055D01*
D02*
G37*
G36*
X41700Y193423D02*
X41848Y193298D01*
X41919Y193247D01*
X41987Y193204D01*
X42053Y193169D01*
X42117Y193142D01*
X42179Y193123D01*
X42238Y193111D01*
X42296Y193108D01*
X41306Y192118D01*
X41302Y192175D01*
X41291Y192235D01*
X41272Y192296D01*
X41245Y192360D01*
X41209Y192426D01*
X41166Y192495D01*
X41116Y192565D01*
X41057Y192638D01*
X40915Y192791D01*
X41622Y193498D01*
X41700Y193423D01*
D02*
G37*
G36*
X132838Y151468D02*
X132796Y151506D01*
X132746Y151540D01*
X132688Y151570D01*
X132624Y151596D01*
X132552Y151618D01*
X132474Y151636D01*
X132388Y151650D01*
X132294Y151660D01*
X132087Y151668D01*
Y152668D01*
X132194Y152670D01*
X132388Y152686D01*
X132474Y152700D01*
X132552Y152718D01*
X132624Y152740D01*
X132688Y152766D01*
X132746Y152796D01*
X132796Y152830D01*
X132838Y152868D01*
Y151468D01*
D02*
G37*
G36*
X104196Y132791D02*
X104121Y132714D01*
X103996Y132565D01*
X103945Y132495D01*
X103902Y132426D01*
X103867Y132360D01*
X103840Y132296D01*
X103820Y132235D01*
X103809Y132175D01*
X103805Y132118D01*
X102816Y133108D01*
X102873Y133111D01*
X102932Y133123D01*
X102994Y133142D01*
X103058Y133169D01*
X103124Y133204D01*
X103192Y133247D01*
X103263Y133298D01*
X103336Y133357D01*
X103489Y133498D01*
X104196Y132791D01*
D02*
G37*
G36*
X281649Y126365D02*
X281615Y126315D01*
X281585Y126258D01*
X281559Y126193D01*
X281537Y126122D01*
X281519Y126043D01*
X281505Y125957D01*
X281495Y125864D01*
X281487Y125656D01*
X280487D01*
X280485Y125763D01*
X280469Y125957D01*
X280455Y126043D01*
X280437Y126122D01*
X280415Y126193D01*
X280389Y126258D01*
X280359Y126315D01*
X280325Y126365D01*
X280287Y126408D01*
X281687D01*
X281649Y126365D01*
D02*
G37*
G36*
X279696Y118791D02*
X279621Y118714D01*
X279496Y118565D01*
X279445Y118495D01*
X279402Y118426D01*
X279367Y118360D01*
X279340Y118296D01*
X279320Y118235D01*
X279309Y118175D01*
X279306Y118118D01*
X278316Y119108D01*
X278373Y119111D01*
X278432Y119123D01*
X278494Y119142D01*
X278558Y119169D01*
X278624Y119204D01*
X278692Y119247D01*
X278763Y119298D01*
X278836Y119357D01*
X278989Y119498D01*
X279696Y118791D01*
D02*
G37*
G36*
X269309Y143041D02*
X269320Y142982D01*
X269339Y142920D01*
X269367Y142856D01*
X269402Y142790D01*
X269445Y142721D01*
X269496Y142651D01*
X269554Y142578D01*
X269696Y142425D01*
X268989Y141718D01*
X268911Y141793D01*
X268763Y141918D01*
X268692Y141969D01*
X268624Y142012D01*
X268558Y142047D01*
X268494Y142074D01*
X268432Y142093D01*
X268373Y142105D01*
X268316Y142108D01*
X269305Y143098D01*
X269309Y143041D01*
D02*
G37*
G36*
X273808Y108967D02*
X273824Y108773D01*
X273838Y108687D01*
X273856Y108608D01*
X273878Y108537D01*
X273904Y108472D01*
X273934Y108415D01*
X273968Y108365D01*
X274006Y108322D01*
X272606D01*
X272644Y108365D01*
X272678Y108415D01*
X272708Y108472D01*
X272734Y108537D01*
X272756Y108608D01*
X272774Y108687D01*
X272788Y108773D01*
X272798Y108866D01*
X272806Y109074D01*
X273806D01*
X273808Y108967D01*
D02*
G37*
G36*
X140809Y102041D02*
X140820Y101981D01*
X140840Y101920D01*
X140867Y101856D01*
X140902Y101790D01*
X140945Y101721D01*
X140996Y101651D01*
X141054Y101578D01*
X141196Y101425D01*
X140489Y100718D01*
X140411Y100793D01*
X140263Y100918D01*
X140192Y100969D01*
X140124Y101012D01*
X140058Y101047D01*
X139994Y101074D01*
X139932Y101093D01*
X139873Y101105D01*
X139816Y101108D01*
X140805Y102098D01*
X140809Y102041D01*
D02*
G37*
G36*
X154138Y99339D02*
X154081Y99335D01*
X154021Y99324D01*
X153960Y99305D01*
X153896Y99278D01*
X153830Y99242D01*
X153761Y99199D01*
X153690Y99149D01*
X153617Y99090D01*
X153465Y98948D01*
X152758Y99655D01*
X152832Y99733D01*
X152958Y99881D01*
X153009Y99952D01*
X153052Y100020D01*
X153087Y100086D01*
X153114Y100150D01*
X153133Y100212D01*
X153145Y100271D01*
X153148Y100329D01*
X154138Y99339D01*
D02*
G37*
G36*
X164266Y101120D02*
X163266Y101009D01*
X163264Y101117D01*
X163256Y101216D01*
X163243Y101304D01*
X163226Y101383D01*
X163203Y101452D01*
X163175Y101512D01*
X163142Y101561D01*
X163104Y101601D01*
X163061Y101631D01*
X163013Y101652D01*
X164247Y102270D01*
X164266Y101120D01*
D02*
G37*
D14*
X130031Y226215D02*
G03*
X132381Y228049I-1149J3893D01*
G01*
X57498Y110706D02*
G03*
X55636Y110608I-692J-4598D01*
G01*
X302675Y134977D02*
Y149373D01*
X281806Y114108D02*
X302675Y134977D01*
X278306Y118108D02*
X280987Y120790D01*
Y127122D01*
X236806Y98321D02*
Y104608D01*
X236486Y98002D02*
X236806Y98321D01*
X236486Y92986D02*
Y98002D01*
X232737Y93906D02*
Y104540D01*
Y93906D02*
X236851Y89792D01*
Y71562D02*
Y89792D01*
X240329Y68084D02*
X240495Y67918D01*
X236851Y71562D02*
X240329Y68084D01*
X238851Y90062D02*
Y90620D01*
X240495Y67470D02*
Y67918D01*
X236486Y92986D02*
X238851Y90620D01*
X273306Y107608D02*
Y138108D01*
X268306Y143108D02*
X273306Y138108D01*
X194487Y197927D02*
X315806D01*
X207306Y194608D02*
X242306Y159608D01*
X225806Y182108D02*
X245806Y162108D01*
X194977Y194608D02*
X207306D01*
X196270Y191608D02*
X221885Y165993D01*
X201306Y192108D02*
X219614Y173799D01*
X190341Y191608D02*
X196270D01*
X221885Y165993D02*
X227190D01*
X219614Y171799D02*
X219806Y171608D01*
X219614Y171799D02*
Y173799D01*
X198806Y177608D02*
Y184108D01*
X277306Y66108D02*
Y79608D01*
X262306Y94608D02*
X277306Y79608D01*
X265799Y68696D02*
Y85114D01*
X257806Y93108D02*
X265799Y85114D01*
X238851Y90062D02*
X252306Y76608D01*
Y67608D02*
Y76608D01*
X216813Y80101D02*
X233313Y63601D01*
X312538D01*
X230240Y72598D02*
Y76680D01*
X225806Y81114D02*
X230240Y76680D01*
X225806Y81114D02*
Y123565D01*
X238489Y136249D01*
X222806Y126608D02*
X235306Y139108D01*
X222806Y79108D02*
X225306Y76608D01*
X222806Y79108D02*
Y126608D01*
X216813Y80101D02*
Y141115D01*
X248806Y134758D02*
Y136608D01*
X263806Y151608D01*
X313366Y61601D02*
X327806Y76040D01*
Y126043D01*
X310680Y143169D02*
X327806Y126043D01*
X263806Y152144D02*
X265270Y153608D01*
X265806D01*
X263806Y151608D02*
Y152144D01*
X265806Y153608D02*
X268530Y156332D01*
X266306Y151108D02*
X272306Y145108D01*
X299806D01*
X268530Y156332D02*
X301529D01*
X313299Y61601D02*
X313366D01*
X304979Y53281D02*
X313299Y61601D01*
X304979Y28230D02*
Y53281D01*
X312538Y63601D02*
X323306Y74369D01*
Y96419D01*
X319031Y100693D02*
X323306Y96419D01*
X298586Y87999D02*
X302806Y92218D01*
X298586Y87782D02*
Y87999D01*
X302806Y92218D02*
Y92435D01*
X238306Y124608D02*
X277821Y85092D01*
X318168D01*
X216813Y141115D02*
X220306Y144608D01*
X318168Y104777D02*
X319031Y103914D01*
Y100693D02*
Y103914D01*
X237576Y131108D02*
X238211Y130473D01*
X238670D01*
X237306Y131108D02*
X237576D01*
X238306Y130108D02*
X273479Y94935D01*
X318168D01*
X245628Y179786D02*
X262306Y163108D01*
X245628Y179786D02*
Y191786D01*
X248806Y159108D02*
X296672D01*
X245806Y162108D02*
X248806Y159108D01*
X184306Y208108D02*
X194487Y197927D01*
X184306Y208108D02*
Y235936D01*
X245806Y127608D02*
Y162108D01*
X301529Y156332D02*
X321306Y176109D01*
X296672Y159108D02*
X315806Y178242D01*
X239535Y158608D02*
X241325Y156818D01*
Y156089D02*
Y156818D01*
Y156089D02*
X243306Y154108D01*
X321306Y176109D02*
Y202269D01*
X315806Y207769D02*
X321306Y202269D01*
X125806Y191608D02*
X187270D01*
X187770Y192108D01*
X189841D02*
X190341Y191608D01*
X187770Y192108D02*
X189841D01*
X165306Y162108D02*
X188806Y185608D01*
Y189608D01*
X201306Y166108D02*
X203770D01*
X196806Y170608D02*
X201306Y166108D01*
X196806Y170608D02*
Y179108D01*
X179920Y197608D02*
X191977D01*
X101806Y215608D02*
X125806Y191608D01*
X191977Y197608D02*
X194977Y194608D01*
X198806Y177608D02*
X206306Y170108D01*
Y165108D02*
Y170108D01*
X198806Y140608D02*
Y157608D01*
X206306Y165108D01*
X204306Y158608D02*
X239535D01*
X191806Y184108D02*
X196806Y179108D01*
X179920Y197608D02*
Y198686D01*
X148819Y194122D02*
X151306Y196608D01*
X227190Y165993D02*
X227323Y166126D01*
X160806Y157608D02*
X162062Y158865D01*
X194668D01*
X83806Y228713D02*
X91615Y236522D01*
X82306Y223108D02*
Y224510D01*
X83806Y226010D01*
Y228713D01*
X141391Y234522D02*
X142306Y233608D01*
X132220Y234522D02*
X141391D01*
X91615Y236522D02*
X183720D01*
X128883Y231185D02*
X132220Y234522D01*
X183720Y236522D02*
X184306Y235936D01*
X176306Y118108D02*
X198806Y140608D01*
X72306Y223108D02*
X88853Y239655D01*
X97066D01*
X158806Y162108D02*
X165306D01*
X132381Y228049D02*
X134698D01*
X124823Y221007D02*
X130031Y226215D01*
X124823Y197590D02*
Y221007D01*
X134698Y228049D02*
X136757Y230108D01*
X128319Y177916D02*
Y186216D01*
X124823Y197590D02*
X128306Y194108D01*
X47948Y189164D02*
X131749D01*
X128319Y177916D02*
X135895Y170340D01*
X148806Y188837D02*
Y189108D01*
Y188837D02*
X150306Y187337D01*
Y180608D02*
Y187337D01*
X142306Y194608D02*
Y233608D01*
X128883Y230108D02*
Y231185D01*
X103806Y162108D02*
X140806D01*
X144306Y158608D01*
Y140108D02*
Y158608D01*
X144548Y164108D02*
X149806Y158851D01*
Y141108D02*
Y158851D01*
X111306Y164108D02*
X144548D01*
X38023Y223108D02*
X49306Y211825D01*
Y202108D02*
X58806Y192608D01*
X49306Y202108D02*
Y211825D01*
X97556Y168358D02*
X103806Y162108D01*
X97556Y168358D02*
Y173843D01*
X91806Y179593D02*
X97556Y173843D01*
X91806Y179593D02*
Y184108D01*
X106806Y168608D02*
X111306Y164108D01*
X106806Y168608D02*
Y180608D01*
X119830Y159108D02*
X136806D01*
X42891Y184108D02*
X47948Y189164D01*
X93249Y193164D02*
X94306D01*
X101806Y141084D02*
X119830Y159108D01*
X144306Y140108D02*
X147806Y136608D01*
X149806Y141108D02*
X153806Y137108D01*
X28023Y206391D02*
Y223108D01*
Y206391D02*
X42306Y192108D01*
X102806Y132108D02*
X122865Y152168D01*
X133553D01*
X151306Y196608D02*
X172243Y217545D01*
Y230108D01*
X149306Y32108D02*
Y95496D01*
X144542Y27344D02*
X149306Y32108D01*
Y95496D02*
X154148Y100339D01*
X86070Y27344D02*
X144291Y85565D01*
Y97623D01*
X139806Y102108D02*
X144291Y97623D01*
X163766Y27805D02*
X164227Y27344D01*
X163766Y27805D02*
Y102147D01*
X163306Y102608D02*
X163766Y102147D01*
X141806Y113108D02*
Y137108D01*
X66306Y37608D02*
X141806Y113108D01*
X66306Y27424D02*
X66385Y27344D01*
X66306Y27424D02*
Y37608D01*
X40295Y96173D02*
X54730Y110608D01*
X57983Y110706D02*
X88361Y141084D01*
X54730Y110608D02*
X55636D01*
X57498Y110706D02*
X57569Y110706D01*
X57569D02*
X57983Y110706D01*
X88361Y141084D02*
X89306D01*
X38607Y86330D02*
X53735Y101458D01*
X58913D02*
X89998Y132544D01*
X20577Y86330D02*
X38607D01*
X53735Y101458D02*
X58913D01*
X20577Y96173D02*
X40295D01*
X63305Y223108D02*
X93249Y193164D01*
X131749Y189164D02*
X158806Y162108D01*
X42697Y184108D02*
X42891D01*
X48023Y223108D02*
X63305D01*
X20577Y161988D02*
X42697Y184108D01*
X101806Y222608D02*
X102306Y223108D01*
X101806Y215608D02*
Y222608D01*
X81567Y74569D02*
X82306Y73830D01*
D21*
X38023Y231612D02*
D03*
X92306D02*
D03*
X82306Y145834D02*
D03*
Y73830D02*
D03*
D22*
X48023Y223108D02*
D03*
X38023D02*
D03*
X28023D02*
D03*
X102306D02*
D03*
X92306D02*
D03*
X82306D02*
D03*
D23*
X18023D02*
D03*
X72306D02*
D03*
D26*
X318168Y75250D02*
D03*
Y85092D02*
D03*
Y94935D02*
D03*
Y104777D02*
D03*
Y114620D02*
D03*
X315806Y227454D02*
D03*
Y217612D02*
D03*
Y207769D02*
D03*
Y197927D02*
D03*
Y188084D02*
D03*
X105755Y27344D02*
D03*
X95913D02*
D03*
X86070D02*
D03*
X76228D02*
D03*
X66385D02*
D03*
X20430Y38368D02*
D03*
X20577Y86330D02*
D03*
Y96173D02*
D03*
Y106015D02*
D03*
X183912Y27344D02*
D03*
X174069D02*
D03*
X164227D02*
D03*
X154384D02*
D03*
X144542D02*
D03*
X236337Y28230D02*
D03*
X246179D02*
D03*
X256022D02*
D03*
X295136D02*
D03*
X304979D02*
D03*
X314821D02*
D03*
X20577Y161988D02*
D03*
Y171830D02*
D03*
Y181673D02*
D03*
D27*
X318168Y124462D02*
D03*
X315806Y178242D02*
D03*
X20430Y28525D02*
D03*
X20577Y76488D02*
D03*
Y152145D02*
D03*
D28*
X136757Y217594D02*
D03*
X128883Y230108D02*
D03*
X282489D02*
D03*
X172243D02*
D03*
D29*
X128883Y217594D02*
D03*
X136757Y230108D02*
D03*
X274615D02*
D03*
X164369D02*
D03*
D30*
X82306Y185204D02*
D03*
Y113200D02*
D03*
D32*
X56543Y27344D02*
D03*
X134699D02*
D03*
X226494Y28230D02*
D03*
X285294D02*
D03*
D39*
X56806Y96108D02*
X78345Y74569D01*
X81567D01*
X94806Y86330D02*
Y172704D01*
X82306Y185204D02*
X94806Y172704D01*
X82306Y73830D02*
X94806Y86330D01*
D42*
X250411Y90108D02*
D03*
X159730D02*
D03*
D43*
X231199D02*
D03*
X140517D02*
D03*
D44*
X54806Y151108D02*
D03*
Y176108D02*
D03*
X48306Y53108D02*
D03*
X58306D02*
D03*
D45*
X56806Y96108D02*
D03*
D46*
Y106108D02*
D03*
Y116108D02*
D03*
D47*
X9306Y8608D02*
D03*
Y249108D02*
D03*
X339306Y8608D02*
D03*
Y249108D02*
D03*
D48*
X107949Y99975D02*
D03*
X163306Y102608D02*
D03*
X139806Y102108D02*
D03*
X154148Y100339D02*
D03*
X42306Y192108D02*
D03*
X58806Y192608D02*
D03*
X106806Y180608D02*
D03*
X147806Y136608D02*
D03*
X141806Y137108D02*
D03*
X153806D02*
D03*
X135895Y170340D02*
D03*
X89306Y141084D02*
D03*
X101806D02*
D03*
X127806Y145608D02*
D03*
X160806Y157608D02*
D03*
X133553Y152168D02*
D03*
X150306Y180608D02*
D03*
X136806Y159108D02*
D03*
X158806Y162108D02*
D03*
X94306Y193164D02*
D03*
X142306Y194608D02*
D03*
X97066Y239655D02*
D03*
X128319Y186216D02*
D03*
X148806Y189108D02*
D03*
X128306Y194108D02*
D03*
X148819Y194122D02*
D03*
X91806Y184108D02*
D03*
X235306Y139108D02*
D03*
X253806Y223108D02*
D03*
X237306Y131108D02*
D03*
X89998Y132544D02*
D03*
X102806Y132108D02*
D03*
X107806Y121108D02*
D03*
X174344Y141826D02*
D03*
X202306Y126108D02*
D03*
X277306Y66108D02*
D03*
X240495Y67470D02*
D03*
X252306Y67608D02*
D03*
X265799Y68696D02*
D03*
X298586Y87782D02*
D03*
X302806Y92435D02*
D03*
X257806Y93108D02*
D03*
X262306Y94608D02*
D03*
X279459Y98786D02*
D03*
X273306Y107608D02*
D03*
X281806Y114108D02*
D03*
X278306Y118108D02*
D03*
X238306Y124608D02*
D03*
X280987Y127122D02*
D03*
X245806Y127608D02*
D03*
X248806Y134758D02*
D03*
X238489Y136249D02*
D03*
X264968Y137741D02*
D03*
X242306Y159608D02*
D03*
X179920Y198686D02*
D03*
X188806Y189608D02*
D03*
X201306Y192108D02*
D03*
X203770Y166108D02*
D03*
X191806Y184108D02*
D03*
X198806D02*
D03*
X219806Y171608D02*
D03*
X194668Y158865D02*
D03*
X204306Y158608D02*
D03*
X227323Y166126D02*
D03*
X220306Y144608D02*
D03*
X194306Y208608D02*
D03*
X225806Y182108D02*
D03*
X218806Y152608D02*
D03*
X268306Y143108D02*
D03*
X310680Y143169D02*
D03*
X299806Y145108D02*
D03*
X302675Y149373D02*
D03*
X266306Y151108D02*
D03*
X243306Y154108D02*
D03*
X245628Y191786D02*
D03*
X262306Y163108D02*
D03*
X232737Y104540D02*
D03*
X176306Y118108D02*
D03*
X236806Y104608D02*
D03*
X225306Y76608D02*
D03*
X207306Y102108D02*
D03*
X230240Y72598D02*
D03*
D49*
X57569Y110706D02*
D03*
M02*
