G04*
G04 #@! TF.GenerationSoftware,Altium Limited,Altium Designer,22.1.2 (22)*
G04*
G04 Layer_Color=16711935*
%FSLAX25Y25*%
%MOIN*%
G70*
G04*
G04 #@! TF.SameCoordinates,791223F6-2876-430F-897D-041DB45C5482*
G04*
G04*
G04 #@! TF.FilePolarity,Negative*
G04*
G01*
G75*
%ADD21C,0.04921*%
%ADD22C,0.06181*%
%ADD23R,0.06181X0.06181*%
%ADD24R,0.05347X0.05347*%
%ADD25C,0.05347*%
%ADD26C,0.05512*%
%ADD27R,0.05512X0.05512*%
%ADD28C,0.05118*%
%ADD29R,0.05118X0.05118*%
%ADD30R,0.04921X0.04921*%
%ADD31C,0.05524*%
%ADD32R,0.05512X0.05512*%
%ADD33R,0.07099X0.07099*%
%ADD34C,0.07099*%
%ADD35C,0.15800*%
%ADD36C,0.02800*%
D21*
X38023Y231612D02*
D03*
X92306D02*
D03*
X82306Y145834D02*
D03*
Y73830D02*
D03*
D22*
X48023Y223108D02*
D03*
X38023D02*
D03*
X28023D02*
D03*
X102306D02*
D03*
X92306D02*
D03*
X82306D02*
D03*
D23*
X18023D02*
D03*
X72306D02*
D03*
D24*
X250411Y90108D02*
D03*
X159730D02*
D03*
D25*
X231199D02*
D03*
X140517D02*
D03*
D26*
X318168Y75250D02*
D03*
Y85092D02*
D03*
Y94935D02*
D03*
Y104777D02*
D03*
Y114620D02*
D03*
X315806Y227454D02*
D03*
Y217612D02*
D03*
Y207769D02*
D03*
Y197927D02*
D03*
Y188084D02*
D03*
X105755Y27344D02*
D03*
X95913D02*
D03*
X86070D02*
D03*
X76228D02*
D03*
X66385D02*
D03*
X20430Y38368D02*
D03*
X20577Y86330D02*
D03*
Y96173D02*
D03*
Y106015D02*
D03*
X183912Y27344D02*
D03*
X174069D02*
D03*
X164227D02*
D03*
X154384D02*
D03*
X144542D02*
D03*
X236337Y28230D02*
D03*
X246179D02*
D03*
X256022D02*
D03*
X295136D02*
D03*
X304979D02*
D03*
X314821D02*
D03*
X20577Y161988D02*
D03*
Y171830D02*
D03*
Y181673D02*
D03*
D27*
X318168Y124462D02*
D03*
X315806Y178242D02*
D03*
X20430Y28525D02*
D03*
X20577Y76488D02*
D03*
Y152145D02*
D03*
D28*
X136757Y217594D02*
D03*
X128883Y230108D02*
D03*
X282489D02*
D03*
X172243D02*
D03*
D29*
X128883Y217594D02*
D03*
X136757Y230108D02*
D03*
X274615D02*
D03*
X164369D02*
D03*
D30*
X82306Y185204D02*
D03*
Y113200D02*
D03*
D31*
X54806Y151108D02*
D03*
Y176108D02*
D03*
X48306Y53108D02*
D03*
X58306D02*
D03*
D32*
X56543Y27344D02*
D03*
X134699D02*
D03*
X226494Y28230D02*
D03*
X285294D02*
D03*
D33*
X56806Y96108D02*
D03*
D34*
Y106108D02*
D03*
Y116108D02*
D03*
D35*
X9306Y249108D02*
D03*
Y8608D02*
D03*
X339306Y14608D02*
D03*
Y249108D02*
D03*
D36*
X281806Y114108D02*
D03*
X278306Y118108D02*
D03*
X236806Y104608D02*
D03*
X232737Y104540D02*
D03*
X127806Y145608D02*
D03*
X253806Y223108D02*
D03*
X225806Y182108D02*
D03*
X201306Y192108D02*
D03*
X194306Y208608D02*
D03*
X198806Y184108D02*
D03*
X174344Y141826D02*
D03*
X207306Y102108D02*
D03*
X218806Y152608D02*
D03*
X202306Y126108D02*
D03*
X264968Y137741D02*
D03*
X279459Y98786D02*
D03*
X107806Y121108D02*
D03*
X107949Y99975D02*
D03*
X277306Y66108D02*
D03*
X262306Y94608D02*
D03*
X265799Y68696D02*
D03*
X257806Y93108D02*
D03*
X252306Y67608D02*
D03*
X240495Y67470D02*
D03*
X230240Y72598D02*
D03*
X225306Y76608D02*
D03*
X238489Y136249D02*
D03*
X248806Y134758D02*
D03*
X235306Y139108D02*
D03*
X266306Y151108D02*
D03*
X299806Y145108D02*
D03*
X310680Y143169D02*
D03*
X273306Y107608D02*
D03*
X302806Y92435D02*
D03*
X298586Y87782D02*
D03*
X268306Y143108D02*
D03*
X220306Y144608D02*
D03*
X238306Y124608D02*
D03*
X237306Y131108D02*
D03*
X280987Y127122D02*
D03*
X262306Y163108D02*
D03*
X245628Y191786D02*
D03*
X243306Y154108D02*
D03*
X245806Y127608D02*
D03*
X302675Y149373D02*
D03*
X188806Y189608D02*
D03*
X203770Y166108D02*
D03*
X204306Y158608D02*
D03*
X191806Y184108D02*
D03*
X179920Y198686D02*
D03*
X148819Y194122D02*
D03*
X227323Y166126D02*
D03*
X219806Y171608D02*
D03*
X242306Y159608D02*
D03*
X160806Y157608D02*
D03*
X194668Y158865D02*
D03*
X176306Y118108D02*
D03*
X97066Y239655D02*
D03*
X128319Y186216D02*
D03*
X128306Y194108D02*
D03*
X135895Y170340D02*
D03*
X150306Y180608D02*
D03*
X148806Y189108D02*
D03*
X142306Y194608D02*
D03*
X58806Y192608D02*
D03*
X91806Y184108D02*
D03*
X136806Y159108D02*
D03*
X106806Y180608D02*
D03*
X94306Y193164D02*
D03*
X147806Y136608D02*
D03*
X42306Y192108D02*
D03*
X153806Y137108D02*
D03*
X154148Y100339D02*
D03*
X163306Y102608D02*
D03*
X139806Y102108D02*
D03*
X141806Y137108D02*
D03*
X89998Y132544D02*
D03*
X102806Y132108D02*
D03*
X89306Y141084D02*
D03*
X101806D02*
D03*
X133553Y152168D02*
D03*
X158806Y162108D02*
D03*
M02*
