G04*
G04 #@! TF.GenerationSoftware,Altium Limited,Altium Designer,22.1.2 (22)*
G04*
G04 Layer_Color=65535*
%FSLAX25Y25*%
%MOIN*%
G70*
G04*
G04 #@! TF.SameCoordinates,791223F6-2876-430F-897D-041DB45C5482*
G04*
G04*
G04 #@! TF.FilePolarity,Positive*
G04*
G01*
G75*
%ADD10C,0.00984*%
%ADD11C,0.00394*%
%ADD12C,0.02362*%
%ADD13C,0.00787*%
%ADD14C,0.01000*%
D10*
X10680Y223108D02*
G03*
X10680Y223108I-492J0D01*
G01*
X318660Y136667D02*
G03*
X318660Y136667I-492J0D01*
G01*
X224565Y143754D02*
G03*
X224565Y143754I-492J0D01*
G01*
X64963Y223108D02*
G03*
X64963Y223108I-492J0D01*
G01*
X133883Y143754D02*
G03*
X133883Y143754I-492J0D01*
G01*
X123075Y217594D02*
G03*
X123075Y217594I-492J0D01*
G01*
X143548Y230108D02*
G03*
X143548Y230108I-492J0D01*
G01*
X268808D02*
G03*
X268808Y230108I-492J0D01*
G01*
X316298Y166037D02*
G03*
X316298Y166037I-492J0D01*
G01*
X44830Y27344D02*
G03*
X44830Y27344I-492J0D01*
G01*
X31453Y28525D02*
G03*
X31453Y28525I-492J0D01*
G01*
X67140Y96108D02*
G03*
X67140Y96108I-492J0D01*
G01*
X21069Y64677D02*
G03*
X21069Y64677I-492J0D01*
G01*
X122987Y27344D02*
G03*
X122987Y27344I-492J0D01*
G01*
X215175Y28230D02*
G03*
X215175Y28230I-492J0D01*
G01*
X273975D02*
G03*
X273975Y28230I-492J0D01*
G01*
X21069Y140334D02*
G03*
X21069Y140334I-492J0D01*
G01*
X158562Y230108D02*
G03*
X158562Y230108I-492J0D01*
G01*
D11*
X250411Y79084D02*
G03*
X250411Y78691I0J-197D01*
G01*
D02*
G03*
X250411Y79084I0J197D01*
G01*
X159730D02*
G03*
X159730Y78691I0J-197D01*
G01*
D02*
G03*
X159730Y79084I0J197D01*
G01*
X54806Y154750D02*
G03*
X54806Y172466I0J8858D01*
G01*
D02*
G03*
X54806Y154750I0J-8858D01*
G01*
X42006Y53108D02*
G03*
X42400Y53108I197J0D01*
G01*
D02*
G03*
X42006Y53108I-197J0D01*
G01*
D12*
X234703Y136667D02*
G03*
X234703Y136667I-1181J0D01*
G01*
X144021D02*
G03*
X144021Y136667I-1181J0D01*
G01*
D13*
X44447Y53108D02*
G03*
X62164Y53108I8858J0D01*
G01*
D02*
G03*
X44447Y53108I-8858J0D01*
G01*
X53495Y209722D02*
Y233502D01*
X12550D02*
X34086D01*
X41960D02*
X53495D01*
X12550Y209722D02*
Y233502D01*
Y209722D02*
X53495D01*
X218462Y99261D02*
X263148D01*
X218462Y80954D02*
Y99261D01*
Y80954D02*
X263148D01*
Y99261D01*
X309506Y134305D02*
X324467D01*
X309506Y65407D02*
Y134305D01*
Y65407D02*
X324467D01*
Y134305D01*
X229585Y118163D02*
X252026D01*
X229585Y140604D02*
X252026D01*
Y118163D02*
Y140604D01*
X229585Y118163D02*
Y140604D01*
X107778Y209722D02*
Y233502D01*
X66833D02*
X88369D01*
X96243D02*
X107778D01*
X66833Y209722D02*
Y233502D01*
Y209722D02*
X107778D01*
X138903Y118163D02*
X161344D01*
X138903Y140604D02*
X161344D01*
Y118163D02*
Y140604D01*
X138903Y118163D02*
Y140604D01*
X247274Y219159D02*
X250802D01*
X247274Y213057D02*
X250802D01*
X207042D02*
X210570D01*
X207042Y219159D02*
X210570D01*
X124257Y213263D02*
Y221925D01*
Y213263D02*
X141383D01*
Y221925D01*
X124257D02*
X141383D01*
Y225777D02*
Y234439D01*
X124257D02*
X141383D01*
X124257Y225777D02*
Y234439D01*
Y225777D02*
X141383D01*
X127781Y99261D02*
X172466D01*
X127781Y80954D02*
Y99261D01*
Y80954D02*
X172466D01*
Y99261D01*
X119458Y87943D02*
Y92273D01*
X112372Y87943D02*
Y92273D01*
X187349Y87943D02*
Y92273D01*
X180262Y87943D02*
Y92273D01*
X205262Y113943D02*
Y118273D01*
X212349Y113943D02*
Y118273D01*
X205262Y141490D02*
Y145821D01*
X212349Y141490D02*
Y145821D01*
X148155Y172131D02*
X152092D01*
X148155Y178430D02*
X152092D01*
X209849Y87943D02*
Y92273D01*
X202762Y87943D02*
Y92273D01*
X269989Y225777D02*
Y234439D01*
Y225777D02*
X287115D01*
Y234439D01*
X269989D02*
X287115D01*
X82306Y149869D02*
Y152133D01*
Y178904D02*
Y181168D01*
X77188Y178904D02*
X87424D01*
X77188Y152133D02*
Y178904D01*
Y152133D02*
X87424D01*
Y178904D01*
X82306Y77866D02*
Y80129D01*
Y106901D02*
Y109165D01*
X77188Y106901D02*
X87424D01*
X77188Y80129D02*
Y106901D01*
Y80129D02*
X87424D01*
Y106901D01*
X222290Y229124D02*
Y231092D01*
X221306Y230108D02*
X223274D01*
X206345Y233651D02*
X211266D01*
X206345Y226565D02*
X211266D01*
X262522Y229124D02*
Y231092D01*
X261538Y230108D02*
X263506D01*
X246577Y233651D02*
X251499D01*
X246577Y226565D02*
X251499D01*
X115529Y141490D02*
Y145821D01*
X122616Y141490D02*
Y145821D01*
X309506Y168399D02*
X324467D01*
Y237297D01*
X309506D02*
X324467D01*
X309506Y168399D02*
Y237297D01*
X46700Y18683D02*
Y33643D01*
Y18683D02*
X115598D01*
Y33643D01*
X46700D02*
X115598D01*
X14130Y18683D02*
X29091D01*
Y48210D01*
X14130D02*
X29091D01*
X14130Y18683D02*
Y48210D01*
X47554Y85045D02*
Y127171D01*
X45585Y85045D02*
Y127171D01*
X64089Y85045D02*
Y127171D01*
X45585Y85045D02*
X64089D01*
X45585Y127171D02*
X64089D01*
X11325Y115661D02*
X33963D01*
X11325Y66842D02*
Y115661D01*
Y66842D02*
X33963D01*
Y115661D01*
X124857Y18683D02*
Y33643D01*
Y18683D02*
X193754D01*
Y33643D01*
X124857D02*
X193754D01*
X265667Y14844D02*
Y37482D01*
X216848D02*
X265667D01*
X216848Y14844D02*
Y37482D01*
Y14844D02*
X265667D01*
X324467D02*
Y37482D01*
X275648D02*
X324467D01*
X275648Y14844D02*
Y37482D01*
Y14844D02*
X324467D01*
X11325Y191319D02*
X33963D01*
X11325Y142500D02*
Y191319D01*
Y142500D02*
X33963D01*
Y191319D01*
X115529Y113943D02*
Y118273D01*
X122616Y113943D02*
Y118273D01*
X177320Y127218D02*
Y131549D01*
X184407Y127218D02*
Y131549D01*
X280849Y87943D02*
Y92273D01*
X273762Y87943D02*
Y92273D01*
X159743Y225777D02*
Y234439D01*
Y225777D02*
X176869D01*
Y234439D01*
X159743D02*
X176869D01*
X238837Y172131D02*
X242774D01*
X238837Y178430D02*
X242774D01*
X269000Y127218D02*
Y131549D01*
X276087Y127218D02*
Y131549D01*
D14*
X31306Y242607D02*
X29307D01*
X30306D01*
Y237609D01*
X29307Y236609D01*
X28307D01*
X27307Y237609D01*
X37304Y242607D02*
X35305Y241607D01*
X33305Y239608D01*
Y237609D01*
X34305Y236609D01*
X36304D01*
X37304Y237609D01*
Y238608D01*
X36304Y239608D01*
X33305D01*
X235219Y73852D02*
Y72852D01*
X237219Y70853D01*
X239218Y72852D01*
Y73852D01*
X237219Y70853D02*
Y67853D01*
X241217D02*
X243217D01*
X242217D01*
Y73852D01*
X241217Y72852D01*
X298306Y89611D02*
X304305D01*
Y92610D01*
X303305Y93610D01*
X299306D01*
X298306Y92610D01*
Y89611D01*
Y95609D02*
Y97609D01*
Y96609D01*
X304305D01*
Y95609D01*
Y97609D01*
X299306Y104606D02*
X298306Y103607D01*
Y101608D01*
X299306Y100608D01*
X300306D01*
X301306Y101608D01*
Y103607D01*
X302305Y104606D01*
X303305D01*
X304305Y103607D01*
Y101608D01*
X303305Y100608D01*
X304305Y110605D02*
Y106606D01*
X300306Y110605D01*
X299306D01*
X298306Y109605D01*
Y107606D01*
X299306Y106606D01*
X236307Y158607D02*
Y153609D01*
X237306Y152609D01*
X239306D01*
X240306Y153609D01*
Y158607D01*
X242305Y152609D02*
X244304D01*
X243305D01*
Y158607D01*
X242305Y157607D01*
X68533Y243898D02*
X66533D01*
X67533D01*
Y238900D01*
X66533Y237900D01*
X65534D01*
X64534Y238900D01*
X70532Y242898D02*
X71532Y243898D01*
X73531D01*
X74531Y242898D01*
Y241899D01*
X73531Y240899D01*
X72531D01*
X73531D01*
X74531Y239899D01*
Y238900D01*
X73531Y237900D01*
X71532D01*
X70532Y238900D01*
X144764Y160478D02*
Y155480D01*
X145764Y154480D01*
X147764D01*
X148763Y155480D01*
Y160478D01*
X154761Y154480D02*
X150763D01*
X154761Y158479D01*
Y159479D01*
X153762Y160478D01*
X151762D01*
X150763Y159479D01*
X244307Y203109D02*
Y209107D01*
X247306D01*
X248306Y208107D01*
Y206108D01*
X247306Y205108D01*
X244307D01*
X246306D02*
X248306Y203109D01*
X254304Y209107D02*
X250305D01*
Y206108D01*
X252305Y207108D01*
X253304D01*
X254304Y206108D01*
Y204109D01*
X253304Y203109D01*
X251305D01*
X250305Y204109D01*
X205307Y203609D02*
Y209607D01*
X208306D01*
X209306Y208607D01*
Y206608D01*
X208306Y205608D01*
X205307D01*
X207307D02*
X209306Y203609D01*
X215304Y209607D02*
X213305Y208607D01*
X211305Y206608D01*
Y204609D01*
X212305Y203609D01*
X214304D01*
X215304Y204609D01*
Y205608D01*
X214304Y206608D01*
X211305D01*
X126306Y211107D02*
X124306D01*
X125306D01*
Y206109D01*
X124306Y205109D01*
X123307D01*
X122307Y206109D01*
X132304Y205109D02*
X128305D01*
X132304Y209108D01*
Y210107D01*
X131304Y211107D01*
X129305D01*
X128305Y210107D01*
X128433Y244220D02*
X126434D01*
X127433D01*
Y239222D01*
X126434Y238222D01*
X125434D01*
X124434Y239222D01*
X134431Y244220D02*
X130432D01*
Y241221D01*
X132431Y242221D01*
X133431D01*
X134431Y241221D01*
Y239222D01*
X133431Y238222D01*
X131432D01*
X130432Y239222D01*
X144807Y75107D02*
Y74107D01*
X146807Y72108D01*
X148806Y74107D01*
Y75107D01*
X146807Y72108D02*
Y69109D01*
X154804D02*
X150805D01*
X154804Y73108D01*
Y74107D01*
X153804Y75107D01*
X151805D01*
X150805Y74107D01*
X114915Y75107D02*
X113916Y76107D01*
X111916D01*
X110917Y75107D01*
Y71109D01*
X111916Y70109D01*
X113916D01*
X114915Y71109D01*
X116915D02*
X117914Y70109D01*
X119914D01*
X120914Y71109D01*
Y75107D01*
X119914Y76107D01*
X117914D01*
X116915Y75107D01*
Y74108D01*
X117914Y73108D01*
X120914D01*
X183807Y78607D02*
X182807Y79607D01*
X180808D01*
X179808Y78607D01*
Y74609D01*
X180808Y73609D01*
X182807D01*
X183807Y74609D01*
X185806Y73609D02*
X187805D01*
X186806D01*
Y79607D01*
X185806Y78607D01*
X190804D02*
X191804Y79607D01*
X193804D01*
X194803Y78607D01*
Y74609D01*
X193804Y73609D01*
X191804D01*
X190804Y74609D01*
Y78607D01*
X209433Y132398D02*
X208433Y133398D01*
X206434D01*
X205434Y132398D01*
Y128400D01*
X206434Y127400D01*
X208433D01*
X209433Y128400D01*
X215431Y127400D02*
X211432D01*
X215431Y131399D01*
Y132398D01*
X214431Y133398D01*
X212432D01*
X211432Y132398D01*
X209433Y159898D02*
X208433Y160898D01*
X206434D01*
X205434Y159898D01*
Y155900D01*
X206434Y154900D01*
X208433D01*
X209433Y155900D01*
X211432Y154900D02*
X213432D01*
X212432D01*
Y160898D01*
X211432Y159898D01*
X140634Y183900D02*
Y189898D01*
X143633D01*
X144633Y188898D01*
Y186899D01*
X143633Y185899D01*
X140634D01*
X142633D02*
X144633Y183900D01*
X150631D02*
X146632D01*
X150631Y187899D01*
Y188898D01*
X149631Y189898D01*
X147632D01*
X146632Y188898D01*
X204806Y78107D02*
X203806Y79107D01*
X201807D01*
X200807Y78107D01*
Y74109D01*
X201807Y73109D01*
X203806D01*
X204806Y74109D01*
X209804Y73109D02*
Y79107D01*
X206805Y76108D01*
X210804D01*
X268334Y238201D02*
Y244199D01*
X271333D01*
X272333Y243199D01*
Y241200D01*
X271333Y240200D01*
X268334D01*
X275332D02*
X277331D01*
X278331Y241200D01*
Y243199D01*
X277331Y244199D01*
X275332D01*
X274332Y243199D01*
Y241200D01*
X275332Y240200D01*
X280330Y244199D02*
Y241200D01*
X281330Y240200D01*
X282330Y241200D01*
X283329Y240200D01*
X284329Y241200D01*
Y244199D01*
X85602Y193844D02*
X79604D01*
Y196843D01*
X80604Y197842D01*
X82603D01*
X83603Y196843D01*
Y193844D01*
Y195843D02*
X85602Y197842D01*
X80604Y199842D02*
X79604Y200841D01*
Y202841D01*
X80604Y203840D01*
X81604D01*
X82603Y202841D01*
Y201841D01*
Y202841D01*
X83603Y203840D01*
X84603D01*
X85602Y202841D01*
Y200841D01*
X84603Y199842D01*
X85576Y121568D02*
X79578D01*
Y124567D01*
X80578Y125567D01*
X82577D01*
X83577Y124567D01*
Y121568D01*
Y123568D02*
X85576Y125567D01*
Y130566D02*
X79578D01*
X82577Y127567D01*
Y131565D01*
X69800Y164498D02*
X68800Y163498D01*
Y161499D01*
X69800Y160499D01*
X73799D01*
X74799Y161499D01*
Y163498D01*
X73799Y164498D01*
X74799Y166497D02*
Y168496D01*
Y167497D01*
X68800D01*
X69800Y166497D01*
X74799Y171495D02*
Y173495D01*
Y172495D01*
X68800D01*
X69800Y171495D01*
X70119Y52609D02*
X69119Y51609D01*
Y49610D01*
X70119Y48610D01*
X74118D01*
X75117Y49610D01*
Y51609D01*
X74118Y52609D01*
X75117Y54609D02*
Y56608D01*
Y55608D01*
X69119D01*
X70119Y54609D01*
X75117Y63606D02*
Y59607D01*
X71118Y63606D01*
X70119D01*
X69119Y62606D01*
Y60607D01*
X70119Y59607D01*
X198234Y243398D02*
Y237400D01*
X201233D01*
X202233Y238400D01*
Y242399D01*
X201233Y243398D01*
X198234D01*
X208231Y237400D02*
X204232D01*
X208231Y241399D01*
Y242399D01*
X207231Y243398D01*
X205232D01*
X204232Y242399D01*
X238434Y243398D02*
Y237400D01*
X241433D01*
X242433Y238400D01*
Y242399D01*
X241433Y243398D01*
X238434D01*
X244432Y237400D02*
X246431D01*
X245432D01*
Y243398D01*
X244432Y242399D01*
X119733Y159898D02*
X118733Y160898D01*
X116734D01*
X115734Y159898D01*
Y155900D01*
X116734Y154900D01*
X118733D01*
X119733Y155900D01*
X125731Y160898D02*
X123732Y159898D01*
X121732Y157899D01*
Y155900D01*
X122732Y154900D01*
X124731D01*
X125731Y155900D01*
Y156899D01*
X124731Y157899D01*
X121732D01*
X298306Y191111D02*
X304305D01*
Y194110D01*
X303305Y195110D01*
X299306D01*
X298306Y194110D01*
Y191111D01*
Y197109D02*
Y199109D01*
Y198109D01*
X304305D01*
Y197109D01*
Y199109D01*
X299306Y206106D02*
X298306Y205107D01*
Y203107D01*
X299306Y202108D01*
X300306D01*
X301306Y203107D01*
Y205107D01*
X302305Y206106D01*
X303305D01*
X304305Y205107D01*
Y203107D01*
X303305Y202108D01*
X304305Y208106D02*
Y210105D01*
Y209105D01*
X298306D01*
X299306Y208106D01*
X78809Y37295D02*
Y43293D01*
X80808Y41294D01*
X82807Y43293D01*
Y37295D01*
X87806Y43293D02*
X85807D01*
X84807Y42294D01*
Y38295D01*
X85807Y37295D01*
X87806D01*
X88806Y38295D01*
Y42294D01*
X87806Y43293D01*
X90805D02*
X94804D01*
X92804D01*
Y37295D01*
X96803D02*
X98802D01*
X97803D01*
Y43293D01*
X96803Y42294D01*
X32112Y36447D02*
Y34448D01*
Y35447D01*
X37110D01*
X38110Y34448D01*
Y33448D01*
X37110Y32448D01*
X38110Y41445D02*
X32112D01*
X35111Y38446D01*
Y42445D01*
X46134Y136698D02*
Y131700D01*
X47134Y130700D01*
X49133D01*
X50133Y131700D01*
Y136698D01*
X52132Y135698D02*
X53132Y136698D01*
X55131D01*
X56131Y135698D01*
Y134699D01*
X55131Y133699D01*
X54132D01*
X55131D01*
X56131Y132699D01*
Y131700D01*
X55131Y130700D01*
X53132D01*
X52132Y131700D01*
X15533Y125398D02*
X11534D01*
Y119400D01*
X15533D01*
X11534Y122399D02*
X13533D01*
X17532Y119400D02*
Y125398D01*
X21531Y119400D01*
Y125398D01*
X27529Y124398D02*
X26529Y125398D01*
X24530D01*
X23530Y124398D01*
Y120400D01*
X24530Y119400D01*
X26529D01*
X27529Y120400D01*
X122534Y37439D02*
Y43437D01*
X124533Y41437D01*
X126533Y43437D01*
Y37439D01*
X131531Y43437D02*
X129532D01*
X128532Y42437D01*
Y38438D01*
X129532Y37439D01*
X131531D01*
X132531Y38438D01*
Y42437D01*
X131531Y43437D01*
X134530D02*
X138529D01*
X136530D01*
Y37439D01*
X144527D02*
X140528D01*
X144527Y41437D01*
Y42437D01*
X143527Y43437D01*
X141528D01*
X140528Y42437D01*
X214734Y49298D02*
Y43300D01*
Y45299D01*
X218733Y49298D01*
X215734Y46299D01*
X218733Y43300D01*
X223731D02*
X221732D01*
X220732Y44300D01*
Y46299D01*
X221732Y47299D01*
X223731D01*
X224731Y46299D01*
Y45299D01*
X220732D01*
X226730Y47299D02*
Y44300D01*
X227730Y43300D01*
X230729D01*
Y42300D01*
X229729Y41301D01*
X228730D01*
X230729Y43300D02*
Y47299D01*
X236727Y43300D02*
X232728D01*
X236727Y47299D01*
Y48298D01*
X235727Y49298D01*
X233728D01*
X232728Y48298D01*
X273534Y49298D02*
Y43300D01*
Y45299D01*
X277533Y49298D01*
X274534Y46299D01*
X277533Y43300D01*
X282531D02*
X280532D01*
X279532Y44300D01*
Y46299D01*
X280532Y47299D01*
X282531D01*
X283531Y46299D01*
Y45299D01*
X279532D01*
X285530Y47299D02*
Y44300D01*
X286530Y43300D01*
X289529D01*
Y42300D01*
X288529Y41301D01*
X287530D01*
X289529Y43300D02*
Y47299D01*
X291528Y43300D02*
X293528D01*
X292528D01*
Y49298D01*
X291528Y48298D01*
X11534Y201098D02*
X15533D01*
X13533D01*
Y195100D01*
X20531Y201098D02*
X18532D01*
X17532Y200098D01*
Y196100D01*
X18532Y195100D01*
X20531D01*
X21531Y196100D01*
Y200098D01*
X20531Y201098D01*
X27529D02*
X23530D01*
Y198099D01*
X25530D01*
X23530D01*
Y195100D01*
X119700Y132398D02*
X118700Y133398D01*
X116701D01*
X115701Y132398D01*
Y128400D01*
X116701Y127400D01*
X118700D01*
X119700Y128400D01*
X121699Y133398D02*
X125698D01*
Y132398D01*
X121699Y128400D01*
Y127400D01*
X181533Y145638D02*
X180533Y146638D01*
X178534D01*
X177534Y145638D01*
Y141639D01*
X178534Y140639D01*
X180533D01*
X181533Y141639D01*
X183532Y145638D02*
X184532Y146638D01*
X186531D01*
X187531Y145638D01*
Y144638D01*
X186531Y143639D01*
X187531Y142639D01*
Y141639D01*
X186531Y140639D01*
X184532D01*
X183532Y141639D01*
Y142639D01*
X184532Y143639D01*
X183532Y144638D01*
Y145638D01*
X184532Y143639D02*
X186531D01*
X276306Y75107D02*
X275306Y76107D01*
X273307D01*
X272307Y75107D01*
Y71109D01*
X273307Y70109D01*
X275306D01*
X276306Y71109D01*
X282304Y76107D02*
X278305D01*
Y73108D01*
X280305Y74108D01*
X281304D01*
X282304Y73108D01*
Y71109D01*
X281304Y70109D01*
X279305D01*
X278305Y71109D01*
X162133Y244198D02*
X160134D01*
X161133D01*
Y239200D01*
X160134Y238200D01*
X159134D01*
X158134Y239200D01*
X164132Y238200D02*
X166131D01*
X165132D01*
Y244198D01*
X164132Y243198D01*
X231234Y183900D02*
Y189898D01*
X234233D01*
X235233Y188898D01*
Y186899D01*
X234233Y185899D01*
X231234D01*
X233233D02*
X235233Y183900D01*
X237232D02*
X239232D01*
X238232D01*
Y189898D01*
X237232Y188898D01*
X273233Y145638D02*
X272233Y146638D01*
X270234D01*
X269234Y145638D01*
Y141639D01*
X270234Y140639D01*
X272233D01*
X273233Y141639D01*
X275232Y145638D02*
X276232Y146638D01*
X278231D01*
X279231Y145638D01*
Y144638D01*
X278231Y143639D01*
X277232D01*
X278231D01*
X279231Y142639D01*
Y141639D01*
X278231Y140639D01*
X276232D01*
X275232Y141639D01*
M02*
