M48
;Layer_Color=9474304
;FILE_FORMAT=2:4
INCH,TZ
;TYPE=PLATED
T1F00S00C0.0100
T2F00S00C0.0248
T3F00S00C0.0276
T4F00S00C0.0295
T5F00S00C0.0315
T6F00S00C0.0354
T7F00S00C0.0394
T8F00S00C0.0402
T9F00S00C0.1260
;TYPE=NON_PLATED
T10F00S00C0.0492
%
T01
X22531Y7661
X23024Y7260
X24050Y6747
X25231Y6761
X26580Y6870
X27731Y6611
X27946Y9879
X27331Y10761
X28181Y11411
X27831Y11811
X28099Y12712
X26497Y13774
X26831Y14311
X26631Y15111
X26231Y16311
X24231Y15961
X24331Y15411
X23849Y13625
X23531Y13911
X23731Y13111
X23831Y12461
X24581Y12761
X24881Y13476
X22031Y14461
X21881Y15261
X21981Y17161
X22732Y16613
X22581Y18211
X24563Y19179
X23681Y10461
X23274Y10454
X25781Y9311
X26231Y9461
X30281Y9243
X29859Y8778
X29981Y14511
X30267Y14937
X31068Y14317
X20431Y15861
X20377Y16611
X19467Y15886
X19181Y18411
X19881
X20131Y19211
X18881Y18961
X17992Y19869
X19431Y20861
X14882Y19412
X14881Y18911
X15031Y18061
X14231Y19461
X12831Y19411
X12832Y18622
X13589Y17034
X13681Y15911
X13355Y15217
X12781Y14561
X14181Y13711
X14781Y13661
X15381Y13711
X17434Y14183
X17631Y11811
X16331Y10261
X15415Y10034
X13981Y10211
X10795Y9997
X10781Y12111
X10281Y13211
X10181Y14108
X8931
X9000Y13254
X9181Y18411
X9431Y19316
X10681Y18061
X15881Y16211
X16081Y15761
X20231Y12611
X20731Y10211
X5881Y19261
X4231Y19211
X9707Y23966
X25381Y22311
T02
X23120Y9011
X25041
X15973
X14052
T03
X4831Y5311
X5831
T04
X8231Y7383
Y11320
Y14583
Y18520
X5481Y17611
Y15111
T05
X12888Y21759
X13676
Y23011
X12888
X16437
X17224
X27461
X28249
T06
X2043Y2853
Y3837
X5654Y2734
X6639
X7623
X8607
X9591
X10576
X13470
X14454
X15438
X16423
X17407
X18391
X22649Y2823
X23634
X24618
X25602
X28529
X29514
X30498
X31482
X31817Y7525
Y8509
Y9493
Y10478
Y11462
Y12446
X31581Y17824
Y18808
Y19793
Y20777
Y21761
X2058Y18167
Y17183
Y16199
Y15215
Y10602
Y9617
Y8633
Y7649
X31581Y22745
T07
X5681Y9611
Y10611
Y11611
T08
X1802Y22311
X2802
X3802
X4802
X7231
X8231
X9231
X10231
T09
X931Y861
X33931Y1461
X931Y24911
X33931
T10
X3802Y23161
X9231
M30
