G04*
G04 #@! TF.GenerationSoftware,Altium Limited,Altium Designer,22.1.2 (22)*
G04*
G04 Layer_Physical_Order=1*
G04 Layer_Color=255*
%FSLAX25Y25*%
%MOIN*%
G70*
G04*
G04 #@! TF.SameCoordinates,791223F6-2876-430F-897D-041DB45C5482*
G04*
G04*
G04 #@! TF.FilePolarity,Positive*
G04*
G01*
G75*
%ADD14C,0.01000*%
%ADD17R,0.03764X0.06338*%
%ADD18R,0.06693X0.03740*%
%ADD20R,0.06890X0.05906*%
%ADD21C,0.04921*%
%ADD22C,0.06181*%
%ADD23R,0.06181X0.06181*%
%ADD26C,0.05512*%
%ADD27R,0.05512X0.05512*%
%ADD28C,0.05118*%
%ADD29R,0.05118X0.05118*%
%ADD30R,0.04921X0.04921*%
%ADD32R,0.05512X0.05512*%
%ADD37O,0.02362X0.07677*%
%ADD38O,0.07677X0.02362*%
%ADD39R,0.04921X0.07087*%
%ADD40C,0.02500*%
%ADD41C,0.02000*%
%ADD42C,0.01200*%
%ADD43R,0.04547X0.04547*%
%ADD44C,0.04547*%
%ADD45C,0.04724*%
%ADD46R,0.06299X0.06299*%
%ADD47C,0.06299*%
%ADD48C,0.15000*%
%ADD49C,0.02000*%
D14*
X252458Y113108D02*
X280535D01*
X281535Y114108D01*
X281806D01*
X257663Y118234D02*
X278180D01*
X257537Y118360D02*
X257663Y118234D01*
X278180D02*
X278306Y118108D01*
X236806Y104608D02*
Y104879D01*
X236081Y105604D02*
Y112651D01*
Y105604D02*
X236806Y104879D01*
X232834Y112555D02*
X232931Y112651D01*
X232737Y104540D02*
X232834Y104637D01*
Y112555D01*
X239860Y93882D02*
X253306D01*
X217806Y113108D02*
Y114750D01*
X240806Y90108D02*
X250411D01*
X229781Y103961D02*
Y112651D01*
X217806Y113108D02*
X240806Y90108D01*
X229781Y103961D02*
X239860Y93882D01*
X239306Y102108D02*
Y105699D01*
X239230Y105774D02*
X239306Y105699D01*
X239230Y105774D02*
Y112651D01*
X239306Y102108D02*
X245532Y95882D01*
X252001Y112651D02*
X252458Y113108D01*
X251829Y112651D02*
X252001D01*
X124247Y149167D02*
X127806Y145608D01*
X119073Y149167D02*
X124247D01*
X254160Y216108D02*
Y222753D01*
X253806Y223108D02*
X254160Y222753D01*
X217310Y202612D02*
Y228986D01*
X225035Y181608D02*
X225535Y182108D01*
X225806D01*
X187556Y181608D02*
X225035D01*
X195806Y192108D02*
X201306D01*
X194306Y208608D02*
X201806Y216108D01*
X203683D01*
X198806Y184108D02*
X217310Y202612D01*
X162556Y206608D02*
X187556Y181608D01*
X215695Y230108D02*
X216187D01*
X217310Y228986D01*
X174344Y141415D02*
Y141826D01*
Y141415D02*
X180864Y134895D01*
X206276Y95620D02*
X206306D01*
X204829D02*
X206276D01*
X207306Y96620D02*
Y102108D01*
X206306Y95620D02*
X207306Y96620D01*
X215365Y149167D02*
X218806Y152608D01*
X208805Y149167D02*
X215365D01*
X202306Y126108D02*
X206794Y121620D01*
X208805D01*
X267099Y134895D02*
X267814D01*
X264968Y137741D02*
X267814Y134895D01*
X272544D01*
X279459Y97773D02*
Y98786D01*
X277306Y95620D02*
X279459Y97773D01*
X107806Y121108D02*
X108317Y121620D01*
X245529Y102384D02*
X247141Y100772D01*
X256141D01*
X245529Y102384D02*
Y112651D01*
X245532Y95882D02*
X254135D01*
X277306Y66108D02*
X295136Y48277D01*
Y28230D02*
Y48277D01*
X256141Y100772D02*
X262306Y94608D01*
X254135Y95882D02*
X257408Y92608D01*
X257806D01*
X265799Y47724D02*
Y68696D01*
Y47724D02*
X285294Y28230D01*
X257806Y92608D02*
Y93108D01*
X256580Y90608D02*
X299296D01*
X250411Y90108D02*
X255923Y84596D01*
X277306D01*
X299296Y90608D02*
X313912Y75992D01*
X252306Y67608D02*
X256022Y63892D01*
Y28230D02*
Y63892D01*
X246179Y28230D02*
Y61786D01*
X240495Y67470D02*
X246179Y61786D01*
X230240Y34327D02*
Y72598D01*
Y34327D02*
X236337Y28230D01*
X225306Y29419D02*
Y76608D01*
X242380Y130182D02*
X247455Y135258D01*
X248306D01*
X248806Y134758D01*
X238489Y136249D02*
X239498Y137258D01*
X257537D01*
X225306Y29419D02*
X226494Y28230D01*
X235306Y139108D02*
X236605Y140407D01*
X257537D01*
X299806Y145108D02*
X308741D01*
X310680Y143169D01*
X251829Y146116D02*
Y152631D01*
X255303Y156105D01*
X256131D02*
X268114Y144122D01*
X255303Y156105D02*
X256131D01*
X253885Y158694D02*
X258720D01*
X248679Y146116D02*
Y153488D01*
X258720Y158694D02*
X266306Y151108D01*
X248679Y153488D02*
X253885Y158694D01*
X268114Y143299D02*
Y144122D01*
Y143299D02*
X268306Y143108D01*
X273306Y107608D02*
X278306Y102608D01*
X298306D02*
X302806Y98108D01*
X278306Y102608D02*
X298306D01*
X302806Y92435D02*
Y98108D01*
X317425Y75992D02*
X318168Y75250D01*
X313912Y75992D02*
X317425D01*
X298586Y87782D02*
X314821Y71547D01*
Y28230D02*
Y71547D01*
X262306Y163108D02*
X280987Y144427D01*
Y127122D02*
Y144427D01*
X253306Y93882D02*
X256580Y90608D01*
X257537Y130958D02*
X263162D01*
X267099Y134895D01*
X222084Y146116D02*
X229781D01*
X220576Y144608D02*
X222084Y146116D01*
X220306Y144608D02*
X220576D01*
X229411Y133608D02*
X238306Y124714D01*
Y124608D02*
Y124714D01*
X236159Y131299D02*
X237114D01*
X229411Y138047D02*
X236159Y131299D01*
X237114D02*
X237306Y131108D01*
X227006Y140407D02*
X227475Y139939D01*
X227841D01*
X229411Y138368D01*
Y138047D02*
Y138368D01*
X224073Y140407D02*
X227006D01*
X229411Y133608D02*
Y135219D01*
X248211Y116146D02*
Y116419D01*
X245806Y118824D02*
X248211Y116419D01*
Y116146D02*
X248679Y115677D01*
Y112651D02*
Y115677D01*
X245806Y118824D02*
Y127608D01*
X242380Y112651D02*
Y130182D01*
X224073Y137258D02*
X225156D01*
X225624Y136789D01*
X227841D01*
X229411Y135219D01*
X301306Y150742D02*
Y183427D01*
Y150742D02*
X302675Y149373D01*
X246872Y239655D02*
X257542Y228986D01*
Y209345D02*
Y228986D01*
X245628Y197430D02*
X257542Y209345D01*
X245628Y191786D02*
Y197430D01*
X272544Y123872D02*
X277576D01*
X266311D02*
X272544D01*
X242343Y146153D02*
Y151535D01*
X238806Y152244D02*
X239230Y151819D01*
Y156397D02*
Y160068D01*
Y146116D02*
Y151819D01*
X242306Y156643D02*
Y159608D01*
X240806Y153073D02*
Y155143D01*
X242306Y156643D01*
X245529Y146116D02*
Y151884D01*
X240806Y153073D02*
X242343Y151535D01*
X243306Y154108D02*
X245529Y151884D01*
X238806Y152244D02*
Y155972D01*
X239230Y156397D01*
X301306Y183427D02*
X315806Y197927D01*
X179920Y198590D02*
Y198686D01*
Y198590D02*
X188806Y189704D01*
Y189608D02*
Y189704D01*
X179806Y198800D02*
X179920Y198686D01*
X179806Y198800D02*
Y200108D01*
X164306Y215608D02*
Y230045D01*
Y215608D02*
X179806Y200108D01*
X163442Y208608D02*
X187942Y184108D01*
X188770Y186108D02*
X189806D01*
X161634Y210608D02*
X164270D01*
X137868Y208608D02*
X163442D01*
X164270Y210608D02*
X188770Y186108D01*
X187942Y184108D02*
X191806D01*
X108806Y206608D02*
X162556D01*
X203770Y166108D02*
X218306D01*
X195306Y158608D02*
X204306D01*
X194806Y159108D02*
X195306Y158608D01*
X194668Y158865D02*
Y158970D01*
X194806Y159108D01*
X232931Y146116D02*
Y151482D01*
X218306Y166108D02*
X232931Y151482D01*
X189806Y186108D02*
X195806Y192108D01*
X128883Y217594D02*
X137868Y208608D01*
X154648Y217594D02*
X161634Y210608D01*
X136757Y217594D02*
X154648D01*
X92306Y223108D02*
X108806Y206608D01*
X219823Y170090D02*
Y171590D01*
X233173Y166126D02*
X239230Y160068D01*
X227323Y166126D02*
X233173D01*
X219823Y170090D02*
X236081Y153833D01*
X219806Y171608D02*
X219823Y171590D01*
X236081Y146116D02*
Y153833D01*
X239230Y160068D02*
X246809Y167647D01*
X242343Y146153D02*
X242380Y146116D01*
X246809Y167647D02*
Y175281D01*
X241656Y219654D02*
X243916Y217395D01*
Y216108D02*
Y217395D01*
X241656Y219654D02*
Y230108D01*
X176054Y118360D02*
X176306Y118108D01*
X166856Y118360D02*
X176054D01*
X97066Y239655D02*
X246872D01*
X30127Y235573D02*
X210231D01*
X29541Y234987D02*
X30127Y235573D01*
X18023Y223108D02*
X20613Y225699D01*
X29541Y234626D02*
Y234987D01*
X20613Y225699D02*
Y225699D01*
X29541Y234626D01*
X210231Y235573D02*
X215695Y230108D01*
X201916D02*
X212546Y219478D01*
Y217490D02*
Y219478D01*
Y217490D02*
X213928Y216108D01*
X201424Y230108D02*
X201916D01*
X164306Y230045D02*
X164369Y230108D01*
X158806Y159608D02*
Y162108D01*
X153197Y183716D02*
X154806Y182108D01*
X103697Y183716D02*
X153197D01*
X128319Y186216D02*
Y194095D01*
X128306Y194108D02*
X128319Y194095D01*
X94306Y193108D02*
X103697Y183716D01*
X135895Y170340D02*
X142249Y163985D01*
Y146116D02*
Y163985D01*
X136806Y159108D02*
X139100Y156814D01*
Y146116D02*
Y156814D01*
X150306Y171608D02*
Y180608D01*
X145399Y166701D02*
X150306Y171608D01*
X142306Y194608D02*
X147614Y189299D01*
X148614D02*
X148806Y189108D01*
X147614Y189299D02*
X148614D01*
X145399Y146116D02*
Y166701D01*
X58806Y192608D02*
X83306D01*
X91806Y184108D01*
X86197Y181243D02*
X86832Y180608D01*
X106806D01*
X53171Y181243D02*
X86197D01*
X42306Y192108D02*
X53171Y181243D01*
X94306Y193108D02*
Y193164D01*
X147806Y136608D02*
X157997Y126416D01*
Y112651D02*
Y126416D01*
X153806Y137108D02*
X161147Y129766D01*
Y112651D02*
Y129766D01*
X151752Y152554D02*
X158806Y159608D01*
X142249Y105321D02*
Y112651D01*
Y105321D02*
X145962Y101608D01*
X153065Y100339D02*
X154148D01*
X145962Y101608D02*
X151796D01*
X153065Y100339D01*
X158601Y107313D02*
X163306Y102608D01*
X145399Y112651D02*
X145868Y112183D01*
Y108883D02*
Y112183D01*
Y108883D02*
X147438Y107313D01*
X158601D01*
X139360Y102553D02*
Y112391D01*
X126806Y109451D02*
Y114432D01*
X139360Y102553D02*
X139806Y102108D01*
X146149Y90108D02*
X159730D01*
X139100Y112651D02*
X139360Y112391D01*
X126806Y109451D02*
X146149Y90108D01*
X132145Y98480D02*
X140517Y90108D01*
X132019Y98480D02*
X132145D01*
X119073Y145481D02*
X125923Y138631D01*
X119073Y145481D02*
Y149167D01*
X128806Y134108D02*
X133391D01*
X125923Y136991D02*
X128806Y134108D01*
X125923Y136991D02*
Y138631D01*
X133391Y137258D02*
X133466Y137183D01*
X141731D02*
X141806Y137108D01*
X133466Y137183D02*
X141731D01*
X89998Y132544D02*
X90434Y132108D01*
X102806D01*
X89306Y141084D02*
X101806D01*
X126806Y114432D02*
X130734Y118360D01*
X124806Y105694D02*
X132019Y98480D01*
X133137Y124405D02*
X133391Y124659D01*
X119073Y110596D02*
Y114282D01*
X124806Y105694D02*
Y116224D01*
X129623Y121041D01*
X119073Y114282D02*
X129196Y124405D01*
X130734Y118360D02*
X133391D01*
X129196Y124405D02*
X133137D01*
X133391Y152006D02*
X133553Y152168D01*
X133391Y140407D02*
Y152006D01*
X154806Y176602D02*
Y182108D01*
Y176602D02*
X156127Y175281D01*
Y165087D02*
Y175281D01*
X82306Y145834D02*
X83080D01*
X314585Y217612D02*
X315806D01*
X313149Y216177D02*
X314585Y217612D01*
X234801Y175281D02*
Y176363D01*
X175946Y123872D02*
X180864D01*
X173584Y121510D02*
X175946Y123872D01*
X180864D02*
X180919Y123927D01*
X148549Y146116D02*
Y157508D01*
X156127Y165087D01*
X151752Y146169D02*
Y152554D01*
X151698Y146116D02*
X151752Y146169D01*
X208805Y121620D02*
X210282D01*
X206306Y84596D02*
X225687D01*
X231199Y90108D01*
X117392Y84596D02*
X122903Y90108D01*
X115915Y84596D02*
X117392D01*
X122903Y90108D02*
X140517D01*
X176817D02*
X182329Y84596D01*
X183806D01*
X159730Y90108D02*
X176817D01*
X217806Y114750D02*
X221415Y118360D01*
X224073D01*
X214806Y106501D02*
X231199Y90108D01*
X220578Y121041D02*
X221047Y121510D01*
X220305Y121041D02*
X220578D01*
X221047Y121510D02*
X224073D01*
X214806Y115542D02*
X220305Y121041D01*
X214806Y106501D02*
Y115542D01*
X129623Y121041D02*
X129896D01*
X130365Y121510D01*
X133391D01*
X19714Y172694D02*
X20577Y171830D01*
X17720Y172694D02*
X19714D01*
X20577Y106015D02*
X20624Y106062D01*
X56759D02*
X56806Y106108D01*
X120549Y121620D02*
X126738Y127809D01*
X263949Y121510D02*
X266311Y123872D01*
X257537Y121510D02*
X263949D01*
X212306Y148608D02*
X215806Y145108D01*
Y139076D02*
X220305Y134576D01*
X215806Y139076D02*
Y145108D01*
X209365Y148608D02*
X212306D01*
X208805Y149167D02*
X209365Y148608D01*
X220305Y134576D02*
X220578D01*
X221047Y134108D01*
X224073D01*
X210282Y138143D02*
X217467Y130958D01*
X208805Y138143D02*
X210282D01*
X217467Y130958D02*
X224073D01*
X220578Y124191D02*
X221047Y124659D01*
X220305Y124191D02*
X220578D01*
X211652Y115538D02*
X220305Y124191D01*
X211652Y111966D02*
Y115538D01*
X210282Y110596D02*
X211652Y111966D01*
X221047Y124659D02*
X224073D01*
X216471Y127809D02*
X224073D01*
X210282Y121620D02*
X216471Y127809D01*
X175450Y130958D02*
X179387Y134895D01*
X180864D01*
X166856Y130958D02*
X175450D01*
X166856Y121510D02*
X173584D01*
X119073Y121620D02*
X120549D01*
X126738Y127809D02*
X133391D01*
X120549Y138143D02*
X127734Y130958D01*
X133391D01*
X119073Y138143D02*
X120549D01*
D17*
X243916Y216108D02*
D03*
X254160D02*
D03*
X213928D02*
D03*
X203683D02*
D03*
D18*
X115915Y95620D02*
D03*
Y84596D02*
D03*
X183806Y95620D02*
D03*
Y84596D02*
D03*
X208805Y110596D02*
D03*
Y121620D02*
D03*
Y138143D02*
D03*
Y149167D02*
D03*
X206306Y95620D02*
D03*
Y84596D02*
D03*
X119073Y138143D02*
D03*
Y149167D02*
D03*
Y110596D02*
D03*
Y121620D02*
D03*
X180864Y123872D02*
D03*
Y134895D02*
D03*
X277306Y95620D02*
D03*
Y84596D02*
D03*
X272544Y123872D02*
D03*
Y134895D02*
D03*
D20*
X201424Y230108D02*
D03*
X216187D02*
D03*
X241656D02*
D03*
X256420D02*
D03*
D21*
X38023Y231612D02*
D03*
X92306D02*
D03*
X82306Y145834D02*
D03*
Y73830D02*
D03*
D22*
X48023Y223108D02*
D03*
X38023D02*
D03*
X28023D02*
D03*
X102306D02*
D03*
X92306D02*
D03*
X82306D02*
D03*
D23*
X18023D02*
D03*
X72306D02*
D03*
D26*
X318168Y75250D02*
D03*
Y85092D02*
D03*
Y94935D02*
D03*
Y104777D02*
D03*
Y114620D02*
D03*
X315806Y227454D02*
D03*
Y217612D02*
D03*
Y207769D02*
D03*
Y197927D02*
D03*
Y188084D02*
D03*
X105755Y27344D02*
D03*
X95913D02*
D03*
X86070D02*
D03*
X76228D02*
D03*
X66385D02*
D03*
X20430Y38368D02*
D03*
X20577Y86330D02*
D03*
Y96173D02*
D03*
Y106015D02*
D03*
X183912Y27344D02*
D03*
X174069D02*
D03*
X164227D02*
D03*
X154384D02*
D03*
X144542D02*
D03*
X236337Y28230D02*
D03*
X246179D02*
D03*
X256022D02*
D03*
X295136D02*
D03*
X304979D02*
D03*
X314821D02*
D03*
X20577Y161988D02*
D03*
Y171830D02*
D03*
Y181673D02*
D03*
D27*
X318168Y124462D02*
D03*
X315806Y178242D02*
D03*
X20430Y28525D02*
D03*
X20577Y76488D02*
D03*
Y152145D02*
D03*
D28*
X136757Y217594D02*
D03*
X128883Y230108D02*
D03*
X282489D02*
D03*
X172243D02*
D03*
D29*
X128883Y217594D02*
D03*
X136757Y230108D02*
D03*
X274615D02*
D03*
X164369D02*
D03*
D30*
X82306Y185204D02*
D03*
Y113200D02*
D03*
D32*
X56543Y27344D02*
D03*
X134699D02*
D03*
X226494Y28230D02*
D03*
X285294D02*
D03*
D37*
X229781Y146116D02*
D03*
X232931D02*
D03*
X236081D02*
D03*
X239230D02*
D03*
X242380D02*
D03*
X245529D02*
D03*
X248679D02*
D03*
X251829D02*
D03*
Y112651D02*
D03*
X248679D02*
D03*
X245529D02*
D03*
X242380D02*
D03*
X239230D02*
D03*
X236081D02*
D03*
X232931D02*
D03*
X229781D02*
D03*
X139100Y146116D02*
D03*
X142249D02*
D03*
X145399D02*
D03*
X148549D02*
D03*
X151698D02*
D03*
X154848D02*
D03*
X157997D02*
D03*
X161147D02*
D03*
Y112651D02*
D03*
X157997D02*
D03*
X154848D02*
D03*
X151698D02*
D03*
X148549D02*
D03*
X145399D02*
D03*
X142249D02*
D03*
X139100D02*
D03*
D38*
X257537Y140407D02*
D03*
Y137258D02*
D03*
Y134108D02*
D03*
Y130958D02*
D03*
Y127809D02*
D03*
Y124659D02*
D03*
Y121510D02*
D03*
Y118360D02*
D03*
X224073D02*
D03*
Y121510D02*
D03*
Y124659D02*
D03*
Y127809D02*
D03*
Y130958D02*
D03*
Y134108D02*
D03*
Y137258D02*
D03*
Y140407D02*
D03*
X166856D02*
D03*
Y137258D02*
D03*
Y134108D02*
D03*
Y130958D02*
D03*
Y127809D02*
D03*
Y124659D02*
D03*
Y121510D02*
D03*
Y118360D02*
D03*
X133391D02*
D03*
Y121510D02*
D03*
Y124659D02*
D03*
Y127809D02*
D03*
Y130958D02*
D03*
Y134108D02*
D03*
Y137258D02*
D03*
Y140407D02*
D03*
D39*
X156127Y175281D02*
D03*
X144120D02*
D03*
X246809D02*
D03*
X234801D02*
D03*
D40*
X315806Y227454D02*
X325806Y217454D01*
Y198084D02*
Y217454D01*
X315806Y188084D02*
X325806Y198084D01*
X306540Y114620D02*
X318168D01*
X295824Y125336D02*
X306540Y114620D01*
X259760Y184154D02*
X295824Y148090D01*
X277576Y123872D02*
X294359D01*
X295824Y125336D02*
Y148090D01*
X294359Y123872D02*
X295824Y125336D01*
X234801Y176363D02*
X263046Y204608D01*
X201478Y175281D02*
X234801D01*
X193806Y167608D02*
X201478Y175281D01*
X190306Y167608D02*
X193806D01*
X190306Y126608D02*
Y167608D01*
X191306Y150608D02*
X203528Y138386D01*
X188306Y124608D02*
X190306Y126608D01*
X155806Y202108D02*
X190306Y167608D01*
X25806Y202108D02*
X155806D01*
X10306Y186608D02*
X25806Y202108D01*
X82306Y131108D02*
Y145834D01*
Y131108D02*
X102817Y110596D01*
X119073D01*
X187624Y123927D02*
X188306Y124608D01*
X208805Y110596D02*
X210282D01*
X202317D02*
X208805D01*
X243674Y184154D02*
X259760D01*
X263046Y204608D02*
X274615Y216177D01*
X263046Y204608D02*
X301581D01*
X313149Y216177D01*
X274615D02*
Y230108D01*
X188306Y124608D02*
X202317Y110596D01*
X180919Y123927D02*
X187624D01*
X208563Y138386D02*
X208805Y138143D01*
X203528Y138386D02*
X208563D01*
X10306Y116287D02*
Y186608D01*
Y116287D02*
X20577Y106015D01*
X130633Y175281D02*
X144120D01*
X109806Y145834D02*
Y154453D01*
X130633Y175281D01*
X109806Y145834D02*
X111382D01*
X83080D02*
X109806D01*
X204209Y96240D02*
X205656D01*
X206276Y95620D01*
X183806D02*
X204829D01*
X111382Y145834D02*
X119073Y138143D01*
X52220Y162445D02*
X68831Y145834D01*
X39806Y162445D02*
X52220D01*
X68831Y145834D02*
X82306D01*
X20624Y106062D02*
X39806Y125244D01*
X20577Y181673D02*
X39806Y162445D01*
Y125244D02*
Y162445D01*
X48306Y97608D02*
X56759Y106062D01*
X20624D02*
X56759D01*
X56806Y116108D02*
X71806Y101108D01*
Y42607D02*
Y101108D01*
X48306Y53108D02*
Y97608D01*
X54806Y150506D02*
Y151108D01*
X56806Y116108D02*
Y148506D01*
X54806Y150506D02*
X56806Y148506D01*
X56543Y27344D02*
X71806Y42607D01*
X56543Y27344D02*
X68779Y15108D01*
X122463D01*
X134699Y27344D01*
X21020Y27935D02*
X55952D01*
X20430Y28525D02*
X21020Y27935D01*
X55952D02*
X56543Y27344D01*
D41*
X108317Y121620D02*
X119073D01*
X107949Y99975D02*
X111560D01*
X115915Y95620D01*
D42*
X161499Y182008D02*
X162906D01*
X146242Y197264D02*
X161499Y182008D01*
X162906Y160208D02*
Y182008D01*
X27462Y197264D02*
X146242D01*
X148819Y194122D02*
Y194687D01*
X154848Y152150D02*
X162906Y160208D01*
X14306Y184108D02*
X27462Y197264D01*
X14306Y176108D02*
Y184108D01*
Y176108D02*
X17720Y172694D01*
X154848Y146116D02*
Y152150D01*
D43*
X250411Y90108D02*
D03*
X159730D02*
D03*
D44*
X231199D02*
D03*
X140517D02*
D03*
D45*
X54806Y151108D02*
D03*
Y176108D02*
D03*
X48306Y53108D02*
D03*
X58306D02*
D03*
D46*
X56806Y96108D02*
D03*
D47*
Y106108D02*
D03*
Y116108D02*
D03*
D48*
X9306Y249108D02*
D03*
Y8608D02*
D03*
X339306Y14608D02*
D03*
Y249108D02*
D03*
D49*
X281806Y114108D02*
D03*
X278306Y118108D02*
D03*
X236806Y104608D02*
D03*
X232737Y104540D02*
D03*
X127806Y145608D02*
D03*
X253806Y223108D02*
D03*
X225806Y182108D02*
D03*
X201306Y192108D02*
D03*
X194306Y208608D02*
D03*
X198806Y184108D02*
D03*
X174344Y141826D02*
D03*
X207306Y102108D02*
D03*
X218806Y152608D02*
D03*
X202306Y126108D02*
D03*
X264968Y137741D02*
D03*
X279459Y98786D02*
D03*
X107806Y121108D02*
D03*
X107949Y99975D02*
D03*
X277306Y66108D02*
D03*
X262306Y94608D02*
D03*
X265799Y68696D02*
D03*
X257806Y93108D02*
D03*
X252306Y67608D02*
D03*
X240495Y67470D02*
D03*
X230240Y72598D02*
D03*
X225306Y76608D02*
D03*
X238489Y136249D02*
D03*
X248806Y134758D02*
D03*
X235306Y139108D02*
D03*
X266306Y151108D02*
D03*
X299806Y145108D02*
D03*
X310680Y143169D02*
D03*
X273306Y107608D02*
D03*
X302806Y92435D02*
D03*
X298586Y87782D02*
D03*
X268306Y143108D02*
D03*
X220306Y144608D02*
D03*
X238306Y124608D02*
D03*
X237306Y131108D02*
D03*
X280987Y127122D02*
D03*
X262306Y163108D02*
D03*
X245628Y191786D02*
D03*
X243306Y154108D02*
D03*
X245806Y127608D02*
D03*
X302675Y149373D02*
D03*
X188806Y189608D02*
D03*
X203770Y166108D02*
D03*
X204306Y158608D02*
D03*
X191806Y184108D02*
D03*
X179920Y198686D02*
D03*
X148819Y194122D02*
D03*
X227323Y166126D02*
D03*
X219806Y171608D02*
D03*
X242306Y159608D02*
D03*
X160806Y157608D02*
D03*
X194668Y158865D02*
D03*
X176306Y118108D02*
D03*
X97066Y239655D02*
D03*
X128319Y186216D02*
D03*
X128306Y194108D02*
D03*
X135895Y170340D02*
D03*
X150306Y180608D02*
D03*
X148806Y189108D02*
D03*
X142306Y194608D02*
D03*
X58806Y192608D02*
D03*
X91806Y184108D02*
D03*
X136806Y159108D02*
D03*
X106806Y180608D02*
D03*
X94306Y193164D02*
D03*
X147806Y136608D02*
D03*
X42306Y192108D02*
D03*
X153806Y137108D02*
D03*
X154148Y100339D02*
D03*
X163306Y102608D02*
D03*
X139806Y102108D02*
D03*
X141806Y137108D02*
D03*
X89998Y132544D02*
D03*
X102806Y132108D02*
D03*
X89306Y141084D02*
D03*
X101806D02*
D03*
X133553Y152168D02*
D03*
X158806Y162108D02*
D03*
M02*
