G04*
G04 #@! TF.GenerationSoftware,Altium Limited,Altium Designer,22.1.2 (22)*
G04*
G04 Layer_Physical_Order=1*
G04 Layer_Color=255*
%FSLAX25Y25*%
%MOIN*%
G70*
G04*
G04 #@! TF.SameCoordinates,E16E6B7E-0D5A-4F64-8BAA-C1CDB9B7C18E*
G04*
G04*
G04 #@! TF.FilePolarity,Positive*
G04*
G01*
G75*
%ADD14C,0.01000*%
%ADD17R,0.03764X0.06338*%
%ADD18R,0.06693X0.03740*%
%ADD20R,0.06890X0.05906*%
%ADD21C,0.04921*%
%ADD22C,0.06181*%
%ADD23R,0.06181X0.06181*%
%ADD26C,0.05512*%
%ADD27R,0.05512X0.05512*%
%ADD28C,0.05118*%
%ADD29R,0.05118X0.05118*%
%ADD30R,0.04921X0.04921*%
%ADD32R,0.05512X0.05512*%
%ADD36O,0.02362X0.07677*%
%ADD37O,0.07677X0.02362*%
%ADD38R,0.04921X0.07087*%
%ADD39C,0.02500*%
%ADD40C,0.02000*%
%ADD41C,0.01200*%
%ADD42R,0.04547X0.04547*%
%ADD43C,0.04547*%
%ADD44C,0.04724*%
%ADD45R,0.06299X0.06299*%
%ADD46C,0.06299*%
%ADD47C,0.15000*%
%ADD48C,0.02000*%
G36*
X97823Y240317D02*
X97873Y240283D01*
X97930Y240253D01*
X97994Y240227D01*
X98066Y240205D01*
X98145Y240187D01*
X98231Y240173D01*
X98324Y240163D01*
X98532Y240155D01*
Y239155D01*
X98424Y239153D01*
X98231Y239137D01*
X98145Y239123D01*
X98066Y239105D01*
X97994Y239083D01*
X97930Y239057D01*
X97873Y239027D01*
X97823Y238993D01*
X97780Y238955D01*
Y240355D01*
X97823Y240317D01*
D02*
G37*
G36*
X253662Y233580D02*
X254000Y233298D01*
X254155Y233193D01*
X254301Y233110D01*
X254438Y233051D01*
X254566Y233016D01*
X254684Y233003D01*
X254793Y233014D01*
X254893Y233049D01*
X252987Y232127D01*
X253066Y232182D01*
X253111Y232257D01*
X253123Y232351D01*
X253102Y232464D01*
X253048Y232595D01*
X252961Y232746D01*
X252840Y232916D01*
X252687Y233105D01*
X252280Y233541D01*
X253479Y233756D01*
X253662Y233580D01*
D02*
G37*
G36*
X212960Y233558D02*
X213327Y233247D01*
X213490Y233134D01*
X213638Y233049D01*
X213773Y232992D01*
X213893Y232964D01*
X213999D01*
X214091Y232992D01*
X214169Y233049D01*
X212755Y231634D01*
X212811Y231712D01*
X212839Y231804D01*
Y231910D01*
X212811Y232031D01*
X212755Y232165D01*
X212670Y232313D01*
X212557Y232476D01*
X212415Y232653D01*
X212048Y233049D01*
X212755Y233756D01*
X212960Y233558D01*
D02*
G37*
G36*
X165211Y227551D02*
X165126Y227521D01*
X165051Y227471D01*
X164986Y227401D01*
X164931Y227311D01*
X164886Y227201D01*
X164851Y227071D01*
X164826Y226921D01*
X164811Y226751D01*
X164806Y226561D01*
X163806D01*
X163801Y226751D01*
X163786Y226921D01*
X163761Y227071D01*
X163726Y227201D01*
X163681Y227311D01*
X163626Y227401D01*
X163561Y227471D01*
X163486Y227521D01*
X163401Y227551D01*
X163306Y227561D01*
X165306D01*
X165211Y227551D01*
D02*
G37*
G36*
X204789Y228505D02*
X204762Y228414D01*
X204763Y228308D01*
X204793Y228188D01*
X204851Y228054D01*
X204937Y227906D01*
X205051Y227743D01*
X205194Y227565D01*
X205564Y227167D01*
X204857Y226460D01*
X204650Y226659D01*
X204281Y226973D01*
X204118Y227087D01*
X203970Y227173D01*
X203835Y227231D01*
X203716Y227260D01*
X203610Y227262D01*
X203519Y227235D01*
X203442Y227179D01*
X204844Y228582D01*
X204789Y228505D01*
D02*
G37*
G36*
X258447Y227169D02*
X258362Y227139D01*
X258287Y227088D01*
X258222Y227017D01*
X258167Y226926D01*
X258122Y226815D01*
X258087Y226683D01*
X258062Y226532D01*
X258047Y226360D01*
X258042Y226167D01*
X257042D01*
X257037Y226360D01*
X257022Y226532D01*
X256997Y226683D01*
X256962Y226815D01*
X256917Y226926D01*
X256862Y227017D01*
X256797Y227088D01*
X256722Y227139D01*
X256637Y227169D01*
X256542Y227179D01*
X258542D01*
X258447Y227169D01*
D02*
G37*
G36*
X242561D02*
X242476Y227139D01*
X242401Y227088D01*
X242336Y227017D01*
X242281Y226926D01*
X242236Y226815D01*
X242201Y226683D01*
X242176Y226532D01*
X242161Y226360D01*
X242156Y226167D01*
X241156D01*
X241151Y226360D01*
X241136Y226532D01*
X241111Y226683D01*
X241076Y226815D01*
X241031Y226926D01*
X240976Y227017D01*
X240911Y227088D01*
X240836Y227139D01*
X240751Y227169D01*
X240656Y227179D01*
X242656D01*
X242561Y227169D01*
D02*
G37*
G36*
X218215D02*
X218130Y227139D01*
X218055Y227088D01*
X217990Y227017D01*
X217935Y226926D01*
X217890Y226815D01*
X217855Y226683D01*
X217830Y226532D01*
X217815Y226360D01*
X217810Y226167D01*
X216810D01*
X216805Y226360D01*
X216790Y226532D01*
X216765Y226683D01*
X216730Y226815D01*
X216685Y226926D01*
X216630Y227017D01*
X216565Y227088D01*
X216490Y227139D01*
X216405Y227169D01*
X216310Y227179D01*
X218310D01*
X218215Y227169D01*
D02*
G37*
G36*
X21809Y226187D02*
X21609Y225980D01*
X21296Y225611D01*
X21181Y225448D01*
X21095Y225300D01*
X21038Y225166D01*
X21008Y225046D01*
X21007Y224940D01*
X21034Y224849D01*
X21089Y224772D01*
X19687Y226175D01*
X19764Y226119D01*
X19855Y226092D01*
X19961Y226093D01*
X20080Y226123D01*
X20215Y226181D01*
X20363Y226267D01*
X20526Y226381D01*
X20704Y226524D01*
X21101Y226894D01*
X21809Y226187D01*
D02*
G37*
G36*
X276877Y227536D02*
X276665Y227461D01*
X276477Y227336D01*
X276315Y227161D01*
X276177Y226936D01*
X276065Y226661D01*
X275977Y226336D01*
X275915Y225961D01*
X275877Y225536D01*
X275865Y225061D01*
X273365D01*
X273352Y225536D01*
X273315Y225961D01*
X273252Y226336D01*
X273165Y226661D01*
X273052Y226936D01*
X272915Y227161D01*
X272752Y227336D01*
X272565Y227461D01*
X272352Y227536D01*
X272115Y227561D01*
X277115D01*
X276877Y227536D01*
D02*
G37*
G36*
X318570Y227236D02*
X318600Y227043D01*
X318650Y226848D01*
X318722Y226651D01*
X318815Y226453D01*
X318929Y226252D01*
X319064Y226050D01*
X319220Y225846D01*
X319397Y225640D01*
X319595Y225432D01*
X317828Y223665D01*
X317620Y223863D01*
X317210Y224196D01*
X317008Y224331D01*
X316807Y224445D01*
X316609Y224538D01*
X316412Y224610D01*
X316217Y224660D01*
X316024Y224690D01*
X315833Y224699D01*
X318561Y227427D01*
X318570Y227236D01*
D02*
G37*
G36*
X254703Y222661D02*
X254694Y222624D01*
X254686Y222577D01*
X254674Y222456D01*
X254662Y222204D01*
X254660Y221989D01*
X253660Y221519D01*
X253658Y221626D01*
X253650Y221725D01*
X253637Y221815D01*
X253619Y221896D01*
X253596Y221968D01*
X253568Y222030D01*
X253535Y222084D01*
X253497Y222129D01*
X253453Y222165D01*
X253404Y222192D01*
X254713Y222689D01*
X254703Y222661D01*
D02*
G37*
G36*
X95399Y222627D02*
X95452Y221821D01*
X95502Y221466D01*
X95567Y221142D01*
X95648Y220849D01*
X95744Y220588D01*
X95856Y220358D01*
X95984Y220160D01*
X96127Y219994D01*
X95420Y219287D01*
X95253Y219430D01*
X95055Y219557D01*
X94826Y219669D01*
X94564Y219766D01*
X94272Y219847D01*
X93948Y219912D01*
X93592Y219962D01*
X92787Y220015D01*
X92336Y220018D01*
X95396Y223077D01*
X95399Y222627D01*
D02*
G37*
G36*
X254665Y220075D02*
X254680Y219905D01*
X254705Y219755D01*
X254740Y219625D01*
X254785Y219515D01*
X254840Y219425D01*
X254905Y219355D01*
X254980Y219305D01*
X255065Y219275D01*
X255160Y219265D01*
X253160D01*
X253255Y219275D01*
X253340Y219305D01*
X253415Y219355D01*
X253480Y219425D01*
X253535Y219515D01*
X253580Y219625D01*
X253615Y219755D01*
X253640Y219905D01*
X253655Y220075D01*
X253660Y220265D01*
X254660D01*
X254665Y220075D01*
D02*
G37*
G36*
X242825Y219265D02*
X242045Y218486D01*
X242045Y218500D01*
X242029Y218529D01*
X241997Y218571D01*
X241950Y218628D01*
X241604Y218996D01*
X241338Y219265D01*
X242045Y219972D01*
X242825Y219265D01*
D02*
G37*
G36*
X314938Y217258D02*
X314855Y217168D01*
X314777Y217069D01*
X314706Y216963D01*
X314642Y216849D01*
X314584Y216727D01*
X314532Y216597D01*
X314486Y216460D01*
X314447Y216314D01*
X314387Y216000D01*
X312973Y217414D01*
X313134Y217441D01*
X313433Y217513D01*
X313570Y217559D01*
X313700Y217611D01*
X313822Y217669D01*
X313936Y217734D01*
X314042Y217805D01*
X314141Y217882D01*
X314231Y217966D01*
X314938Y217258D01*
D02*
G37*
G36*
X138834Y219140D02*
X139315Y218727D01*
X139547Y218559D01*
X139771Y218417D01*
X139990Y218301D01*
X140202Y218210D01*
X140409Y218145D01*
X140608Y218107D01*
X140802Y218094D01*
Y217094D01*
X140608Y217081D01*
X140409Y217042D01*
X140202Y216978D01*
X139990Y216887D01*
X139771Y216771D01*
X139547Y216629D01*
X139315Y216461D01*
X139078Y216267D01*
X138584Y215803D01*
Y219385D01*
X138834Y219140D01*
D02*
G37*
G36*
X131373Y216383D02*
X131345Y216291D01*
Y216185D01*
X131373Y216065D01*
X131430Y215931D01*
X131515Y215782D01*
X131628Y215620D01*
X131769Y215443D01*
X132137Y215047D01*
X131430Y214340D01*
X131225Y214538D01*
X130857Y214849D01*
X130694Y214962D01*
X130546Y215047D01*
X130411Y215103D01*
X130291Y215132D01*
X130185D01*
X130093Y215103D01*
X130015Y215047D01*
X131430Y216461D01*
X131373Y216383D01*
D02*
G37*
G36*
X195696Y209291D02*
X195621Y209214D01*
X195496Y209065D01*
X195445Y208995D01*
X195402Y208926D01*
X195367Y208860D01*
X195340Y208796D01*
X195320Y208734D01*
X195309Y208675D01*
X195306Y208618D01*
X194316Y209608D01*
X194373Y209611D01*
X194432Y209623D01*
X194494Y209642D01*
X194558Y209669D01*
X194624Y209704D01*
X194692Y209747D01*
X194763Y209798D01*
X194836Y209857D01*
X194989Y209998D01*
X195696Y209291D01*
D02*
G37*
G36*
X267520Y207290D02*
X267295Y206989D01*
X267155Y206724D01*
X267100Y206494D01*
X267130Y206300D01*
X267247Y206141D01*
X267448Y206017D01*
X267734Y205929D01*
X268106Y205876D01*
X268564Y205858D01*
X266064Y203358D01*
X265571Y203340D01*
X265093Y203287D01*
X264630Y203199D01*
X264181Y203075D01*
X263747Y202916D01*
X263327Y202722D01*
X262922Y202492D01*
X262532Y202227D01*
X262157Y201926D01*
X261796Y201590D01*
X263046Y204608D01*
X267831Y207626D01*
X267520Y207290D01*
D02*
G37*
G36*
X180916Y198550D02*
X180924Y198490D01*
X180940Y198427D01*
X180965Y198363D01*
X180998Y198296D01*
X181039Y198227D01*
X181089Y198156D01*
X181146Y198083D01*
X181287Y197930D01*
X180524Y197278D01*
X180447Y197353D01*
X180299Y197481D01*
X180229Y197533D01*
X180161Y197578D01*
X180096Y197615D01*
X180034Y197645D01*
X179974Y197667D01*
X179917Y197681D01*
X179861Y197688D01*
X180917Y198608D01*
X180916Y198550D01*
D02*
G37*
G36*
X149207Y195043D02*
X149213Y194516D01*
X147907Y194531D01*
X147916Y194564D01*
X147915Y194602D01*
X147904Y194646D01*
X147884Y194695D01*
X147854Y194749D01*
X147815Y194808D01*
X147639Y195017D01*
X147561Y195097D01*
X148454Y195901D01*
X149207Y195043D01*
D02*
G37*
G36*
X315778Y195171D02*
X315391Y195168D01*
X314694Y195118D01*
X314385Y195071D01*
X314101Y195010D01*
X313844Y194935D01*
X313612Y194845D01*
X313407Y194740D01*
X313227Y194621D01*
X313073Y194488D01*
X312366Y195195D01*
X312500Y195349D01*
X312619Y195528D01*
X312723Y195734D01*
X312813Y195965D01*
X312889Y196223D01*
X312950Y196506D01*
X312997Y196816D01*
X313029Y197151D01*
X313050Y197899D01*
X315778Y195171D01*
D02*
G37*
G36*
X143309Y194541D02*
X143320Y194482D01*
X143340Y194420D01*
X143367Y194356D01*
X143402Y194290D01*
X143445Y194221D01*
X143496Y194151D01*
X143554Y194078D01*
X143696Y193925D01*
X142989Y193218D01*
X142911Y193292D01*
X142763Y193418D01*
X142692Y193469D01*
X142624Y193512D01*
X142558Y193547D01*
X142494Y193574D01*
X142432Y193593D01*
X142373Y193605D01*
X142316Y193608D01*
X143306Y194598D01*
X143309Y194541D01*
D02*
G37*
G36*
X149741Y194510D02*
X150599Y193756D01*
X149795Y192863D01*
X149715Y192941D01*
X149505Y193117D01*
X149446Y193157D01*
X149392Y193187D01*
X149343Y193207D01*
X149300Y193217D01*
X149261Y193218D01*
X149228Y193209D01*
X149213Y194516D01*
X149741Y194510D01*
D02*
G37*
G36*
X128978Y193360D02*
X128944Y193310D01*
X128915Y193252D01*
X128889Y193188D01*
X128868Y193116D01*
X128850Y193037D01*
X128836Y192951D01*
X128826Y192858D01*
X128819Y192650D01*
X127819Y192635D01*
X127816Y192742D01*
X127800Y192936D01*
X127786Y193021D01*
X127768Y193100D01*
X127745Y193171D01*
X127719Y193236D01*
X127688Y193293D01*
X127654Y193342D01*
X127615Y193385D01*
X129015Y193403D01*
X128978Y193360D01*
D02*
G37*
G36*
X246130Y193144D02*
X246146Y192951D01*
X246160Y192865D01*
X246178Y192786D01*
X246200Y192715D01*
X246226Y192650D01*
X246256Y192593D01*
X246290Y192543D01*
X246328Y192500D01*
X244928Y192500D01*
X244966Y192543D01*
X245000Y192593D01*
X245030Y192650D01*
X245056Y192715D01*
X245078Y192786D01*
X245096Y192865D01*
X245110Y192951D01*
X245120Y193044D01*
X245128Y193252D01*
X246128Y193252D01*
X246130Y193144D01*
D02*
G37*
G36*
X59562Y193270D02*
X59613Y193236D01*
X59670Y193206D01*
X59734Y193180D01*
X59806Y193158D01*
X59885Y193140D01*
X59970Y193126D01*
X60064Y193116D01*
X60272Y193108D01*
Y192108D01*
X60164Y192106D01*
X59970Y192090D01*
X59885Y192076D01*
X59806Y192058D01*
X59734Y192036D01*
X59670Y192010D01*
X59613Y191980D01*
X59562Y191946D01*
X59520Y191908D01*
Y193308D01*
X59562Y193270D01*
D02*
G37*
G36*
X95306Y193057D02*
X95315Y192997D01*
X95332Y192934D01*
X95358Y192870D01*
X95392Y192803D01*
X95434Y192735D01*
X95484Y192664D01*
X95542Y192590D01*
X95683Y192438D01*
X94943Y191763D01*
X94866Y191838D01*
X94718Y191964D01*
X94648Y192016D01*
X94580Y192060D01*
X94514Y192097D01*
X94451Y192125D01*
X94390Y192146D01*
X94332Y192159D01*
X94276Y192165D01*
X95304Y193114D01*
X95306Y193057D01*
D02*
G37*
G36*
X200591Y191408D02*
X200549Y191446D01*
X200499Y191480D01*
X200441Y191510D01*
X200377Y191536D01*
X200305Y191558D01*
X200227Y191576D01*
X200141Y191590D01*
X200047Y191600D01*
X199839Y191608D01*
Y192608D01*
X199947Y192610D01*
X200141Y192626D01*
X200227Y192640D01*
X200305Y192658D01*
X200377Y192680D01*
X200441Y192706D01*
X200499Y192736D01*
X200549Y192770D01*
X200591Y192808D01*
Y191408D01*
D02*
G37*
G36*
X43309Y192041D02*
X43320Y191981D01*
X43339Y191920D01*
X43367Y191856D01*
X43402Y191790D01*
X43445Y191721D01*
X43496Y191651D01*
X43554Y191578D01*
X43696Y191425D01*
X42989Y190718D01*
X42911Y190793D01*
X42763Y190918D01*
X42692Y190969D01*
X42624Y191012D01*
X42558Y191047D01*
X42494Y191074D01*
X42432Y191093D01*
X42373Y191105D01*
X42316Y191108D01*
X43306Y192098D01*
X43309Y192041D01*
D02*
G37*
G36*
X188278Y190941D02*
X188426Y190814D01*
X188496Y190761D01*
X188564Y190717D01*
X188629Y190679D01*
X188691Y190650D01*
X188751Y190628D01*
X188809Y190613D01*
X188864Y190606D01*
X187809Y189686D01*
X187809Y189744D01*
X187801Y189805D01*
X187785Y189867D01*
X187760Y189932D01*
X187727Y189998D01*
X187686Y190067D01*
X187636Y190138D01*
X187579Y190212D01*
X187438Y190365D01*
X188201Y191016D01*
X188278Y190941D01*
D02*
G37*
G36*
X319595Y190106D02*
X319397Y189899D01*
X319064Y189489D01*
X318929Y189286D01*
X318815Y189086D01*
X318722Y188888D01*
X318650Y188691D01*
X318600Y188496D01*
X318570Y188303D01*
X318561Y188112D01*
X315833Y190840D01*
X316024Y190849D01*
X316217Y190878D01*
X316412Y190929D01*
X316609Y191001D01*
X316807Y191094D01*
X317008Y191208D01*
X317210Y191343D01*
X317414Y191499D01*
X317620Y191676D01*
X317828Y191874D01*
X319595Y190106D01*
D02*
G37*
G36*
X128821Y187575D02*
X128837Y187381D01*
X128850Y187295D01*
X128869Y187217D01*
X128891Y187145D01*
X128917Y187081D01*
X128947Y187023D01*
X128981Y186974D01*
X129019Y186931D01*
X127619D01*
X127656Y186974D01*
X127691Y187023D01*
X127721Y187081D01*
X127747Y187145D01*
X127769Y187217D01*
X127787Y187295D01*
X127801Y187381D01*
X127811Y187475D01*
X127819Y187683D01*
X128819D01*
X128821Y187575D01*
D02*
G37*
G36*
X200196Y184791D02*
X200121Y184714D01*
X199996Y184565D01*
X199945Y184495D01*
X199902Y184426D01*
X199867Y184360D01*
X199839Y184296D01*
X199820Y184234D01*
X199809Y184175D01*
X199805Y184118D01*
X198816Y185108D01*
X198873Y185111D01*
X198932Y185123D01*
X198994Y185142D01*
X199058Y185169D01*
X199124Y185204D01*
X199192Y185247D01*
X199263Y185298D01*
X199336Y185357D01*
X199489Y185498D01*
X200196Y184791D01*
D02*
G37*
G36*
X91200Y185424D02*
X91348Y185298D01*
X91419Y185247D01*
X91487Y185204D01*
X91553Y185169D01*
X91617Y185142D01*
X91679Y185123D01*
X91738Y185111D01*
X91796Y185108D01*
X90806Y184118D01*
X90802Y184175D01*
X90791Y184234D01*
X90772Y184296D01*
X90745Y184360D01*
X90710Y184426D01*
X90667Y184495D01*
X90616Y184565D01*
X90557Y184638D01*
X90415Y184791D01*
X91123Y185498D01*
X91200Y185424D01*
D02*
G37*
G36*
X191091Y183408D02*
X191049Y183446D01*
X190999Y183480D01*
X190941Y183510D01*
X190877Y183536D01*
X190805Y183558D01*
X190727Y183576D01*
X190641Y183590D01*
X190548Y183600D01*
X190340Y183608D01*
Y184608D01*
X190447Y184610D01*
X190641Y184626D01*
X190727Y184640D01*
X190805Y184658D01*
X190877Y184680D01*
X190941Y184706D01*
X190999Y184736D01*
X191049Y184770D01*
X191091Y184808D01*
Y183408D01*
D02*
G37*
G36*
X225494Y181158D02*
X224340Y181108D01*
X224206Y182108D01*
X224314Y182111D01*
X224412Y182118D01*
X224501Y182130D01*
X224579Y182148D01*
X224647Y182170D01*
X224705Y182198D01*
X224753Y182230D01*
X224791Y182267D01*
X224819Y182310D01*
X224837Y182357D01*
X225494Y181158D01*
D02*
G37*
G36*
X106091Y179908D02*
X106049Y179946D01*
X105999Y179980D01*
X105941Y180010D01*
X105877Y180036D01*
X105805Y180058D01*
X105727Y180076D01*
X105641Y180090D01*
X105547Y180100D01*
X105340Y180108D01*
Y181108D01*
X105447Y181110D01*
X105641Y181126D01*
X105727Y181140D01*
X105805Y181158D01*
X105877Y181180D01*
X105941Y181206D01*
X105999Y181236D01*
X106049Y181270D01*
X106091Y181308D01*
Y179908D01*
D02*
G37*
G36*
X150968Y179851D02*
X150934Y179801D01*
X150904Y179744D01*
X150878Y179680D01*
X150856Y179608D01*
X150838Y179529D01*
X150824Y179443D01*
X150814Y179350D01*
X150806Y179142D01*
X149806D01*
X149804Y179250D01*
X149788Y179443D01*
X149774Y179529D01*
X149756Y179608D01*
X149734Y179680D01*
X149708Y179744D01*
X149678Y179801D01*
X149644Y179851D01*
X149606Y179894D01*
X151006D01*
X150968Y179851D01*
D02*
G37*
G36*
X155311Y179620D02*
X155326Y179448D01*
X155351Y179296D01*
X155386Y179164D01*
X155431Y179053D01*
X155486Y178962D01*
X155551Y178891D01*
X155626Y178840D01*
X155711Y178810D01*
X155806Y178800D01*
X153806D01*
X153901Y178810D01*
X153986Y178840D01*
X154061Y178891D01*
X154126Y178962D01*
X154181Y179053D01*
X154226Y179164D01*
X154261Y179296D01*
X154286Y179448D01*
X154301Y179620D01*
X154306Y179812D01*
X155306D01*
X155311Y179620D01*
D02*
G37*
G36*
X239018Y178812D02*
X238521Y178298D01*
X237741Y177377D01*
X237457Y176971D01*
X237244Y176599D01*
X237101Y176263D01*
X237029Y175963D01*
X237028Y175699D01*
X237098Y175470D01*
X237238Y175276D01*
X233714Y178800D01*
X233908Y178660D01*
X234137Y178590D01*
X234401Y178591D01*
X234701Y178663D01*
X235037Y178806D01*
X235408Y179019D01*
X235815Y179303D01*
X236258Y179658D01*
X237250Y180580D01*
X239018Y178812D01*
D02*
G37*
G36*
X23342Y181454D02*
X23371Y181261D01*
X23422Y181066D01*
X23494Y180870D01*
X23587Y180671D01*
X23701Y180471D01*
X23836Y180269D01*
X23992Y180065D01*
X24169Y179859D01*
X24367Y179651D01*
X22599Y177883D01*
X22391Y178081D01*
X21982Y178414D01*
X21779Y178549D01*
X21579Y178663D01*
X21380Y178756D01*
X21184Y178828D01*
X20989Y178879D01*
X20796Y178909D01*
X20605Y178917D01*
X23333Y181645D01*
X23342Y181454D01*
D02*
G37*
G36*
X232352Y172781D02*
X232328Y173018D01*
X232253Y173231D01*
X232127Y173418D01*
X231953Y173581D01*
X231728Y173718D01*
X231452Y173831D01*
X231128Y173918D01*
X230752Y173981D01*
X230328Y174018D01*
X229853Y174031D01*
Y176531D01*
X230328Y176543D01*
X230752Y176581D01*
X231128Y176643D01*
X231452Y176731D01*
X231728Y176843D01*
X231953Y176981D01*
X232127Y177143D01*
X232253Y177331D01*
X232328Y177543D01*
X232352Y177781D01*
Y172781D01*
D02*
G37*
G36*
X141671D02*
X141646Y173018D01*
X141571Y173231D01*
X141446Y173418D01*
X141271Y173581D01*
X141046Y173718D01*
X140771Y173831D01*
X140446Y173918D01*
X140071Y173981D01*
X139646Y174018D01*
X139171Y174031D01*
Y176531D01*
X139646Y176543D01*
X140071Y176581D01*
X140446Y176643D01*
X140771Y176731D01*
X141046Y176843D01*
X141271Y176981D01*
X141446Y177143D01*
X141571Y177331D01*
X141646Y177543D01*
X141671Y177781D01*
Y172781D01*
D02*
G37*
G36*
X247714Y171751D02*
X247629Y171721D01*
X247554Y171670D01*
X247489Y171599D01*
X247434Y171508D01*
X247389Y171397D01*
X247354Y171265D01*
X247329Y171114D01*
X247314Y170942D01*
X247309Y170749D01*
X246309D01*
X246304Y170942D01*
X246289Y171114D01*
X246264Y171265D01*
X246229Y171397D01*
X246184Y171508D01*
X246129Y171599D01*
X246064Y171670D01*
X245989Y171721D01*
X245904Y171751D01*
X245809Y171761D01*
X247809D01*
X247714Y171751D01*
D02*
G37*
G36*
X157032D02*
X156947Y171721D01*
X156872Y171670D01*
X156807Y171599D01*
X156752Y171508D01*
X156707Y171397D01*
X156672Y171265D01*
X156647Y171114D01*
X156632Y170942D01*
X156627Y170749D01*
X155627D01*
X155622Y170942D01*
X155607Y171114D01*
X155582Y171265D01*
X155547Y171397D01*
X155502Y171508D01*
X155447Y171599D01*
X155382Y171670D01*
X155307Y171721D01*
X155222Y171751D01*
X155127Y171761D01*
X157127D01*
X157032Y171751D01*
D02*
G37*
G36*
X220405Y170801D02*
X220388Y170770D01*
X220373Y170729D01*
X220359Y170677D01*
X220349Y170615D01*
X220332Y170461D01*
X220324Y170265D01*
X220323Y170152D01*
X219323Y170132D01*
X219322Y170245D01*
X219296Y170594D01*
X219285Y170656D01*
X219270Y170707D01*
X219254Y170749D01*
X219236Y170780D01*
X219216Y170801D01*
X220424Y170822D01*
X220405Y170801D01*
D02*
G37*
G36*
X136898Y170273D02*
X136909Y170213D01*
X136929Y170152D01*
X136956Y170088D01*
X136991Y170021D01*
X137034Y169953D01*
X137085Y169882D01*
X137144Y169809D01*
X137285Y169657D01*
X136578Y168950D01*
X136500Y169024D01*
X136352Y169150D01*
X136282Y169201D01*
X136213Y169244D01*
X136147Y169279D01*
X136083Y169306D01*
X136021Y169325D01*
X135962Y169336D01*
X135905Y169340D01*
X136895Y170330D01*
X136898Y170273D01*
D02*
G37*
G36*
X228080Y166788D02*
X228130Y166754D01*
X228187Y166724D01*
X228252Y166698D01*
X228324Y166676D01*
X228402Y166658D01*
X228488Y166644D01*
X228581Y166634D01*
X228789Y166626D01*
Y165626D01*
X228682Y165624D01*
X228488Y165608D01*
X228402Y165594D01*
X228324Y165576D01*
X228252Y165554D01*
X228187Y165528D01*
X228130Y165498D01*
X228080Y165464D01*
X228038Y165426D01*
Y166826D01*
X228080Y166788D01*
D02*
G37*
G36*
X204527Y166770D02*
X204577Y166736D01*
X204634Y166706D01*
X204699Y166680D01*
X204770Y166658D01*
X204849Y166640D01*
X204935Y166626D01*
X205028Y166616D01*
X205236Y166608D01*
Y165608D01*
X205129Y165606D01*
X204935Y165590D01*
X204849Y165576D01*
X204770Y165558D01*
X204699Y165536D01*
X204634Y165510D01*
X204577Y165480D01*
X204527Y165446D01*
X204484Y165408D01*
Y166808D01*
X204527Y166770D01*
D02*
G37*
G36*
X189416Y170290D02*
X189792Y169989D01*
X190182Y169724D01*
X190587Y169494D01*
X191006Y169300D01*
X191440Y169141D01*
X191889Y169017D01*
X192353Y168929D01*
X192831Y168876D01*
X193323Y168858D01*
X193806Y166358D01*
X193378Y166333D01*
X192996Y166258D01*
X192658Y166133D01*
X192366Y165958D01*
X192118Y165733D01*
X191916Y165458D01*
X191758Y165133D01*
X191646Y164758D01*
X191578Y164333D01*
X191556Y163858D01*
X189056Y164590D01*
X189038Y165083D01*
X188985Y165561D01*
X188897Y166024D01*
X188773Y166473D01*
X188614Y166907D01*
X188419Y167327D01*
X188189Y167731D01*
X187924Y168122D01*
X187624Y168497D01*
X187288Y168858D01*
X189056Y170626D01*
X189416Y170290D01*
D02*
G37*
G36*
X263309Y163041D02*
X263320Y162981D01*
X263339Y162920D01*
X263367Y162856D01*
X263402Y162790D01*
X263445Y162721D01*
X263496Y162651D01*
X263554Y162578D01*
X263696Y162425D01*
X262989Y161718D01*
X262911Y161793D01*
X262763Y161918D01*
X262692Y161969D01*
X262624Y162012D01*
X262558Y162047D01*
X262494Y162074D01*
X262432Y162093D01*
X262373Y162105D01*
X262316Y162108D01*
X263305Y163098D01*
X263309Y163041D01*
D02*
G37*
G36*
X240437Y160568D02*
X240303Y160424D01*
X240183Y160274D01*
X240077Y160118D01*
X239985Y159956D01*
X239907Y159788D01*
X239843Y159614D01*
X239794Y159435D01*
X239758Y159249D01*
X239737Y159058D01*
X239730Y158861D01*
X238730D01*
X238723Y159058D01*
X238702Y159249D01*
X238667Y159435D01*
X238617Y159614D01*
X238554Y159788D01*
X238476Y159956D01*
X238384Y160118D01*
X238278Y160274D01*
X238158Y160424D01*
X238023Y160568D01*
X238523Y161482D01*
X238665Y161355D01*
X238806Y161256D01*
X238947Y161185D01*
X239089Y161143D01*
X239230Y161129D01*
X239372Y161143D01*
X239513Y161185D01*
X239654Y161256D01*
X239796Y161355D01*
X239937Y161482D01*
X240437Y160568D01*
D02*
G37*
G36*
X159468Y161351D02*
X159434Y161301D01*
X159404Y161244D01*
X159378Y161179D01*
X159356Y161108D01*
X159338Y161029D01*
X159324Y160943D01*
X159314Y160850D01*
X159306Y160642D01*
X158306D01*
X158304Y160749D01*
X158288Y160943D01*
X158274Y161029D01*
X158256Y161108D01*
X158234Y161179D01*
X158208Y161244D01*
X158178Y161301D01*
X158144Y161351D01*
X158106Y161394D01*
X159506D01*
X159468Y161351D01*
D02*
G37*
G36*
X38916Y165126D02*
X39292Y164826D01*
X39682Y164561D01*
X40087Y164331D01*
X40506Y164137D01*
X40940Y163977D01*
X41389Y163854D01*
X41853Y163765D01*
X42331Y163712D01*
X42823Y163695D01*
X43556Y161195D01*
X43081Y161170D01*
X42656Y161095D01*
X42281Y160970D01*
X41956Y160795D01*
X41681Y160570D01*
X41456Y160295D01*
X41281Y159970D01*
X41156Y159595D01*
X41081Y159170D01*
X41056Y158695D01*
X38556Y159427D01*
X38538Y159920D01*
X38485Y160398D01*
X38396Y160861D01*
X38273Y161310D01*
X38114Y161744D01*
X37919Y162163D01*
X37689Y162568D01*
X37424Y162958D01*
X37124Y163334D01*
X36788Y163695D01*
X38556Y165462D01*
X38916Y165126D01*
D02*
G37*
G36*
X242968Y158851D02*
X242934Y158801D01*
X242904Y158744D01*
X242878Y158679D01*
X242856Y158608D01*
X242838Y158529D01*
X242824Y158443D01*
X242814Y158350D01*
X242806Y158142D01*
X241806D01*
X241804Y158249D01*
X241788Y158443D01*
X241774Y158529D01*
X241756Y158608D01*
X241734Y158679D01*
X241708Y158744D01*
X241678Y158801D01*
X241644Y158851D01*
X241606Y158894D01*
X243006D01*
X242968Y158851D01*
D02*
G37*
G36*
X195570Y159310D02*
X195611Y159268D01*
X195660Y159230D01*
X195718Y159198D01*
X195783Y159170D01*
X195858Y159148D01*
X195940Y159131D01*
X196031Y159118D01*
X196130Y159110D01*
X196238Y159108D01*
X195921Y158108D01*
X195811Y158107D01*
X195451Y158082D01*
X195380Y158071D01*
X195263Y158042D01*
X195217Y158025D01*
X195178Y158005D01*
X195538Y159358D01*
X195570Y159310D01*
D02*
G37*
G36*
X203591Y157908D02*
X203549Y157946D01*
X203499Y157980D01*
X203441Y158010D01*
X203377Y158036D01*
X203305Y158058D01*
X203227Y158076D01*
X203141Y158090D01*
X203047Y158100D01*
X202839Y158108D01*
Y159108D01*
X202947Y159110D01*
X203141Y159126D01*
X203227Y159140D01*
X203305Y159158D01*
X203377Y159180D01*
X203441Y159206D01*
X203499Y159236D01*
X203549Y159270D01*
X203591Y159308D01*
Y157908D01*
D02*
G37*
G36*
X137809Y159041D02*
X137820Y158982D01*
X137839Y158920D01*
X137867Y158856D01*
X137902Y158790D01*
X137945Y158721D01*
X137996Y158651D01*
X138054Y158578D01*
X138196Y158425D01*
X137489Y157718D01*
X137411Y157792D01*
X137263Y157918D01*
X137192Y157969D01*
X137124Y158012D01*
X137058Y158047D01*
X136994Y158074D01*
X136932Y158093D01*
X136873Y158105D01*
X136816Y158108D01*
X137805Y159098D01*
X137809Y159041D01*
D02*
G37*
G36*
X162089Y158543D02*
X162011Y158463D01*
X161835Y158253D01*
X161794Y158193D01*
X161764Y158139D01*
X161743Y158089D01*
X161732Y158045D01*
X161730Y158005D01*
X161737Y157971D01*
X160456Y157958D01*
X160443Y156676D01*
X160408Y156684D01*
X160369Y156682D01*
X160325Y156670D01*
X160275Y156649D01*
X160220Y156619D01*
X160161Y156579D01*
X159950Y156402D01*
X159870Y156324D01*
X159494Y157645D01*
X159867Y157952D01*
X160456Y157958D01*
X160461Y158547D01*
X160769Y158920D01*
X162089Y158543D01*
D02*
G37*
G36*
X244309Y154041D02*
X244320Y153981D01*
X244339Y153920D01*
X244367Y153856D01*
X244402Y153790D01*
X244445Y153721D01*
X244496Y153651D01*
X244554Y153578D01*
X244696Y153425D01*
X243989Y152718D01*
X243911Y152793D01*
X243763Y152918D01*
X243692Y152969D01*
X243624Y153012D01*
X243558Y153047D01*
X243494Y153074D01*
X243432Y153093D01*
X243373Y153105D01*
X243316Y153108D01*
X244305Y154098D01*
X244309Y154041D01*
D02*
G37*
G36*
X218796Y151608D02*
X218738Y151605D01*
X218679Y151593D01*
X218617Y151574D01*
X218553Y151547D01*
X218487Y151512D01*
X218419Y151469D01*
X218348Y151418D01*
X218275Y151359D01*
X218123Y151218D01*
X217415Y151925D01*
X217490Y152002D01*
X217616Y152151D01*
X217667Y152221D01*
X217709Y152290D01*
X217744Y152356D01*
X217772Y152420D01*
X217791Y152481D01*
X217802Y152541D01*
X217806Y152598D01*
X218796Y151608D01*
D02*
G37*
G36*
X265700Y152424D02*
X265848Y152298D01*
X265919Y152247D01*
X265987Y152204D01*
X266054Y152169D01*
X266117Y152142D01*
X266179Y152123D01*
X266238Y152111D01*
X266296Y152108D01*
X265306Y151118D01*
X265302Y151175D01*
X265291Y151234D01*
X265272Y151296D01*
X265245Y151360D01*
X265210Y151426D01*
X265166Y151495D01*
X265116Y151565D01*
X265057Y151638D01*
X264915Y151791D01*
X265622Y152498D01*
X265700Y152424D01*
D02*
G37*
G36*
X134128Y151350D02*
X134083Y151313D01*
X134043Y151268D01*
X134007Y151215D01*
X133976Y151154D01*
X133950Y151086D01*
X133929Y151010D01*
X133913Y150926D01*
X133901Y150834D01*
X133894Y150734D01*
X133891Y150627D01*
X132891Y150818D01*
X132890Y150926D01*
X132868Y151209D01*
X132855Y151288D01*
X132839Y151360D01*
X132820Y151425D01*
X132799Y151483D01*
X132774Y151533D01*
X132747Y151576D01*
X134128Y151350D01*
D02*
G37*
G36*
X252334Y150557D02*
X252373Y150093D01*
X252407Y149905D01*
X252451Y149745D01*
X252505Y149615D01*
X252569Y149514D01*
X252643Y149441D01*
X252726Y149398D01*
X252819Y149383D01*
X250838D01*
X250931Y149398D01*
X251015Y149441D01*
X251088Y149514D01*
X251152Y149615D01*
X251206Y149745D01*
X251250Y149905D01*
X251285Y150093D01*
X251309Y150310D01*
X251324Y150557D01*
X251329Y150832D01*
X252329D01*
X252334Y150557D01*
D02*
G37*
G36*
X249184D02*
X249223Y150093D01*
X249257Y149905D01*
X249302Y149745D01*
X249356Y149615D01*
X249419Y149514D01*
X249493Y149441D01*
X249576Y149398D01*
X249670Y149383D01*
X247689D01*
X247782Y149398D01*
X247865Y149441D01*
X247939Y149514D01*
X248003Y149615D01*
X248056Y149745D01*
X248101Y149905D01*
X248135Y150093D01*
X248159Y150310D01*
X248174Y150557D01*
X248179Y150832D01*
X249179D01*
X249184Y150557D01*
D02*
G37*
G36*
X246034D02*
X246074Y150093D01*
X246108Y149905D01*
X246152Y149745D01*
X246206Y149615D01*
X246270Y149514D01*
X246343Y149441D01*
X246427Y149398D01*
X246520Y149383D01*
X244539D01*
X244632Y149398D01*
X244715Y149441D01*
X244789Y149514D01*
X244853Y149615D01*
X244907Y149745D01*
X244951Y149905D01*
X244985Y150093D01*
X245010Y150310D01*
X245024Y150557D01*
X245029Y150832D01*
X246029D01*
X246034Y150557D01*
D02*
G37*
G36*
X239735D02*
X239774Y150093D01*
X239809Y149905D01*
X239853Y149745D01*
X239907Y149615D01*
X239971Y149514D01*
X240044Y149441D01*
X240127Y149398D01*
X240221Y149383D01*
X238240D01*
X238333Y149398D01*
X238416Y149441D01*
X238490Y149514D01*
X238554Y149615D01*
X238608Y149745D01*
X238652Y149905D01*
X238686Y150093D01*
X238711Y150310D01*
X238725Y150557D01*
X238730Y150832D01*
X239730D01*
X239735Y150557D01*
D02*
G37*
G36*
X236585D02*
X236625Y150093D01*
X236659Y149905D01*
X236703Y149745D01*
X236757Y149615D01*
X236821Y149514D01*
X236894Y149441D01*
X236978Y149398D01*
X237071Y149383D01*
X235090D01*
X235183Y149398D01*
X235267Y149441D01*
X235340Y149514D01*
X235404Y149615D01*
X235458Y149745D01*
X235502Y149905D01*
X235537Y150093D01*
X235561Y150310D01*
X235576Y150557D01*
X235581Y150832D01*
X236581D01*
X236585Y150557D01*
D02*
G37*
G36*
X233436D02*
X233475Y150093D01*
X233509Y149905D01*
X233554Y149745D01*
X233608Y149615D01*
X233671Y149514D01*
X233745Y149441D01*
X233828Y149398D01*
X233922Y149383D01*
X231941D01*
X232034Y149398D01*
X232117Y149441D01*
X232191Y149514D01*
X232254Y149615D01*
X232308Y149745D01*
X232352Y149905D01*
X232387Y150093D01*
X232411Y150310D01*
X232426Y150557D01*
X232431Y150832D01*
X233431D01*
X233436Y150557D01*
D02*
G37*
G36*
X149054D02*
X149093Y150093D01*
X149127Y149905D01*
X149171Y149745D01*
X149225Y149615D01*
X149289Y149514D01*
X149363Y149441D01*
X149446Y149398D01*
X149539Y149383D01*
X147558D01*
X147651Y149398D01*
X147735Y149441D01*
X147808Y149514D01*
X147872Y149615D01*
X147926Y149745D01*
X147970Y149905D01*
X148004Y150093D01*
X148029Y150310D01*
X148044Y150557D01*
X148049Y150832D01*
X149049D01*
X149054Y150557D01*
D02*
G37*
G36*
X145904D02*
X145943Y150093D01*
X145977Y149905D01*
X146022Y149745D01*
X146076Y149615D01*
X146139Y149514D01*
X146213Y149441D01*
X146296Y149398D01*
X146389Y149383D01*
X144409D01*
X144502Y149398D01*
X144585Y149441D01*
X144659Y149514D01*
X144722Y149615D01*
X144776Y149745D01*
X144820Y149905D01*
X144855Y150093D01*
X144879Y150310D01*
X144894Y150557D01*
X144899Y150832D01*
X145899D01*
X145904Y150557D01*
D02*
G37*
G36*
X142754D02*
X142794Y150093D01*
X142828Y149905D01*
X142872Y149745D01*
X142926Y149615D01*
X142990Y149514D01*
X143063Y149441D01*
X143147Y149398D01*
X143240Y149383D01*
X141259D01*
X141352Y149398D01*
X141436Y149441D01*
X141509Y149514D01*
X141573Y149615D01*
X141627Y149745D01*
X141671Y149905D01*
X141705Y150093D01*
X141730Y150310D01*
X141744Y150557D01*
X141749Y150832D01*
X142749D01*
X142754Y150557D01*
D02*
G37*
G36*
X139605D02*
X139644Y150093D01*
X139678Y149905D01*
X139722Y149745D01*
X139776Y149615D01*
X139840Y149514D01*
X139914Y149441D01*
X139997Y149398D01*
X140090Y149383D01*
X138109D01*
X138203Y149398D01*
X138286Y149441D01*
X138359Y149514D01*
X138423Y149615D01*
X138477Y149745D01*
X138521Y149905D01*
X138556Y150093D01*
X138580Y150310D01*
X138595Y150557D01*
X138600Y150832D01*
X139600D01*
X139605Y150557D01*
D02*
G37*
G36*
X302069Y150689D02*
X302218Y150563D01*
X302288Y150512D01*
X302357Y150469D01*
X302423Y150434D01*
X302487Y150407D01*
X302548Y150388D01*
X302608Y150376D01*
X302665Y150373D01*
X301675Y149383D01*
X301672Y149440D01*
X301660Y149499D01*
X301641Y149561D01*
X301614Y149625D01*
X301579Y149691D01*
X301536Y149760D01*
X301485Y149830D01*
X301426Y149903D01*
X301285Y150056D01*
X301992Y150763D01*
X302069Y150689D01*
D02*
G37*
G36*
X242848Y150575D02*
X242887Y150118D01*
X242921Y149933D01*
X242965Y149777D01*
X243019Y149650D01*
X243083Y149552D01*
X243157Y149483D01*
X243240Y149443D01*
X243333Y149432D01*
X241359Y149363D01*
X241451Y149491D01*
X241533Y149623D01*
X241605Y149759D01*
X241668Y149898D01*
X241722Y150042D01*
X241765Y150189D01*
X241799Y150340D01*
X241823Y150495D01*
X241838Y150654D01*
X241843Y150816D01*
X242843Y150847D01*
X242848Y150575D01*
D02*
G37*
G36*
X155452Y150777D02*
X155486Y150389D01*
X155515Y150211D01*
X155553Y150043D01*
X155599Y149886D01*
X155654Y149740D01*
X155717Y149603D01*
X155789Y149478D01*
X155869Y149363D01*
X153827D01*
X153907Y149478D01*
X153978Y149603D01*
X154041Y149740D01*
X154096Y149886D01*
X154142Y150043D01*
X154180Y150211D01*
X154210Y150389D01*
X154231Y150578D01*
X154248Y150987D01*
X155448D01*
X155452Y150777D01*
D02*
G37*
G36*
X152252Y150809D02*
X152257Y150644D01*
X152271Y150484D01*
X152294Y150328D01*
X152327Y150176D01*
X152369Y150029D01*
X152420Y149887D01*
X152481Y149749D01*
X152551Y149616D01*
X152631Y149487D01*
X152719Y149363D01*
X150761Y149453D01*
X150855Y149463D01*
X150938Y149502D01*
X151012Y149570D01*
X151075Y149667D01*
X151129Y149792D01*
X151173Y149947D01*
X151208Y150130D01*
X151232Y150342D01*
X151247Y150584D01*
X151252Y150854D01*
X152252Y150809D01*
D02*
G37*
G36*
X212138Y150072D02*
X212169Y149987D01*
X212219Y149912D01*
X212290Y149847D01*
X212381Y149792D01*
X212492Y149747D01*
X212624Y149712D01*
X212776Y149687D01*
X212948Y149672D01*
X213140Y149667D01*
Y148667D01*
X212948Y148662D01*
X212776Y148647D01*
X212624Y148622D01*
X212492Y148587D01*
X212381Y148542D01*
X212290Y148487D01*
X212219Y148422D01*
X212169Y148347D01*
X212138Y148262D01*
X212128Y148167D01*
Y150167D01*
X212138Y150072D01*
D02*
G37*
G36*
X122405D02*
X122435Y149987D01*
X122486Y149912D01*
X122557Y149847D01*
X122648Y149792D01*
X122759Y149747D01*
X122891Y149712D01*
X123043Y149687D01*
X123215Y149672D01*
X123407Y149667D01*
Y148667D01*
X123215Y148662D01*
X123043Y148647D01*
X122891Y148622D01*
X122759Y148587D01*
X122648Y148542D01*
X122557Y148487D01*
X122486Y148422D01*
X122435Y148347D01*
X122405Y148262D01*
X122395Y148167D01*
Y150167D01*
X122405Y150072D01*
D02*
G37*
G36*
X119978Y147311D02*
X119893Y147281D01*
X119818Y147230D01*
X119753Y147159D01*
X119698Y147068D01*
X119653Y146957D01*
X119618Y146825D01*
X119593Y146673D01*
X119578Y146501D01*
X119573Y146309D01*
X118573D01*
X118568Y146501D01*
X118553Y146673D01*
X118528Y146825D01*
X118493Y146957D01*
X118448Y147068D01*
X118393Y147159D01*
X118328Y147230D01*
X118253Y147281D01*
X118168Y147311D01*
X118073Y147321D01*
X120073D01*
X119978Y147311D01*
D02*
G37*
G36*
X127200Y146923D02*
X127348Y146798D01*
X127419Y146747D01*
X127487Y146704D01*
X127553Y146669D01*
X127617Y146642D01*
X127679Y146623D01*
X127738Y146611D01*
X127796Y146608D01*
X126806Y145618D01*
X126802Y145675D01*
X126791Y145735D01*
X126772Y145796D01*
X126744Y145860D01*
X126709Y145926D01*
X126666Y145995D01*
X126616Y146065D01*
X126557Y146138D01*
X126415Y146291D01*
X127122Y146998D01*
X127200Y146923D01*
D02*
G37*
G36*
X221730Y145054D02*
X221654Y144976D01*
X221468Y144763D01*
X221420Y144698D01*
X221346Y144579D01*
X221320Y144525D01*
X221301Y144474D01*
X221289Y144427D01*
X220507Y145588D01*
X220565Y145580D01*
X220625Y145582D01*
X220687Y145593D01*
X220751Y145613D01*
X220818Y145642D01*
X220887Y145680D01*
X220958Y145728D01*
X221031Y145784D01*
X221107Y145849D01*
X221184Y145923D01*
X221730Y145054D01*
D02*
G37*
G36*
X228614Y145116D02*
X228604Y145211D01*
X228574Y145296D01*
X228523Y145371D01*
X228452Y145436D01*
X228361Y145491D01*
X228250Y145536D01*
X228118Y145571D01*
X227966Y145596D01*
X227795Y145611D01*
X227602Y145616D01*
Y146616D01*
X227795Y146621D01*
X227966Y146636D01*
X228118Y146661D01*
X228250Y146696D01*
X228361Y146741D01*
X228452Y146796D01*
X228523Y146861D01*
X228574Y146936D01*
X228604Y147021D01*
X228614Y147116D01*
Y145116D01*
D02*
G37*
G36*
X300563Y145770D02*
X300612Y145736D01*
X300670Y145706D01*
X300734Y145680D01*
X300806Y145658D01*
X300885Y145640D01*
X300971Y145626D01*
X301064Y145616D01*
X301272Y145608D01*
Y144608D01*
X301164Y144606D01*
X300971Y144590D01*
X300885Y144576D01*
X300806Y144558D01*
X300734Y144536D01*
X300670Y144510D01*
X300612Y144480D01*
X300563Y144446D01*
X300520Y144408D01*
Y145808D01*
X300563Y145770D01*
D02*
G37*
G36*
X84165Y147466D02*
X84285Y147386D01*
X84423Y147315D01*
X84579Y147254D01*
X84754Y147202D01*
X84947Y147159D01*
X85158Y147126D01*
X85388Y147102D01*
X85901Y147084D01*
Y144584D01*
X85636Y144579D01*
X85158Y144541D01*
X84947Y144508D01*
X84754Y144465D01*
X84579Y144413D01*
X84423Y144352D01*
X84285Y144281D01*
X84165Y144201D01*
X84063Y144111D01*
Y147556D01*
X84165Y147466D01*
D02*
G37*
G36*
X80548Y144111D02*
X80447Y144201D01*
X80327Y144281D01*
X80188Y144352D01*
X80032Y144413D01*
X79857Y144465D01*
X79664Y144508D01*
X79453Y144541D01*
X79224Y144565D01*
X78710Y144584D01*
Y147084D01*
X78976Y147088D01*
X79453Y147126D01*
X79664Y147159D01*
X79857Y147202D01*
X80032Y147254D01*
X80188Y147315D01*
X80327Y147386D01*
X80447Y147466D01*
X80548Y147556D01*
Y144111D01*
D02*
G37*
G36*
X310074Y144485D02*
X310222Y144360D01*
X310293Y144309D01*
X310361Y144266D01*
X310427Y144230D01*
X310491Y144203D01*
X310553Y144184D01*
X310613Y144173D01*
X310670Y144169D01*
X309680Y143180D01*
X309676Y143237D01*
X309665Y143296D01*
X309646Y143358D01*
X309619Y143422D01*
X309583Y143488D01*
X309541Y143556D01*
X309490Y143627D01*
X309431Y143700D01*
X309289Y143853D01*
X309997Y144560D01*
X310074Y144485D01*
D02*
G37*
G36*
X83938Y143975D02*
X83858Y143855D01*
X83787Y143716D01*
X83726Y143560D01*
X83674Y143385D01*
X83631Y143192D01*
X83598Y142981D01*
X83574Y142752D01*
X83556Y142238D01*
X81056D01*
X81051Y142504D01*
X81013Y142981D01*
X80980Y143192D01*
X80937Y143385D01*
X80885Y143560D01*
X80824Y143716D01*
X80753Y143855D01*
X80673Y143975D01*
X80583Y144076D01*
X84028D01*
X83938Y143975D01*
D02*
G37*
G36*
X133896Y142394D02*
X133911Y142222D01*
X133936Y142070D01*
X133971Y141939D01*
X134016Y141827D01*
X134071Y141736D01*
X134136Y141665D01*
X134211Y141615D01*
X134296Y141585D01*
X134391Y141574D01*
X132391D01*
X132486Y141585D01*
X132571Y141615D01*
X132646Y141665D01*
X132711Y141736D01*
X132766Y141827D01*
X132811Y141939D01*
X132846Y142070D01*
X132871Y142222D01*
X132886Y142394D01*
X132891Y142586D01*
X133891D01*
X133896Y142394D01*
D02*
G37*
G36*
X175285Y141471D02*
X175283Y141412D01*
X175290Y141352D01*
X175306Y141289D01*
X175332Y141223D01*
X175368Y141155D01*
X175414Y141085D01*
X175469Y141012D01*
X175533Y140937D01*
X175608Y140859D01*
X174642Y140410D01*
X174563Y140488D01*
X174239Y140769D01*
X174188Y140804D01*
X174141Y140832D01*
X174100Y140853D01*
X174063Y140867D01*
X175298Y141526D01*
X175285Y141471D01*
D02*
G37*
G36*
X101091Y140384D02*
X101049Y140422D01*
X100999Y140456D01*
X100941Y140486D01*
X100877Y140512D01*
X100805Y140534D01*
X100727Y140552D01*
X100641Y140566D01*
X100548Y140576D01*
X100339Y140584D01*
Y141584D01*
X100447Y141586D01*
X100641Y141602D01*
X100727Y141616D01*
X100805Y141634D01*
X100877Y141656D01*
X100941Y141682D01*
X100999Y141712D01*
X101049Y141746D01*
X101091Y141784D01*
Y140384D01*
D02*
G37*
G36*
X90062Y141746D02*
X90113Y141712D01*
X90170Y141682D01*
X90234Y141656D01*
X90306Y141634D01*
X90385Y141616D01*
X90470Y141602D01*
X90564Y141592D01*
X90772Y141584D01*
Y140584D01*
X90664Y140582D01*
X90470Y140566D01*
X90385Y140552D01*
X90306Y140534D01*
X90234Y140512D01*
X90170Y140486D01*
X90113Y140456D01*
X90062Y140422D01*
X90020Y140384D01*
Y141784D01*
X90062Y141746D01*
D02*
G37*
G36*
X254270Y139417D02*
X254255Y139510D01*
X254212Y139593D01*
X254140Y139667D01*
X254038Y139731D01*
X253908Y139785D01*
X253748Y139829D01*
X253560Y139863D01*
X253343Y139888D01*
X253097Y139902D01*
X252821Y139907D01*
Y140907D01*
X253097Y140912D01*
X253560Y140951D01*
X253748Y140986D01*
X253908Y141030D01*
X254038Y141084D01*
X254140Y141148D01*
X254212Y141221D01*
X254255Y141305D01*
X254270Y141398D01*
Y139417D01*
D02*
G37*
G36*
X236696Y139791D02*
X236621Y139714D01*
X236496Y139565D01*
X236445Y139495D01*
X236402Y139426D01*
X236367Y139360D01*
X236339Y139296D01*
X236320Y139234D01*
X236309Y139175D01*
X236305Y139118D01*
X235316Y140108D01*
X235373Y140111D01*
X235432Y140123D01*
X235494Y140142D01*
X235558Y140169D01*
X235624Y140204D01*
X235692Y140247D01*
X235763Y140298D01*
X235836Y140357D01*
X235989Y140498D01*
X236696Y139791D01*
D02*
G37*
G36*
X117662Y141339D02*
X118494Y140647D01*
X118879Y140385D01*
X119243Y140179D01*
X119586Y140029D01*
X119909Y139935D01*
X120210Y139898D01*
X120491Y139916D01*
X120750Y139989D01*
X115750Y137942D01*
X115957Y138069D01*
X116078Y138247D01*
X116113Y138475D01*
X116063Y138753D01*
X115928Y139081D01*
X115707Y139460D01*
X115401Y139889D01*
X115010Y140368D01*
X113970Y141478D01*
X117215Y141769D01*
X117662Y141339D01*
D02*
G37*
G36*
X209709Y139020D02*
X210171Y138685D01*
X210217Y138662D01*
X210254Y138648D01*
X210282Y138643D01*
Y137643D01*
X210254Y137639D01*
X210217Y137625D01*
X210171Y137602D01*
X210117Y137569D01*
X209980Y137476D01*
X209709Y137267D01*
X209600Y137179D01*
Y139108D01*
X209709Y139020D01*
D02*
G37*
G36*
X119976D02*
X120438Y138685D01*
X120484Y138662D01*
X120521Y138648D01*
X120549Y138643D01*
Y137643D01*
X120521Y137639D01*
X120484Y137625D01*
X120438Y137602D01*
X120384Y137569D01*
X120247Y137476D01*
X119976Y137267D01*
X119868Y137179D01*
Y139108D01*
X119976Y139020D01*
D02*
G37*
G36*
X179149Y137324D02*
X179292Y137202D01*
X179435Y137094D01*
X179577Y137000D01*
X179719Y136921D01*
X179860Y136856D01*
X180001Y136806D01*
X180141Y136770D01*
X180281Y136749D01*
X180420Y136741D01*
X177591D01*
X177721Y136749D01*
X177822Y136770D01*
X177893Y136806D01*
X177937Y136856D01*
X177951Y136921D01*
X177937Y137000D01*
X177893Y137094D01*
X177822Y137202D01*
X177721Y137324D01*
X177591Y137461D01*
X179006D01*
X179149Y137324D01*
D02*
G37*
G36*
X141041Y136463D02*
X141000Y136505D01*
X140952Y136542D01*
X140897Y136575D01*
X140834Y136604D01*
X140763Y136628D01*
X140686Y136648D01*
X140601Y136663D01*
X140508Y136674D01*
X140301Y136683D01*
X140387Y137683D01*
X140495Y137685D01*
X140690Y137699D01*
X140776Y137711D01*
X140856Y137727D01*
X140928Y137746D01*
X140993Y137769D01*
X141051Y137796D01*
X141102Y137826D01*
X141146Y137859D01*
X141041Y136463D01*
D02*
G37*
G36*
X205471Y136442D02*
X205452Y136574D01*
X205393Y136692D01*
X205296Y136796D01*
X205160Y136886D01*
X204985Y136962D01*
X204772Y137025D01*
X204519Y137073D01*
X204227Y137108D01*
X203897Y137129D01*
X203528Y137136D01*
Y139636D01*
X203897Y139639D01*
X204772Y139694D01*
X204985Y139727D01*
X205160Y139767D01*
X205296Y139815D01*
X205393Y139870D01*
X205452Y139932D01*
X205471Y140001D01*
Y136442D01*
D02*
G37*
G36*
X265971Y137674D02*
X265983Y137615D01*
X266002Y137553D01*
X266029Y137489D01*
X266064Y137423D01*
X266107Y137355D01*
X266158Y137284D01*
X266217Y137211D01*
X266358Y137058D01*
X265651Y136351D01*
X265574Y136426D01*
X265425Y136551D01*
X265355Y136602D01*
X265286Y136645D01*
X265220Y136680D01*
X265156Y136707D01*
X265094Y136727D01*
X265035Y136738D01*
X264978Y136741D01*
X265968Y137731D01*
X265971Y137674D01*
D02*
G37*
G36*
X254270Y136267D02*
X254255Y136360D01*
X254212Y136444D01*
X254140Y136517D01*
X254038Y136581D01*
X253908Y136635D01*
X253748Y136679D01*
X253560Y136714D01*
X253343Y136738D01*
X253097Y136753D01*
X252821Y136758D01*
Y137758D01*
X253097Y137762D01*
X253560Y137802D01*
X253748Y137836D01*
X253908Y137880D01*
X254038Y137934D01*
X254140Y137998D01*
X254212Y138072D01*
X254255Y138155D01*
X254270Y138248D01*
Y136267D01*
D02*
G37*
G36*
X136765Y138080D02*
X136802Y137997D01*
X136868Y137923D01*
X136963Y137859D01*
X137087Y137805D01*
X137239Y137761D01*
X137421Y137727D01*
X137631Y137702D01*
X137870Y137688D01*
X138138Y137683D01*
X138076Y136683D01*
X137908Y136678D01*
X137744Y136665D01*
X137587Y136643D01*
X137435Y136611D01*
X137288Y136571D01*
X137147Y136522D01*
X137012Y136464D01*
X136882Y136397D01*
X136757Y136321D01*
X136638Y136236D01*
X136756Y138173D01*
X136765Y138080D01*
D02*
G37*
G36*
X154809Y137041D02*
X154820Y136981D01*
X154840Y136920D01*
X154867Y136856D01*
X154902Y136790D01*
X154945Y136721D01*
X154996Y136651D01*
X155054Y136578D01*
X155196Y136425D01*
X154489Y135718D01*
X154411Y135793D01*
X154263Y135918D01*
X154192Y135969D01*
X154124Y136012D01*
X154058Y136047D01*
X153994Y136074D01*
X153932Y136093D01*
X153873Y136105D01*
X153816Y136108D01*
X154806Y137098D01*
X154809Y137041D01*
D02*
G37*
G36*
X212073Y137623D02*
X212046Y137532D01*
X212047Y137426D01*
X212076Y137306D01*
X212134Y137172D01*
X212220Y137024D01*
X212334Y136861D01*
X212477Y136683D01*
X212847Y136285D01*
X212140Y135578D01*
X211934Y135777D01*
X211565Y136091D01*
X211402Y136205D01*
X211253Y136291D01*
X211119Y136349D01*
X210999Y136379D01*
X210894Y136380D01*
X210803Y136353D01*
X210726Y136297D01*
X212128Y137699D01*
X212073Y137623D01*
D02*
G37*
G36*
X122340D02*
X122313Y137532D01*
X122314Y137426D01*
X122343Y137306D01*
X122401Y137172D01*
X122487Y137024D01*
X122601Y136861D01*
X122744Y136683D01*
X123114Y136285D01*
X122407Y135578D01*
X122201Y135777D01*
X121832Y136091D01*
X121669Y136205D01*
X121520Y136291D01*
X121386Y136349D01*
X121266Y136379D01*
X121161Y136380D01*
X121070Y136353D01*
X120993Y136297D01*
X122395Y137699D01*
X122340Y137623D01*
D02*
G37*
G36*
X148809Y136541D02*
X148820Y136481D01*
X148839Y136420D01*
X148867Y136356D01*
X148902Y136290D01*
X148945Y136221D01*
X148996Y136151D01*
X149054Y136078D01*
X149196Y135925D01*
X148489Y135218D01*
X148411Y135292D01*
X148263Y135418D01*
X148192Y135469D01*
X148124Y135512D01*
X148058Y135547D01*
X147994Y135574D01*
X147932Y135593D01*
X147873Y135605D01*
X147816Y135608D01*
X148805Y136598D01*
X148809Y136541D01*
D02*
G37*
G36*
X248374Y135660D02*
X247809Y134681D01*
X247804Y134695D01*
X247793Y134708D01*
X247774Y134720D01*
X247749Y134730D01*
X247717Y134738D01*
X247678Y134745D01*
X247633Y134751D01*
X247521Y134757D01*
X247455Y134758D01*
Y135758D01*
X248374Y135660D01*
D02*
G37*
G36*
X267458Y135968D02*
X267608Y135848D01*
X267764Y135742D01*
X267926Y135650D01*
X268094Y135572D01*
X268268Y135509D01*
X268447Y135459D01*
X268626Y135425D01*
X268719Y135440D01*
X268849Y135475D01*
X268959Y135520D01*
X269049Y135575D01*
X269119Y135640D01*
X269169Y135715D01*
X269199Y135800D01*
X269209Y135895D01*
Y133895D01*
X269199Y133990D01*
X269169Y134075D01*
X269119Y134150D01*
X269049Y134215D01*
X268959Y134270D01*
X268849Y134315D01*
X268719Y134350D01*
X268569Y134375D01*
X268399Y134390D01*
X268209Y134395D01*
Y134723D01*
X267814Y134395D01*
Y134895D01*
X267314Y136102D01*
X267458Y135968D01*
D02*
G37*
G36*
X129844Y133366D02*
X129834Y133412D01*
X129803Y133453D01*
X129751Y133490D01*
X129678Y133521D01*
X129585Y133548D01*
X129470Y133569D01*
X129335Y133586D01*
X129003Y133606D01*
X128806Y133608D01*
Y134608D01*
X129003Y134610D01*
X129470Y134647D01*
X129585Y134668D01*
X129678Y134695D01*
X129751Y134726D01*
X129803Y134763D01*
X129834Y134804D01*
X129844Y134850D01*
Y133366D01*
D02*
G37*
G36*
X178944Y133037D02*
X178866Y133094D01*
X178774Y133122D01*
X178668D01*
X178548Y133094D01*
X178413Y133037D01*
X178265Y132952D01*
X178102Y132839D01*
X177925Y132698D01*
X177529Y132330D01*
X176822Y133037D01*
X177020Y133242D01*
X177331Y133610D01*
X177444Y133773D01*
X177529Y133921D01*
X177586Y134055D01*
X177614Y134176D01*
Y134282D01*
X177586Y134374D01*
X177529Y134451D01*
X178944Y133037D01*
D02*
G37*
G36*
X90968Y132814D02*
X91000Y132771D01*
X91041Y132733D01*
X91091Y132700D01*
X91151Y132672D01*
X91221Y132649D01*
X91301Y132631D01*
X91390Y132618D01*
X91488Y132610D01*
X91596Y132608D01*
X91498Y131608D01*
X90353Y131609D01*
X90946Y132863D01*
X90968Y132814D01*
D02*
G37*
G36*
X102091Y131408D02*
X102049Y131446D01*
X101999Y131480D01*
X101941Y131510D01*
X101877Y131536D01*
X101805Y131558D01*
X101727Y131576D01*
X101641Y131590D01*
X101548Y131600D01*
X101339Y131608D01*
Y132608D01*
X101447Y132610D01*
X101641Y132626D01*
X101727Y132640D01*
X101805Y132658D01*
X101877Y132680D01*
X101941Y132706D01*
X101999Y132736D01*
X102049Y132770D01*
X102091Y132808D01*
Y131408D01*
D02*
G37*
G36*
X260819Y131856D02*
X260863Y131772D01*
X260935Y131699D01*
X261036Y131635D01*
X261167Y131581D01*
X261326Y131537D01*
X261514Y131502D01*
X261732Y131478D01*
X261978Y131463D01*
X262253Y131458D01*
Y130458D01*
X261978Y130454D01*
X261514Y130414D01*
X261326Y130380D01*
X261167Y130336D01*
X261036Y130282D01*
X260935Y130218D01*
X260863Y130145D01*
X260819Y130061D01*
X260805Y129968D01*
Y131949D01*
X260819Y131856D01*
D02*
G37*
G36*
X220805Y129968D02*
X220791Y130061D01*
X220747Y130145D01*
X220675Y130218D01*
X220574Y130282D01*
X220443Y130336D01*
X220284Y130380D01*
X220096Y130414D01*
X219878Y130439D01*
X219632Y130454D01*
X219357Y130458D01*
Y131458D01*
X219632Y131463D01*
X220096Y131502D01*
X220284Y131537D01*
X220443Y131581D01*
X220574Y131635D01*
X220675Y131699D01*
X220747Y131772D01*
X220791Y131856D01*
X220805Y131949D01*
Y129968D01*
D02*
G37*
G36*
X170138Y131856D02*
X170181Y131772D01*
X170254Y131699D01*
X170355Y131635D01*
X170485Y131581D01*
X170644Y131537D01*
X170833Y131502D01*
X171050Y131478D01*
X171296Y131463D01*
X171572Y131458D01*
Y130458D01*
X171296Y130454D01*
X170833Y130414D01*
X170644Y130380D01*
X170485Y130336D01*
X170355Y130282D01*
X170254Y130218D01*
X170181Y130145D01*
X170138Y130061D01*
X170123Y129968D01*
Y131949D01*
X170138Y131856D01*
D02*
G37*
G36*
X130124Y129968D02*
X130109Y130061D01*
X130066Y130145D01*
X129993Y130218D01*
X129892Y130282D01*
X129762Y130336D01*
X129602Y130380D01*
X129414Y130414D01*
X129197Y130439D01*
X128951Y130454D01*
X128675Y130458D01*
Y131458D01*
X128951Y131463D01*
X129414Y131502D01*
X129602Y131537D01*
X129762Y131581D01*
X129892Y131635D01*
X129993Y131699D01*
X130066Y131772D01*
X130109Y131856D01*
X130124Y131949D01*
Y129968D01*
D02*
G37*
G36*
X281489Y128480D02*
X281505Y128287D01*
X281519Y128201D01*
X281537Y128122D01*
X281559Y128050D01*
X281585Y127986D01*
X281615Y127929D01*
X281649Y127879D01*
X281687Y127836D01*
X280287D01*
X280325Y127879D01*
X280359Y127929D01*
X280389Y127986D01*
X280415Y128050D01*
X280437Y128122D01*
X280455Y128201D01*
X280469Y128287D01*
X280479Y128380D01*
X280487Y128588D01*
X281487D01*
X281489Y128480D01*
D02*
G37*
G36*
X220805Y126818D02*
X220791Y126911D01*
X220747Y126995D01*
X220675Y127068D01*
X220574Y127132D01*
X220443Y127186D01*
X220284Y127230D01*
X220096Y127265D01*
X219878Y127289D01*
X219632Y127304D01*
X219357Y127309D01*
Y128309D01*
X219632Y128314D01*
X220096Y128353D01*
X220284Y128387D01*
X220443Y128431D01*
X220574Y128485D01*
X220675Y128549D01*
X220747Y128623D01*
X220791Y128706D01*
X220805Y128799D01*
Y126818D01*
D02*
G37*
G36*
X130124D02*
X130109Y126911D01*
X130066Y126995D01*
X129993Y127068D01*
X129892Y127132D01*
X129762Y127186D01*
X129602Y127230D01*
X129414Y127265D01*
X129197Y127289D01*
X128951Y127304D01*
X128675Y127309D01*
Y128309D01*
X128951Y128314D01*
X129414Y128353D01*
X129602Y128387D01*
X129762Y128431D01*
X129892Y128485D01*
X129993Y128549D01*
X130066Y128623D01*
X130109Y128706D01*
X130124Y128799D01*
Y126818D01*
D02*
G37*
G36*
X246468Y126851D02*
X246434Y126801D01*
X246404Y126744D01*
X246378Y126680D01*
X246356Y126608D01*
X246338Y126529D01*
X246324Y126443D01*
X246314Y126350D01*
X246306Y126142D01*
X245306D01*
X245304Y126250D01*
X245288Y126443D01*
X245274Y126529D01*
X245256Y126608D01*
X245234Y126680D01*
X245208Y126744D01*
X245178Y126801D01*
X245144Y126851D01*
X245106Y126894D01*
X246506D01*
X246468Y126851D01*
D02*
G37*
G36*
X203309Y126041D02*
X203320Y125981D01*
X203340Y125920D01*
X203367Y125856D01*
X203402Y125790D01*
X203445Y125721D01*
X203496Y125651D01*
X203554Y125578D01*
X203696Y125425D01*
X202989Y124718D01*
X202911Y124793D01*
X202763Y124918D01*
X202692Y124969D01*
X202624Y125012D01*
X202558Y125047D01*
X202494Y125074D01*
X202432Y125093D01*
X202373Y125105D01*
X202316Y125108D01*
X203306Y126098D01*
X203309Y126041D01*
D02*
G37*
G36*
X237787Y125942D02*
X237934Y125815D01*
X238004Y125762D01*
X238071Y125717D01*
X238136Y125680D01*
X238199Y125650D01*
X238258Y125628D01*
X238316Y125613D01*
X238370Y125606D01*
X237309Y124693D01*
X237310Y124751D01*
X237302Y124811D01*
X237286Y124874D01*
X237262Y124939D01*
X237229Y125005D01*
X237188Y125074D01*
X237139Y125145D01*
X237081Y125219D01*
X236941Y125372D01*
X237709Y126017D01*
X237787Y125942D01*
D02*
G37*
G36*
X212847Y123478D02*
X212648Y123272D01*
X212334Y122903D01*
X212220Y122740D01*
X212134Y122591D01*
X212076Y122457D01*
X212047Y122337D01*
X212046Y122231D01*
X212073Y122140D01*
X212128Y122064D01*
X210726Y123466D01*
X210803Y123410D01*
X210894Y123383D01*
X210999Y123385D01*
X211119Y123414D01*
X211253Y123472D01*
X211402Y123558D01*
X211565Y123672D01*
X211742Y123815D01*
X212140Y124185D01*
X212847Y123478D01*
D02*
G37*
G36*
X123114Y123478D02*
X122915Y123272D01*
X122601Y122903D01*
X122487Y122740D01*
X122401Y122591D01*
X122343Y122457D01*
X122314Y122337D01*
X122313Y122231D01*
X122340Y122140D01*
X122395Y122064D01*
X120993Y123466D01*
X121070Y123410D01*
X121161Y123383D01*
X121266Y123385D01*
X121386Y123414D01*
X121520Y123472D01*
X121669Y123558D01*
X121832Y123672D01*
X122009Y123815D01*
X122407Y124185D01*
X123114Y123478D01*
D02*
G37*
G36*
X275876Y124777D02*
X275907Y124692D01*
X275957Y124617D01*
X276028Y124552D01*
X276088Y124515D01*
X276282Y124560D01*
X276459Y124618D01*
X276596Y124683D01*
X276693Y124756D01*
Y124377D01*
X276878Y124372D01*
Y123372D01*
X276693Y123367D01*
Y122987D01*
X276596Y123060D01*
X276459Y123126D01*
X276282Y123183D01*
X276088Y123228D01*
X276028Y123192D01*
X275957Y123127D01*
X275907Y123052D01*
X275876Y122967D01*
X275866Y122872D01*
Y123266D01*
X275810Y123276D01*
X275178Y123337D01*
X274386Y123368D01*
X273930Y123372D01*
Y124372D01*
X274386Y124376D01*
X275810Y124468D01*
X275866Y124477D01*
Y124872D01*
X275876Y124777D01*
D02*
G37*
G36*
X269209Y122872D02*
X269199Y122967D01*
X269169Y123052D01*
X269119Y123127D01*
X269049Y123192D01*
X268959Y123247D01*
X268849Y123292D01*
X268719Y123327D01*
X268569Y123352D01*
X268399Y123367D01*
X268209Y123372D01*
Y124372D01*
X268399Y124377D01*
X268569Y124392D01*
X268719Y124417D01*
X268849Y124452D01*
X268959Y124497D01*
X269049Y124552D01*
X269119Y124617D01*
X269169Y124692D01*
X269199Y124777D01*
X269209Y124872D01*
Y122872D01*
D02*
G37*
G36*
X177529D02*
X177519Y122967D01*
X177489Y123052D01*
X177439Y123127D01*
X177369Y123192D01*
X177279Y123247D01*
X177169Y123292D01*
X177039Y123327D01*
X176889Y123352D01*
X176719Y123367D01*
X176529Y123372D01*
Y124372D01*
X176719Y124377D01*
X176889Y124392D01*
X177039Y124417D01*
X177169Y124452D01*
X177279Y124497D01*
X177369Y124552D01*
X177439Y124617D01*
X177489Y124692D01*
X177519Y124777D01*
X177529Y124872D01*
Y122872D01*
D02*
G37*
G36*
X184223Y125625D02*
X184298Y125531D01*
X184423Y125448D01*
X184598Y125376D01*
X184823Y125315D01*
X185098Y125265D01*
X185423Y125227D01*
X186223Y125182D01*
X186698Y125177D01*
Y122677D01*
X186223Y122670D01*
X185098Y122571D01*
X184823Y122511D01*
X184598Y122438D01*
X184423Y122352D01*
X184298Y122252D01*
X184223Y122140D01*
X184198Y122014D01*
Y125730D01*
X184223Y125625D01*
D02*
G37*
G36*
X205165Y123963D02*
X205565Y123620D01*
X205735Y123498D01*
X205887Y123411D01*
X206018Y123357D01*
X206130Y123337D01*
X206223Y123350D01*
X206296Y123397D01*
X206350Y123478D01*
X205471Y121528D01*
X205504Y121630D01*
X205513Y121741D01*
X205500Y121860D01*
X205463Y121988D01*
X205404Y122125D01*
X205322Y122271D01*
X205217Y122426D01*
X205089Y122589D01*
X204938Y122761D01*
X204764Y122942D01*
X204936Y124185D01*
X205165Y123963D01*
D02*
G37*
G36*
X119756Y122360D02*
X119837Y122310D01*
X119920Y122265D01*
X120004Y122227D01*
X120090Y122194D01*
X120179Y122167D01*
X120268Y122146D01*
X120360Y122132D01*
X120454Y122123D01*
X120549Y122120D01*
Y121120D01*
X120454Y121117D01*
X120360Y121108D01*
X120268Y121093D01*
X120179Y121072D01*
X120090Y121046D01*
X120004Y121013D01*
X119920Y120974D01*
X119837Y120930D01*
X119756Y120879D01*
X119677Y120823D01*
Y122416D01*
X119756Y122360D01*
D02*
G37*
G36*
X260819Y122407D02*
X260863Y122324D01*
X260935Y122250D01*
X261036Y122186D01*
X261167Y122132D01*
X261326Y122088D01*
X261514Y122054D01*
X261732Y122029D01*
X261978Y122014D01*
X262253Y122010D01*
Y121010D01*
X261978Y121005D01*
X261514Y120965D01*
X261326Y120931D01*
X261167Y120887D01*
X261036Y120833D01*
X260935Y120769D01*
X260863Y120696D01*
X260819Y120612D01*
X260805Y120519D01*
Y122500D01*
X260819Y122407D01*
D02*
G37*
G36*
X170138D02*
X170181Y122324D01*
X170254Y122250D01*
X170355Y122186D01*
X170485Y122132D01*
X170644Y122088D01*
X170833Y122054D01*
X171050Y122029D01*
X171296Y122014D01*
X171572Y122010D01*
Y121010D01*
X171296Y121005D01*
X170833Y120965D01*
X170644Y120931D01*
X170485Y120887D01*
X170355Y120833D01*
X170254Y120769D01*
X170181Y120696D01*
X170138Y120612D01*
X170123Y120519D01*
Y122500D01*
X170138Y122407D01*
D02*
G37*
G36*
X115738Y119762D02*
X115718Y119925D01*
X115658Y120071D01*
X115558Y120199D01*
X115418Y120311D01*
X115238Y120405D01*
X115018Y120483D01*
X114758Y120543D01*
X114458Y120586D01*
X114118Y120611D01*
X113738Y120620D01*
Y122620D01*
X114118Y122628D01*
X114458Y122654D01*
X114758Y122697D01*
X115018Y122757D01*
X115238Y122834D01*
X115418Y122929D01*
X115558Y123040D01*
X115658Y123169D01*
X115718Y123315D01*
X115738Y123478D01*
Y119762D01*
D02*
G37*
G36*
X58065Y120576D02*
X58094Y120277D01*
X58141Y119991D01*
X58208Y119718D01*
X58294Y119458D01*
X58399Y119211D01*
X58523Y118978D01*
X58667Y118758D01*
X58829Y118551D01*
X59010Y118357D01*
X54601D01*
X54782Y118551D01*
X54944Y118758D01*
X55088Y118978D01*
X55212Y119211D01*
X55317Y119458D01*
X55403Y119718D01*
X55470Y119991D01*
X55517Y120277D01*
X55546Y120576D01*
X55556Y120889D01*
X58056D01*
X58065Y120576D01*
D02*
G37*
G36*
X175438Y117611D02*
X175405Y117658D01*
X175364Y117700D01*
X175315Y117738D01*
X175257Y117770D01*
X175191Y117798D01*
X175117Y117820D01*
X175034Y117838D01*
X174943Y117850D01*
X174844Y117858D01*
X174737Y117860D01*
X175046Y118860D01*
X175156Y118861D01*
X175517Y118886D01*
X175587Y118898D01*
X175650Y118912D01*
X175705Y118927D01*
X175752Y118945D01*
X175791Y118965D01*
X175438Y117611D01*
D02*
G37*
G36*
X277509Y117503D02*
X277470Y117547D01*
X277424Y117587D01*
X277370Y117621D01*
X277308Y117651D01*
X277239Y117676D01*
X277162Y117697D01*
X277077Y117713D01*
X276985Y117725D01*
X276886Y117732D01*
X276778Y117734D01*
X276926Y118734D01*
X277034Y118736D01*
X277316Y118759D01*
X277395Y118774D01*
X277468Y118791D01*
X277533Y118812D01*
X277591Y118835D01*
X277642Y118862D01*
X277685Y118892D01*
X277509Y117503D01*
D02*
G37*
G36*
X170138Y119257D02*
X170181Y119174D01*
X170254Y119100D01*
X170355Y119036D01*
X170485Y118983D01*
X170644Y118938D01*
X170833Y118904D01*
X171050Y118880D01*
X171296Y118865D01*
X171572Y118860D01*
Y117860D01*
X171296Y117855D01*
X170833Y117816D01*
X170644Y117781D01*
X170485Y117737D01*
X170355Y117683D01*
X170254Y117620D01*
X170181Y117546D01*
X170138Y117463D01*
X170123Y117369D01*
Y119350D01*
X170138Y119257D01*
D02*
G37*
G36*
X260974Y119131D02*
X261007Y119048D01*
X261069Y118974D01*
X261160Y118911D01*
X261279Y118857D01*
X261427Y118813D01*
X261604Y118778D01*
X261809Y118754D01*
X262043Y118739D01*
X262305Y118734D01*
X262188Y117734D01*
X262014Y117730D01*
X261688Y117698D01*
X261537Y117671D01*
X261393Y117635D01*
X261256Y117592D01*
X261127Y117540D01*
X261005Y117481D01*
X260891Y117414D01*
X260784Y117339D01*
X260969Y119225D01*
X260974Y119131D01*
D02*
G37*
G36*
X221650Y117193D02*
X221576Y117251D01*
X221488Y117281D01*
X221388Y117285D01*
X221274Y117261D01*
X221147Y117210D01*
X221006Y117133D01*
X220853Y117028D01*
X220686Y116896D01*
X220506Y116737D01*
X220313Y116551D01*
X219606Y117258D01*
X219796Y117455D01*
X220094Y117808D01*
X220202Y117965D01*
X220283Y118109D01*
X220338Y118239D01*
X220365Y118356D01*
X220365Y118461D01*
X220338Y118551D01*
X220284Y118629D01*
X221650Y117193D01*
D02*
G37*
G36*
X130969D02*
X130894Y117251D01*
X130807Y117281D01*
X130706Y117285D01*
X130592Y117261D01*
X130465Y117210D01*
X130325Y117133D01*
X130171Y117028D01*
X130005Y116896D01*
X129825Y116737D01*
X129632Y116551D01*
X128925Y117258D01*
X129114Y117455D01*
X129412Y117808D01*
X129520Y117965D01*
X129602Y118109D01*
X129656Y118239D01*
X129683Y118356D01*
X129683Y118461D01*
X129656Y118551D01*
X129602Y118629D01*
X130969Y117193D01*
D02*
G37*
G36*
X242885Y117092D02*
X242924Y116628D01*
X242958Y116440D01*
X243003Y116281D01*
X243056Y116150D01*
X243120Y116049D01*
X243194Y115977D01*
X243277Y115933D01*
X243370Y115919D01*
X241389D01*
X241482Y115933D01*
X241566Y115977D01*
X241639Y116049D01*
X241703Y116150D01*
X241757Y116281D01*
X241801Y116440D01*
X241836Y116628D01*
X241860Y116846D01*
X241875Y117092D01*
X241880Y117367D01*
X242880D01*
X242885Y117092D01*
D02*
G37*
G36*
X161652D02*
X161691Y116628D01*
X161725Y116440D01*
X161770Y116281D01*
X161824Y116150D01*
X161887Y116049D01*
X161961Y115977D01*
X162044Y115933D01*
X162137Y115919D01*
X160157D01*
X160250Y115933D01*
X160333Y115977D01*
X160407Y116049D01*
X160470Y116150D01*
X160524Y116281D01*
X160569Y116440D01*
X160603Y116628D01*
X160627Y116846D01*
X160642Y117092D01*
X160647Y117367D01*
X161647D01*
X161652Y117092D01*
D02*
G37*
G36*
X158502D02*
X158542Y116628D01*
X158576Y116440D01*
X158620Y116281D01*
X158674Y116150D01*
X158738Y116049D01*
X158811Y115977D01*
X158895Y115933D01*
X158988Y115919D01*
X157007D01*
X157100Y115933D01*
X157184Y115977D01*
X157257Y116049D01*
X157321Y116150D01*
X157375Y116281D01*
X157419Y116440D01*
X157453Y116628D01*
X157478Y116846D01*
X157492Y117092D01*
X157497Y117367D01*
X158497D01*
X158502Y117092D01*
D02*
G37*
G36*
X281604Y113128D02*
X281547Y113136D01*
X281487Y113134D01*
X281424Y113123D01*
X281360Y113103D01*
X281293Y113074D01*
X281224Y113036D01*
X281153Y112988D01*
X281080Y112932D01*
X281005Y112867D01*
X280927Y112793D01*
X280381Y113662D01*
X280458Y113740D01*
X280643Y113953D01*
X280691Y114018D01*
X280765Y114137D01*
X280791Y114191D01*
X280810Y114242D01*
X280822Y114289D01*
X281604Y113128D01*
D02*
G37*
G36*
X316200Y112691D02*
X316058Y112820D01*
X315901Y112935D01*
X315727Y113037D01*
X315537Y113125D01*
X315331Y113200D01*
X315109Y113261D01*
X314871Y113309D01*
X314616Y113343D01*
X314345Y113363D01*
X314058Y113370D01*
Y115870D01*
X314345Y115877D01*
X314871Y115931D01*
X315109Y115979D01*
X315331Y116040D01*
X315537Y116114D01*
X315727Y116203D01*
X315901Y116305D01*
X316058Y116420D01*
X316200Y116549D01*
Y112691D01*
D02*
G37*
G36*
X212140Y112454D02*
X210652Y112442D01*
X210747Y112453D01*
X210832Y112484D01*
X210907Y112535D01*
X210972Y112606D01*
X211027Y112697D01*
X211072Y112809D01*
X211107Y112940D01*
X211132Y113091D01*
X211147Y113263D01*
X211152Y113454D01*
X212152D01*
X212140Y112454D01*
D02*
G37*
G36*
X253006Y114013D02*
X253036Y113928D01*
X253087Y113853D01*
X253158Y113788D01*
X253249Y113733D01*
X253360Y113688D01*
X253492Y113653D01*
X253643Y113628D01*
X253816Y113613D01*
X254008Y113608D01*
Y112608D01*
X253816Y112603D01*
X253643Y112588D01*
X253492Y112563D01*
X253360Y112528D01*
X253249Y112483D01*
X253158Y112428D01*
X253087Y112363D01*
X253036Y112288D01*
X253006Y112203D01*
X252996Y112108D01*
Y114108D01*
X253006Y114013D01*
D02*
G37*
G36*
X59964Y115811D02*
X59995Y115550D01*
X60050Y115293D01*
X60127Y115040D01*
X60227Y114792D01*
X60350Y114547D01*
X60496Y114307D01*
X60664Y114071D01*
X60856Y113839D01*
X61070Y113611D01*
X59302Y111844D01*
X59074Y112058D01*
X58842Y112249D01*
X58606Y112418D01*
X58366Y112564D01*
X58122Y112687D01*
X57873Y112787D01*
X57620Y112864D01*
X57363Y112918D01*
X57102Y112950D01*
X56837Y112959D01*
X59955Y116077D01*
X59964Y115811D01*
D02*
G37*
G36*
X119577Y113787D02*
X119638Y112863D01*
X119653Y112807D01*
X119698Y112695D01*
X119753Y112604D01*
X119818Y112533D01*
X119893Y112483D01*
X119978Y112452D01*
X120073Y112442D01*
X119666D01*
X119671Y112364D01*
X119714Y112107D01*
X119765Y111889D01*
X119824Y111710D01*
X119890Y111571D01*
X119965Y111472D01*
X118180D01*
X118255Y111571D01*
X118322Y111710D01*
X118380Y111889D01*
X118431Y112107D01*
X118474Y112364D01*
X118482Y112442D01*
X118073D01*
X118168Y112452D01*
X118253Y112483D01*
X118328Y112533D01*
X118393Y112604D01*
X118448Y112695D01*
X118493Y112807D01*
X118528Y112938D01*
X118537Y112997D01*
X118569Y113787D01*
X118573Y114242D01*
X119573D01*
X119577Y113787D01*
D02*
G37*
G36*
X212006Y111613D02*
X211934Y111534D01*
X211868Y111447D01*
X211806Y111350D01*
X211750Y111244D01*
X211699Y111130D01*
X211653Y111006D01*
X211612Y110874D01*
X211545Y110582D01*
X211520Y110422D01*
X210108Y111834D01*
X210267Y111860D01*
X210559Y111926D01*
X210692Y111967D01*
X210816Y112013D01*
X210930Y112064D01*
X211036Y112121D01*
X211132Y112182D01*
X211220Y112248D01*
X211298Y112320D01*
X212006Y111613D01*
D02*
G37*
G36*
X205471Y108738D02*
X205446Y108854D01*
X205371Y108957D01*
X205246Y109048D01*
X205071Y109127D01*
X204846Y109194D01*
X204571Y109249D01*
X204246Y109292D01*
X203446Y109340D01*
X202971Y109346D01*
Y111846D01*
X203446Y111852D01*
X204571Y111943D01*
X204846Y111998D01*
X205071Y112065D01*
X205246Y112144D01*
X205371Y112235D01*
X205446Y112339D01*
X205471Y112454D01*
Y108738D01*
D02*
G37*
G36*
X115738Y108738D02*
X115713Y108854D01*
X115638Y108957D01*
X115513Y109048D01*
X115338Y109127D01*
X115113Y109194D01*
X114838Y109249D01*
X114513Y109292D01*
X113713Y109340D01*
X113238Y109346D01*
Y111846D01*
X113713Y111852D01*
X114838Y111943D01*
X115113Y111998D01*
X115338Y112065D01*
X115513Y112144D01*
X115638Y112235D01*
X115713Y112339D01*
X115738Y112454D01*
Y108738D01*
D02*
G37*
G36*
X246427Y109369D02*
X246343Y109326D01*
X246270Y109254D01*
X246206Y109152D01*
X246152Y109022D01*
X246108Y108862D01*
X246074Y108674D01*
X246049Y108457D01*
X246034Y108211D01*
X246029Y107936D01*
X245029D01*
X245024Y108211D01*
X244985Y108674D01*
X244951Y108862D01*
X244907Y109022D01*
X244853Y109152D01*
X244789Y109254D01*
X244715Y109326D01*
X244632Y109369D01*
X244539Y109384D01*
X246520D01*
X246427Y109369D01*
D02*
G37*
G36*
X240127D02*
X240044Y109326D01*
X239971Y109254D01*
X239907Y109152D01*
X239853Y109022D01*
X239809Y108862D01*
X239774Y108674D01*
X239750Y108457D01*
X239735Y108211D01*
X239730Y107936D01*
X238730D01*
X238725Y108211D01*
X238686Y108674D01*
X238652Y108862D01*
X238608Y109022D01*
X238554Y109152D01*
X238490Y109254D01*
X238416Y109326D01*
X238333Y109369D01*
X238240Y109384D01*
X240221D01*
X240127Y109369D01*
D02*
G37*
G36*
X236978D02*
X236894Y109326D01*
X236821Y109254D01*
X236757Y109152D01*
X236703Y109022D01*
X236659Y108862D01*
X236625Y108674D01*
X236600Y108457D01*
X236585Y108211D01*
X236581Y107936D01*
X235581D01*
X235576Y108211D01*
X235537Y108674D01*
X235502Y108862D01*
X235458Y109022D01*
X235404Y109152D01*
X235340Y109254D01*
X235267Y109326D01*
X235183Y109369D01*
X235090Y109384D01*
X237071D01*
X236978Y109369D01*
D02*
G37*
G36*
X230679D02*
X230595Y109326D01*
X230522Y109254D01*
X230458Y109152D01*
X230404Y109022D01*
X230360Y108862D01*
X230326Y108674D01*
X230301Y108457D01*
X230286Y108211D01*
X230281Y107936D01*
X229281D01*
X229276Y108211D01*
X229237Y108674D01*
X229203Y108862D01*
X229159Y109022D01*
X229105Y109152D01*
X229041Y109254D01*
X228967Y109326D01*
X228884Y109369D01*
X228791Y109384D01*
X230772D01*
X230679Y109369D01*
D02*
G37*
G36*
X143147D02*
X143063Y109326D01*
X142990Y109254D01*
X142926Y109152D01*
X142872Y109022D01*
X142828Y108862D01*
X142794Y108674D01*
X142769Y108457D01*
X142754Y108211D01*
X142749Y107936D01*
X141749D01*
X141744Y108211D01*
X141705Y108674D01*
X141671Y108862D01*
X141627Y109022D01*
X141573Y109152D01*
X141509Y109254D01*
X141436Y109326D01*
X141352Y109369D01*
X141259Y109384D01*
X143240D01*
X143147Y109369D01*
D02*
G37*
G36*
X233825Y109258D02*
X233732Y109251D01*
X233648Y109215D01*
X233575Y109151D01*
X233511Y109058D01*
X233457Y108936D01*
X233413Y108785D01*
X233378Y108606D01*
X233354Y108398D01*
X233339Y108161D01*
X233334Y107895D01*
X232334Y107978D01*
X232330Y108150D01*
X232296Y108473D01*
X232266Y108625D01*
X232228Y108771D01*
X232182Y108911D01*
X232126Y109044D01*
X232063Y109170D01*
X231991Y109290D01*
X231910Y109404D01*
X233825Y109258D01*
D02*
G37*
G36*
X140071Y109330D02*
X140027Y109244D01*
X139988Y109145D01*
X139954Y109033D01*
X139926Y108909D01*
X139902Y108773D01*
X139871Y108463D01*
X139863Y108290D01*
X139860Y108104D01*
X138860Y107846D01*
X138856Y108099D01*
X138816Y108520D01*
X138782Y108688D01*
X138737Y108827D01*
X138683Y108938D01*
X138619Y109021D01*
X138545Y109075D01*
X138461Y109100D01*
X138368Y109097D01*
X140121Y109404D01*
X140071Y109330D01*
D02*
G37*
G36*
X274309Y107541D02*
X274320Y107482D01*
X274340Y107420D01*
X274367Y107356D01*
X274402Y107290D01*
X274445Y107221D01*
X274496Y107151D01*
X274554Y107078D01*
X274696Y106925D01*
X273989Y106218D01*
X273911Y106292D01*
X273763Y106418D01*
X273692Y106469D01*
X273624Y106512D01*
X273558Y106547D01*
X273494Y106574D01*
X273432Y106593D01*
X273373Y106605D01*
X273316Y106608D01*
X274306Y107598D01*
X274309Y107541D01*
D02*
G37*
G36*
X18763Y109607D02*
X19173Y109274D01*
X19375Y109139D01*
X19576Y109025D01*
X19774Y108932D01*
X19971Y108860D01*
X20166Y108809D01*
X20358Y108780D01*
X20550Y108771D01*
X17821Y106043D01*
X17813Y106234D01*
X17783Y106427D01*
X17732Y106622D01*
X17661Y106818D01*
X17568Y107017D01*
X17454Y107217D01*
X17319Y107420D01*
X17163Y107624D01*
X16986Y107830D01*
X16787Y108037D01*
X18555Y109805D01*
X18763Y109607D01*
D02*
G37*
G36*
X233334Y105942D02*
X233336Y105834D01*
X233349Y105640D01*
X233361Y105553D01*
X233377Y105474D01*
X233395Y105401D01*
X233417Y105336D01*
X233442Y105278D01*
X233471Y105227D01*
X233503Y105183D01*
X232110Y105318D01*
X232153Y105358D01*
X232191Y105406D01*
X232224Y105461D01*
X232254Y105523D01*
X232278Y105593D01*
X232298Y105670D01*
X232314Y105755D01*
X232325Y105848D01*
X232332Y105948D01*
X232334Y106055D01*
X233334Y105942D01*
D02*
G37*
G36*
X24367Y108037D02*
X24169Y107830D01*
X23836Y107420D01*
X23809Y107379D01*
X23850Y107372D01*
X24105Y107338D01*
X24376Y107318D01*
X24663Y107312D01*
X24710Y104812D01*
X24423Y104805D01*
X24152Y104784D01*
X23898Y104749D01*
X23660Y104701D01*
X23439Y104639D01*
X23234Y104562D01*
X23045Y104472D01*
X22873Y104369D01*
X22717Y104251D01*
X22578Y104120D01*
X22532Y106844D01*
X20605Y108771D01*
X20796Y108780D01*
X20989Y108809D01*
X21184Y108860D01*
X21380Y108932D01*
X21579Y109025D01*
X21779Y109139D01*
X21982Y109274D01*
X22186Y109430D01*
X22391Y109607D01*
X22599Y109805D01*
X24367Y108037D01*
D02*
G37*
G36*
X162700Y103923D02*
X162848Y103798D01*
X162919Y103747D01*
X162987Y103704D01*
X163053Y103669D01*
X163117Y103642D01*
X163179Y103623D01*
X163238Y103611D01*
X163296Y103608D01*
X162306Y102618D01*
X162302Y102675D01*
X162291Y102734D01*
X162272Y102796D01*
X162244Y102860D01*
X162209Y102926D01*
X162167Y102995D01*
X162116Y103065D01*
X162057Y103138D01*
X161915Y103291D01*
X162622Y103998D01*
X162700Y103923D01*
D02*
G37*
G36*
X139863Y103598D02*
X139871Y103500D01*
X139883Y103411D01*
X139901Y103332D01*
X139924Y103262D01*
X139952Y103202D01*
X139985Y103152D01*
X140023Y103111D01*
X140066Y103080D01*
X140114Y103059D01*
X138868Y102456D01*
X138860Y103603D01*
X139860Y103707D01*
X139863Y103598D01*
D02*
G37*
G36*
X54570Y105163D02*
X56774Y102959D01*
X56509Y102950D01*
X56248Y102918D01*
X55991Y102864D01*
X55738Y102787D01*
X55489Y102687D01*
X55245Y102564D01*
X55005Y102418D01*
X54769Y102249D01*
X54537Y102058D01*
X54309Y101844D01*
X52541Y103611D01*
X52755Y103839D01*
X52947Y104071D01*
X53115Y104307D01*
X53261Y104547D01*
X53304Y104633D01*
X53217Y104661D01*
X52943Y104727D01*
X52657Y104774D01*
X52358Y104802D01*
X52045Y104812D01*
X52005Y107312D01*
X52318Y107321D01*
X52617Y107350D01*
X52903Y107399D01*
X53175Y107466D01*
X53434Y107554D01*
X53679Y107660D01*
X53911Y107786D01*
X54129Y107931D01*
X54333Y108096D01*
X54524Y108279D01*
X54570Y105163D01*
D02*
G37*
G36*
X207968Y101351D02*
X207934Y101301D01*
X207904Y101244D01*
X207878Y101180D01*
X207856Y101108D01*
X207838Y101029D01*
X207824Y100943D01*
X207814Y100850D01*
X207806Y100642D01*
X206806D01*
X206804Y100750D01*
X206788Y100943D01*
X206774Y101029D01*
X206756Y101108D01*
X206734Y101180D01*
X206708Y101244D01*
X206678Y101301D01*
X206644Y101351D01*
X206606Y101394D01*
X208006D01*
X207968Y101351D01*
D02*
G37*
G36*
X207811Y98286D02*
X207826Y98114D01*
X207851Y97962D01*
X207886Y97830D01*
X207931Y97719D01*
X207986Y97628D01*
X208051Y97557D01*
X208126Y97506D01*
X208211Y97476D01*
X208306Y97466D01*
X206306D01*
X206401Y97476D01*
X206486Y97506D01*
X206561Y97557D01*
X206626Y97628D01*
X206681Y97719D01*
X206726Y97830D01*
X206761Y97962D01*
X206786Y98114D01*
X206801Y98286D01*
X206806Y98478D01*
X207806D01*
X207811Y98286D01*
D02*
G37*
G36*
X114341Y98622D02*
X114625Y98380D01*
X114909Y98166D01*
X115192Y97981D01*
X115475Y97824D01*
X115758Y97696D01*
X116040Y97596D01*
X116322Y97524D01*
X116604Y97481D01*
X116885Y97466D01*
X112581Y97478D01*
X112578Y97492D01*
X112546Y97535D01*
X112485Y97605D01*
X111497Y98623D01*
X111229Y98892D01*
X114057D01*
X114341Y98622D01*
D02*
G37*
G36*
X279766Y97466D02*
X279773Y97465D01*
X279790Y97464D01*
X279803Y97462D01*
X279814Y97458D01*
X279821Y97454D01*
X279825Y97449D01*
X279827Y97443D01*
X279825Y97436D01*
X279820Y97428D01*
X279812Y97420D01*
X279766Y97466D01*
X279754Y97466D01*
X278573D01*
X278555Y97473D01*
X278553Y97492D01*
X278567Y97525D01*
X278597Y97572D01*
X278642Y97631D01*
X278780Y97790D01*
X279105Y98127D01*
X279766Y97466D01*
D02*
G37*
G36*
X205735Y96492D02*
X206220Y96138D01*
X206253Y96124D01*
X206276Y96120D01*
Y95120D01*
X206253Y95115D01*
X206220Y95101D01*
X206178Y95078D01*
X206127Y95046D01*
X205998Y94954D01*
X205630Y94660D01*
Y96580D01*
X205735Y96492D01*
D02*
G37*
G36*
X205475Y94660D02*
X205370Y94747D01*
X204885Y95101D01*
X204853Y95115D01*
X204829Y95120D01*
Y96120D01*
X204853Y96124D01*
X204885Y96138D01*
X204927Y96161D01*
X204978Y96193D01*
X205107Y96285D01*
X205475Y96580D01*
Y94660D01*
D02*
G37*
G36*
X261700Y95924D02*
X261848Y95798D01*
X261919Y95747D01*
X261987Y95704D01*
X262053Y95669D01*
X262117Y95642D01*
X262179Y95623D01*
X262238Y95611D01*
X262296Y95608D01*
X261306Y94618D01*
X261302Y94675D01*
X261291Y94735D01*
X261272Y94796D01*
X261245Y94860D01*
X261210Y94926D01*
X261167Y94995D01*
X261116Y95065D01*
X261057Y95138D01*
X260915Y95291D01*
X261623Y95998D01*
X261700Y95924D01*
D02*
G37*
G36*
X202971Y93762D02*
X202946Y93877D01*
X202871Y93981D01*
X202746Y94072D01*
X202571Y94151D01*
X202346Y94218D01*
X202071Y94273D01*
X201746Y94315D01*
X200946Y94364D01*
X200471Y94370D01*
Y96870D01*
X200946Y96876D01*
X202071Y96967D01*
X202346Y97022D01*
X202571Y97089D01*
X202746Y97168D01*
X202871Y97259D01*
X202946Y97362D01*
X202971Y97478D01*
Y93762D01*
D02*
G37*
G36*
X187165Y97362D02*
X187240Y97259D01*
X187365Y97168D01*
X187540Y97089D01*
X187765Y97022D01*
X188040Y96967D01*
X188365Y96925D01*
X189165Y96876D01*
X189640Y96870D01*
Y94370D01*
X189165Y94364D01*
X188040Y94273D01*
X187765Y94218D01*
X187540Y94151D01*
X187365Y94072D01*
X187240Y93981D01*
X187165Y93877D01*
X187140Y93762D01*
Y97478D01*
X187165Y97362D01*
D02*
G37*
G36*
X303308Y93793D02*
X303324Y93600D01*
X303338Y93514D01*
X303356Y93435D01*
X303378Y93363D01*
X303404Y93299D01*
X303434Y93242D01*
X303468Y93192D01*
X303506Y93149D01*
X302106D01*
X302144Y93192D01*
X302178Y93242D01*
X302208Y93299D01*
X302234Y93363D01*
X302256Y93435D01*
X302274Y93514D01*
X302288Y93600D01*
X302298Y93693D01*
X302306Y93901D01*
X303306D01*
X303308Y93793D01*
D02*
G37*
G36*
X256664Y94062D02*
X256808Y93943D01*
X256873Y93901D01*
X256933Y93869D01*
X256989Y93848D01*
X257039Y93838D01*
X257085Y93839D01*
X257127Y93851D01*
X257163Y93875D01*
X256964Y92567D01*
X256032Y93277D01*
X256586Y94138D01*
X256664Y94062D01*
D02*
G37*
G36*
X229154Y92875D02*
X229307Y92769D01*
X229477Y92676D01*
X229666Y92595D01*
X229873Y92527D01*
X230097Y92472D01*
X230340Y92430D01*
X230601Y92401D01*
X230879Y92385D01*
X231176Y92382D01*
X228925Y90131D01*
X228922Y90427D01*
X228876Y90967D01*
X228835Y91209D01*
X228780Y91434D01*
X228712Y91641D01*
X228631Y91829D01*
X228538Y92000D01*
X228432Y92153D01*
X228312Y92287D01*
X229019Y92994D01*
X229154Y92875D01*
D02*
G37*
G36*
X248162Y89108D02*
X248152Y89203D01*
X248121Y89288D01*
X248071Y89363D01*
X248000Y89428D01*
X247909Y89483D01*
X247797Y89528D01*
X247666Y89563D01*
X247514Y89588D01*
X247342Y89603D01*
X247150Y89608D01*
Y90608D01*
X247342Y90613D01*
X247514Y90628D01*
X247666Y90653D01*
X247797Y90688D01*
X247909Y90733D01*
X248000Y90788D01*
X248071Y90853D01*
X248121Y90928D01*
X248152Y91013D01*
X248162Y91108D01*
Y89108D01*
D02*
G37*
G36*
X161989Y91013D02*
X162020Y90928D01*
X162070Y90853D01*
X162141Y90788D01*
X162232Y90733D01*
X162344Y90688D01*
X162475Y90653D01*
X162627Y90628D01*
X162799Y90613D01*
X162991Y90608D01*
Y89608D01*
X162799Y89603D01*
X162627Y89588D01*
X162475Y89563D01*
X162344Y89528D01*
X162232Y89483D01*
X162141Y89428D01*
X162070Y89363D01*
X162020Y89288D01*
X161989Y89203D01*
X161979Y89108D01*
Y91108D01*
X161989Y91013D01*
D02*
G37*
G36*
X157480Y89108D02*
X157470Y89203D01*
X157440Y89288D01*
X157389Y89363D01*
X157318Y89428D01*
X157227Y89483D01*
X157116Y89528D01*
X156984Y89563D01*
X156832Y89588D01*
X156660Y89603D01*
X156468Y89608D01*
Y90608D01*
X156660Y90613D01*
X156832Y90628D01*
X156984Y90653D01*
X157116Y90688D01*
X157227Y90733D01*
X157318Y90788D01*
X157389Y90853D01*
X157440Y90928D01*
X157470Y91013D01*
X157480Y91108D01*
Y89108D01*
D02*
G37*
G36*
X138472Y92875D02*
X138625Y92769D01*
X138796Y92676D01*
X138984Y92595D01*
X139191Y92527D01*
X139416Y92472D01*
X139658Y92430D01*
X139919Y92401D01*
X140198Y92385D01*
X140494Y92382D01*
X138893Y90781D01*
Y88516D01*
X138681Y88724D01*
X138268Y89073D01*
X138066Y89215D01*
X137869Y89335D01*
X137675Y89433D01*
X137484Y89510D01*
X137298Y89564D01*
X137115Y89597D01*
X136935Y89608D01*
Y90608D01*
X137115Y90619D01*
X137298Y90652D01*
X137484Y90706D01*
X137675Y90783D01*
X137869Y90881D01*
X138066Y91001D01*
X138176Y91078D01*
X138153Y91209D01*
X138098Y91434D01*
X138030Y91641D01*
X137950Y91829D01*
X137856Y92000D01*
X137750Y92153D01*
X137631Y92287D01*
X138338Y92994D01*
X138472Y92875D01*
D02*
G37*
G36*
X231176Y87835D02*
X230879Y87831D01*
X230340Y87786D01*
X230097Y87744D01*
X229873Y87689D01*
X229666Y87621D01*
X229477Y87541D01*
X229307Y87447D01*
X229154Y87341D01*
X229019Y87221D01*
X228312Y87929D01*
X228432Y88063D01*
X228538Y88216D01*
X228631Y88387D01*
X228712Y88575D01*
X228780Y88782D01*
X228835Y89007D01*
X228876Y89249D01*
X228906Y89510D01*
X228922Y89789D01*
X228925Y90085D01*
X231176Y87835D01*
D02*
G37*
G36*
X252616Y89183D02*
X252588Y89091D01*
Y88985D01*
X252616Y88865D01*
X252673Y88730D01*
X252758Y88582D01*
X252871Y88419D01*
X253012Y88242D01*
X253380Y87846D01*
X252673Y87139D01*
X252468Y87337D01*
X252100Y87648D01*
X251938Y87761D01*
X251789Y87846D01*
X251655Y87903D01*
X251535Y87931D01*
X251429D01*
X251337Y87903D01*
X251259Y87846D01*
X252673Y89261D01*
X252616Y89183D01*
D02*
G37*
G36*
X299589Y87715D02*
X299601Y87656D01*
X299620Y87594D01*
X299647Y87530D01*
X299682Y87464D01*
X299725Y87396D01*
X299776Y87325D01*
X299835Y87252D01*
X299976Y87099D01*
X299269Y86392D01*
X299192Y86467D01*
X299043Y86592D01*
X298973Y86643D01*
X298904Y86686D01*
X298838Y86721D01*
X298774Y86748D01*
X298713Y86768D01*
X298653Y86779D01*
X298596Y86782D01*
X299586Y87772D01*
X299589Y87715D01*
D02*
G37*
G36*
X119957Y86454D02*
X119759Y86249D01*
X119448Y85882D01*
X119334Y85719D01*
X119249Y85570D01*
X119193Y85436D01*
X119165Y85316D01*
Y85210D01*
X119193Y85118D01*
X119249Y85040D01*
X117835Y86454D01*
X117913Y86398D01*
X118005Y86369D01*
X118111D01*
X118231Y86398D01*
X118366Y86454D01*
X118514Y86539D01*
X118677Y86652D01*
X118853Y86794D01*
X119249Y87161D01*
X119957Y86454D01*
D02*
G37*
G36*
X180677Y86962D02*
X181046Y86649D01*
X181209Y86534D01*
X181358Y86448D01*
X181492Y86391D01*
X181612Y86361D01*
X181718Y86360D01*
X181809Y86387D01*
X181885Y86442D01*
X180483Y85040D01*
X180538Y85117D01*
X180566Y85208D01*
X180564Y85313D01*
X180535Y85433D01*
X180477Y85567D01*
X180391Y85716D01*
X180277Y85879D01*
X180134Y86056D01*
X179764Y86454D01*
X180471Y87161D01*
X180677Y86962D01*
D02*
G37*
G36*
X273983Y83596D02*
X273973Y83691D01*
X273943Y83776D01*
X273892Y83851D01*
X273821Y83916D01*
X273730Y83971D01*
X273619Y84016D01*
X273487Y84051D01*
X273335Y84076D01*
X273163Y84091D01*
X272971Y84096D01*
Y85096D01*
X273163Y85101D01*
X273335Y85116D01*
X273487Y85141D01*
X273619Y85176D01*
X273730Y85221D01*
X273821Y85276D01*
X273892Y85341D01*
X273943Y85416D01*
X273973Y85501D01*
X273983Y85596D01*
Y83596D01*
D02*
G37*
G36*
X209650Y85501D02*
X209680Y85416D01*
X209730Y85341D01*
X209800Y85276D01*
X209890Y85221D01*
X210000Y85176D01*
X210130Y85141D01*
X210280Y85116D01*
X210450Y85101D01*
X210640Y85096D01*
Y84096D01*
X210450Y84091D01*
X210280Y84076D01*
X210130Y84051D01*
X210000Y84016D01*
X209890Y83971D01*
X209800Y83916D01*
X209730Y83851D01*
X209680Y83776D01*
X209650Y83691D01*
X209640Y83596D01*
Y85596D01*
X209650Y85501D01*
D02*
G37*
G36*
X225968Y75851D02*
X225934Y75801D01*
X225904Y75744D01*
X225878Y75679D01*
X225856Y75608D01*
X225838Y75529D01*
X225824Y75443D01*
X225814Y75350D01*
X225806Y75142D01*
X224806D01*
X224804Y75249D01*
X224788Y75443D01*
X224774Y75529D01*
X224756Y75608D01*
X224734Y75679D01*
X224708Y75744D01*
X224678Y75801D01*
X224644Y75851D01*
X224606Y75894D01*
X226006D01*
X225968Y75851D01*
D02*
G37*
G36*
X315714Y73996D02*
X315558Y74280D01*
X315397Y74534D01*
X315230Y74759D01*
X315058Y74953D01*
X314881Y75118D01*
X314698Y75253D01*
X314510Y75357D01*
X314316Y75432D01*
X314117Y75477D01*
X313912Y75492D01*
X314054Y76492D01*
X314239Y76503D01*
X314442Y76536D01*
X314663Y76591D01*
X314903Y76669D01*
X315160Y76768D01*
X315730Y77033D01*
X316042Y77198D01*
X316721Y77595D01*
X315714Y73996D01*
D02*
G37*
G36*
X230902Y71841D02*
X230868Y71791D01*
X230838Y71734D01*
X230812Y71669D01*
X230790Y71598D01*
X230772Y71519D01*
X230758Y71433D01*
X230748Y71340D01*
X230740Y71132D01*
X229740D01*
X229738Y71239D01*
X229722Y71433D01*
X229708Y71519D01*
X229690Y71598D01*
X229668Y71669D01*
X229642Y71734D01*
X229612Y71791D01*
X229578Y71841D01*
X229540Y71884D01*
X230940D01*
X230902Y71841D01*
D02*
G37*
G36*
X266461Y67939D02*
X266427Y67889D01*
X266397Y67832D01*
X266371Y67768D01*
X266349Y67696D01*
X266331Y67617D01*
X266318Y67531D01*
X266307Y67438D01*
X266299Y67230D01*
X265299D01*
X265297Y67338D01*
X265281Y67531D01*
X265267Y67617D01*
X265249Y67696D01*
X265227Y67768D01*
X265201Y67832D01*
X265172Y67889D01*
X265137Y67939D01*
X265099Y67982D01*
X266499D01*
X266461Y67939D01*
D02*
G37*
G36*
X253309Y67541D02*
X253320Y67481D01*
X253340Y67420D01*
X253367Y67356D01*
X253402Y67290D01*
X253445Y67221D01*
X253496Y67151D01*
X253554Y67078D01*
X253696Y66925D01*
X252989Y66218D01*
X252911Y66293D01*
X252763Y66418D01*
X252692Y66469D01*
X252624Y66512D01*
X252558Y66547D01*
X252494Y66574D01*
X252432Y66593D01*
X252373Y66605D01*
X252316Y66608D01*
X253306Y67598D01*
X253309Y67541D01*
D02*
G37*
G36*
X241498Y67403D02*
X241510Y67343D01*
X241529Y67282D01*
X241556Y67218D01*
X241591Y67152D01*
X241634Y67083D01*
X241685Y67013D01*
X241744Y66940D01*
X241885Y66787D01*
X241178Y66080D01*
X241101Y66154D01*
X240953Y66280D01*
X240882Y66331D01*
X240813Y66374D01*
X240747Y66409D01*
X240683Y66436D01*
X240622Y66455D01*
X240562Y66467D01*
X240505Y66470D01*
X241495Y67460D01*
X241498Y67403D01*
D02*
G37*
G36*
X278309Y66041D02*
X278320Y65982D01*
X278340Y65920D01*
X278367Y65856D01*
X278402Y65790D01*
X278445Y65721D01*
X278496Y65651D01*
X278554Y65578D01*
X278696Y65425D01*
X277989Y64718D01*
X277911Y64793D01*
X277763Y64918D01*
X277692Y64969D01*
X277624Y65012D01*
X277558Y65047D01*
X277494Y65074D01*
X277432Y65093D01*
X277373Y65105D01*
X277316Y65108D01*
X278306Y66098D01*
X278309Y66041D01*
D02*
G37*
G36*
X49560Y56271D02*
X49592Y55811D01*
X49620Y55609D01*
X49657Y55426D01*
X49701Y55262D01*
X49753Y55117D01*
X49814Y54991D01*
X49882Y54883D01*
X49959Y54795D01*
X46652D01*
X46729Y54883D01*
X46797Y54991D01*
X46858Y55117D01*
X46910Y55262D01*
X46955Y55426D01*
X46991Y55609D01*
X47019Y55811D01*
X47052Y56271D01*
X47056Y56530D01*
X49556D01*
X49560Y56271D01*
D02*
G37*
G36*
X225811Y31782D02*
X225826Y31610D01*
X225851Y31458D01*
X225886Y31326D01*
X225931Y31215D01*
X225986Y31124D01*
X226051Y31053D01*
X226126Y31002D01*
X226211Y30972D01*
X226306Y30962D01*
X224306D01*
X224401Y30972D01*
X224486Y31002D01*
X224561Y31053D01*
X224626Y31124D01*
X224681Y31215D01*
X224726Y31326D01*
X224761Y31458D01*
X224786Y31610D01*
X224801Y31782D01*
X224806Y31974D01*
X225806D01*
X225811Y31782D01*
D02*
G37*
G36*
X315336Y32391D02*
X315378Y32180D01*
X315450Y31960D01*
X315550Y31733D01*
X315679Y31497D01*
X315836Y31254D01*
X316022Y31002D01*
X316236Y30742D01*
X316750Y30198D01*
X312892D01*
X313164Y30474D01*
X313621Y31002D01*
X313807Y31254D01*
X313964Y31497D01*
X314093Y31733D01*
X314193Y31960D01*
X314264Y32180D01*
X314307Y32391D01*
X314321Y32594D01*
X315321D01*
X315336Y32391D01*
D02*
G37*
G36*
X295651D02*
X295693Y32180D01*
X295765Y31960D01*
X295865Y31733D01*
X295993Y31497D01*
X296151Y31254D01*
X296337Y31002D01*
X296551Y30742D01*
X297065Y30198D01*
X293207D01*
X293479Y30474D01*
X293936Y31002D01*
X294122Y31254D01*
X294279Y31497D01*
X294408Y31733D01*
X294508Y31960D01*
X294579Y32180D01*
X294622Y32391D01*
X294636Y32594D01*
X295636D01*
X295651Y32391D01*
D02*
G37*
G36*
X256536D02*
X256579Y32180D01*
X256650Y31960D01*
X256750Y31733D01*
X256879Y31497D01*
X257036Y31254D01*
X257222Y31002D01*
X257436Y30742D01*
X257951Y30198D01*
X254093D01*
X254364Y30474D01*
X254821Y31002D01*
X255007Y31254D01*
X255164Y31497D01*
X255293Y31733D01*
X255393Y31960D01*
X255465Y32180D01*
X255507Y32391D01*
X255522Y32594D01*
X256522D01*
X256536Y32391D01*
D02*
G37*
G36*
X246693D02*
X246736Y32180D01*
X246808Y31960D01*
X246908Y31733D01*
X247036Y31497D01*
X247194Y31254D01*
X247379Y31002D01*
X247594Y30742D01*
X248108Y30198D01*
X244250D01*
X244521Y30474D01*
X244979Y31002D01*
X245165Y31254D01*
X245322Y31497D01*
X245450Y31733D01*
X245550Y31960D01*
X245622Y32180D01*
X245665Y32391D01*
X245679Y32594D01*
X246679D01*
X246693Y32391D01*
D02*
G37*
G36*
X61054Y30088D02*
X60558Y29574D01*
X59778Y28654D01*
X59494Y28247D01*
X59281Y27875D01*
X59138Y27540D01*
X59095Y27360D01*
X59145Y27146D01*
X59287Y26810D01*
X59499Y26439D01*
X59782Y26032D01*
X60135Y25590D01*
X61054Y24600D01*
X59287Y22833D01*
X58774Y23327D01*
X57855Y24105D01*
X57448Y24388D01*
X57077Y24600D01*
X56741Y24742D01*
X56441Y24813D01*
X56175D01*
X55946Y24742D01*
X55751Y24600D01*
X58489Y27338D01*
X55751Y30076D01*
X55945Y29936D01*
X56173Y29866D01*
X56438Y29868D01*
X56738Y29939D01*
X57074Y30082D01*
X57445Y30295D01*
X57852Y30580D01*
X58295Y30934D01*
X59287Y31856D01*
X61054Y30088D01*
D02*
G37*
G36*
X282756Y31482D02*
X283125Y31168D01*
X283288Y31054D01*
X283437Y30968D01*
X283571Y30910D01*
X283691Y30881D01*
X283796Y30880D01*
X283887Y30907D01*
X283964Y30962D01*
X282562Y29560D01*
X282617Y29636D01*
X282644Y29728D01*
X282643Y29833D01*
X282614Y29953D01*
X282556Y30087D01*
X282470Y30236D01*
X282355Y30399D01*
X282213Y30576D01*
X281843Y30974D01*
X282550Y31681D01*
X282756Y31482D01*
D02*
G37*
G36*
X233758Y31536D02*
X233938Y31417D01*
X234143Y31312D01*
X234375Y31222D01*
X234632Y31147D01*
X234916Y31086D01*
X235225Y31039D01*
X235560Y31007D01*
X236309Y30986D01*
X233581Y28258D01*
X233578Y28645D01*
X233528Y29342D01*
X233481Y29651D01*
X233420Y29934D01*
X233345Y30192D01*
X233254Y30423D01*
X233150Y30629D01*
X233031Y30808D01*
X232897Y30962D01*
X233605Y31669D01*
X233758Y31536D01*
D02*
G37*
G36*
X23187Y30197D02*
X23263Y29985D01*
X23389Y29797D01*
X23565Y29635D01*
X23791Y29497D01*
X24067Y29385D01*
X24394Y29297D01*
X24770Y29235D01*
X25197Y29197D01*
X25673Y29185D01*
Y26685D01*
X25199Y26676D01*
X24398Y26603D01*
X24073Y26540D01*
X23799Y26459D01*
X23573Y26360D01*
X23399Y26242D01*
X23273Y26107D01*
X23199Y25953D01*
X23174Y25781D01*
X23162Y30435D01*
X23187Y30197D01*
D02*
G37*
G36*
X53811Y25435D02*
X53785Y25672D01*
X53709Y25885D01*
X53583Y26072D01*
X53407Y26235D01*
X53181Y26372D01*
X52905Y26485D01*
X52579Y26572D01*
X52202Y26635D01*
X51775Y26672D01*
X51299Y26685D01*
Y29185D01*
X51774Y29194D01*
X52574Y29266D01*
X52899Y29329D01*
X53174Y29411D01*
X53399Y29510D01*
X53574Y29627D01*
X53699Y29763D01*
X53774Y29917D01*
X53799Y30088D01*
X53811Y25435D01*
D02*
G37*
G36*
X135491Y24600D02*
X135296Y24742D01*
X135067Y24813D01*
X134801D01*
X134501Y24742D01*
X134165Y24600D01*
X133794Y24388D01*
X133387Y24105D01*
X132945Y23752D01*
X131955Y22833D01*
X130188Y24600D01*
X130683Y25113D01*
X131460Y26032D01*
X131743Y26439D01*
X131955Y26810D01*
X132097Y27146D01*
X132167Y27446D01*
Y27712D01*
X132097Y27941D01*
X131955Y28136D01*
X135491Y24600D01*
D02*
G37*
D14*
X252458Y113108D02*
X280535D01*
X281535Y114108D01*
X281806D01*
X257663Y118234D02*
X278180D01*
X257537Y118360D02*
X257663Y118234D01*
X278180D02*
X278306Y118108D01*
X236806Y104608D02*
Y104879D01*
X236081Y105604D02*
Y112651D01*
Y105604D02*
X236806Y104879D01*
X232834Y112555D02*
X232931Y112651D01*
X232737Y104540D02*
X232834Y104637D01*
Y112555D01*
X239860Y93882D02*
X253306D01*
X217806Y113108D02*
Y114750D01*
X240806Y90108D02*
X250411D01*
X229781Y103961D02*
Y112651D01*
X217806Y113108D02*
X240806Y90108D01*
X229781Y103961D02*
X239860Y93882D01*
X239306Y102108D02*
Y105699D01*
X239230Y105774D02*
X239306Y105699D01*
X239230Y105774D02*
Y112651D01*
X239306Y102108D02*
X245532Y95882D01*
X252001Y112651D02*
X252458Y113108D01*
X251829Y112651D02*
X252001D01*
X124247Y149167D02*
X127806Y145608D01*
X119073Y149167D02*
X124247D01*
X254160Y216108D02*
Y222753D01*
X253806Y223108D02*
X254160Y222753D01*
X217310Y202612D02*
Y228986D01*
X225035Y181608D02*
X225535Y182108D01*
X225806D01*
X187556Y181608D02*
X225035D01*
X195806Y192108D02*
X201306D01*
X194306Y208608D02*
X201806Y216108D01*
X203683D01*
X198806Y184108D02*
X217310Y202612D01*
X162556Y206608D02*
X187556Y181608D01*
X215695Y230108D02*
X216187D01*
X217310Y228986D01*
X174344Y141415D02*
Y141826D01*
Y141415D02*
X180864Y134895D01*
X206276Y95620D02*
X206306D01*
X204829D02*
X206276D01*
X207306Y96620D02*
Y102108D01*
X206306Y95620D02*
X207306Y96620D01*
X215365Y149167D02*
X218806Y152608D01*
X208805Y149167D02*
X215365D01*
X202306Y126108D02*
X206794Y121620D01*
X208805D01*
X267099Y134895D02*
X267814D01*
X264968Y137741D02*
X267814Y134895D01*
X272544D01*
X279459Y97773D02*
Y98786D01*
X277306Y95620D02*
X279459Y97773D01*
X107806Y121108D02*
X108317Y121620D01*
X245529Y102384D02*
X247141Y100772D01*
X256141D01*
X245529Y102384D02*
Y112651D01*
X245532Y95882D02*
X254135D01*
X277306Y66108D02*
X295136Y48277D01*
Y28230D02*
Y48277D01*
X256141Y100772D02*
X262306Y94608D01*
X254135Y95882D02*
X257408Y92608D01*
X257806D01*
X265799Y47724D02*
Y68696D01*
Y47724D02*
X285294Y28230D01*
X257806Y92608D02*
Y93108D01*
X256580Y90608D02*
X299296D01*
X250411Y90108D02*
X255923Y84596D01*
X277306D01*
X299296Y90608D02*
X313912Y75992D01*
X252306Y67608D02*
X256022Y63892D01*
Y28230D02*
Y63892D01*
X246179Y28230D02*
Y61786D01*
X240495Y67470D02*
X246179Y61786D01*
X230240Y34327D02*
Y72598D01*
Y34327D02*
X236337Y28230D01*
X225306Y29419D02*
Y76608D01*
X242380Y130182D02*
X247455Y135258D01*
X248306D01*
X248806Y134758D01*
X238489Y136249D02*
X239498Y137258D01*
X257537D01*
X225306Y29419D02*
X226494Y28230D01*
X235306Y139108D02*
X236605Y140407D01*
X257537D01*
X299806Y145108D02*
X308741D01*
X310680Y143169D01*
X251829Y146116D02*
Y152631D01*
X255303Y156105D01*
X256131D02*
X268114Y144122D01*
X255303Y156105D02*
X256131D01*
X253885Y158694D02*
X258720D01*
X248679Y146116D02*
Y153488D01*
X258720Y158694D02*
X266306Y151108D01*
X248679Y153488D02*
X253885Y158694D01*
X268114Y143299D02*
Y144122D01*
Y143299D02*
X268306Y143108D01*
X273306Y107608D02*
X278306Y102608D01*
X298306D02*
X302806Y98108D01*
X278306Y102608D02*
X298306D01*
X302806Y92435D02*
Y98108D01*
X317425Y75992D02*
X318168Y75250D01*
X313912Y75992D02*
X317425D01*
X298586Y87782D02*
X314821Y71547D01*
Y28230D02*
Y71547D01*
X262306Y163108D02*
X280987Y144427D01*
Y127122D02*
Y144427D01*
X253306Y93882D02*
X256580Y90608D01*
X257537Y130958D02*
X263162D01*
X267099Y134895D01*
X222084Y146116D02*
X229781D01*
X220576Y144608D02*
X222084Y146116D01*
X220306Y144608D02*
X220576D01*
X229411Y133608D02*
X238306Y124714D01*
Y124608D02*
Y124714D01*
X236159Y131299D02*
X237114D01*
X229411Y138047D02*
X236159Y131299D01*
X237114D02*
X237306Y131108D01*
X227006Y140407D02*
X227475Y139939D01*
X227841D01*
X229411Y138368D01*
Y138047D02*
Y138368D01*
X224073Y140407D02*
X227006D01*
X229411Y133608D02*
Y135219D01*
X248211Y116146D02*
Y116419D01*
X245806Y118824D02*
X248211Y116419D01*
Y116146D02*
X248679Y115677D01*
Y112651D02*
Y115677D01*
X245806Y118824D02*
Y127608D01*
X242380Y112651D02*
Y130182D01*
X224073Y137258D02*
X225156D01*
X225624Y136789D01*
X227841D01*
X229411Y135219D01*
X301306Y150742D02*
Y183427D01*
Y150742D02*
X302675Y149373D01*
X246872Y239655D02*
X257542Y228986D01*
Y209345D02*
Y228986D01*
X245628Y197430D02*
X257542Y209345D01*
X245628Y191786D02*
Y197430D01*
X272544Y123872D02*
X277576D01*
X266311D02*
X272544D01*
X242343Y146153D02*
Y151535D01*
X238806Y152244D02*
X239230Y151819D01*
Y156397D02*
Y160068D01*
Y146116D02*
Y151819D01*
X242306Y156643D02*
Y159608D01*
X240806Y153073D02*
Y155143D01*
X242306Y156643D01*
X245529Y146116D02*
Y151884D01*
X240806Y153073D02*
X242343Y151535D01*
X243306Y154108D02*
X245529Y151884D01*
X238806Y152244D02*
Y155972D01*
X239230Y156397D01*
X301306Y183427D02*
X315806Y197927D01*
X179920Y198590D02*
Y198686D01*
Y198590D02*
X188806Y189704D01*
Y189608D02*
Y189704D01*
X179806Y198800D02*
X179920Y198686D01*
X179806Y198800D02*
Y200108D01*
X164306Y215608D02*
Y230045D01*
Y215608D02*
X179806Y200108D01*
X163442Y208608D02*
X187942Y184108D01*
X188770Y186108D02*
X189806D01*
X161634Y210608D02*
X164270D01*
X137868Y208608D02*
X163442D01*
X164270Y210608D02*
X188770Y186108D01*
X187942Y184108D02*
X191806D01*
X108806Y206608D02*
X162556D01*
X203770Y166108D02*
X218306D01*
X195306Y158608D02*
X204306D01*
X194806Y159108D02*
X195306Y158608D01*
X194668Y158865D02*
Y158970D01*
X194806Y159108D01*
X232931Y146116D02*
Y151482D01*
X218306Y166108D02*
X232931Y151482D01*
X189806Y186108D02*
X195806Y192108D01*
X128883Y217594D02*
X137868Y208608D01*
X154648Y217594D02*
X161634Y210608D01*
X136757Y217594D02*
X154648D01*
X92306Y223108D02*
X108806Y206608D01*
X219823Y170090D02*
Y171590D01*
X233173Y166126D02*
X239230Y160068D01*
X227323Y166126D02*
X233173D01*
X219823Y170090D02*
X236081Y153833D01*
X219806Y171608D02*
X219823Y171590D01*
X236081Y146116D02*
Y153833D01*
X239230Y160068D02*
X246809Y167647D01*
X242343Y146153D02*
X242380Y146116D01*
X246809Y167647D02*
Y175281D01*
X241656Y219654D02*
X243916Y217395D01*
Y216108D02*
Y217395D01*
X241656Y219654D02*
Y230108D01*
X176054Y118360D02*
X176306Y118108D01*
X166856Y118360D02*
X176054D01*
X97066Y239655D02*
X246872D01*
X30127Y235573D02*
X210231D01*
X29541Y234987D02*
X30127Y235573D01*
X18023Y223108D02*
X20613Y225699D01*
X29541Y234626D02*
Y234987D01*
X20613Y225699D02*
Y225699D01*
X29541Y234626D01*
X210231Y235573D02*
X215695Y230108D01*
X201916D02*
X212546Y219478D01*
Y217490D02*
Y219478D01*
Y217490D02*
X213928Y216108D01*
X201424Y230108D02*
X201916D01*
X164306Y230045D02*
X164369Y230108D01*
X158806Y159608D02*
Y162108D01*
X153197Y183716D02*
X154806Y182108D01*
X103697Y183716D02*
X153197D01*
X128319Y186216D02*
Y194095D01*
X128306Y194108D02*
X128319Y194095D01*
X94306Y193108D02*
X103697Y183716D01*
X135895Y170340D02*
X142249Y163985D01*
Y146116D02*
Y163985D01*
X136806Y159108D02*
X139100Y156814D01*
Y146116D02*
Y156814D01*
X150306Y171608D02*
Y180608D01*
X145399Y166701D02*
X150306Y171608D01*
X142306Y194608D02*
X147614Y189299D01*
X148614D02*
X148806Y189108D01*
X147614Y189299D02*
X148614D01*
X145399Y146116D02*
Y166701D01*
X58806Y192608D02*
X83306D01*
X91806Y184108D01*
X86197Y181243D02*
X86832Y180608D01*
X106806D01*
X53171Y181243D02*
X86197D01*
X42306Y192108D02*
X53171Y181243D01*
X94306Y193108D02*
Y193164D01*
X147806Y136608D02*
X157997Y126416D01*
Y112651D02*
Y126416D01*
X153806Y137108D02*
X161147Y129766D01*
Y112651D02*
Y129766D01*
X151752Y152554D02*
X158806Y159608D01*
X142249Y105321D02*
Y112651D01*
Y105321D02*
X145962Y101608D01*
X153065Y100339D02*
X154148D01*
X145962Y101608D02*
X151796D01*
X153065Y100339D01*
X158601Y107313D02*
X163306Y102608D01*
X145399Y112651D02*
X145868Y112183D01*
Y108883D02*
Y112183D01*
Y108883D02*
X147438Y107313D01*
X158601D01*
X139360Y102553D02*
Y112391D01*
X126806Y109451D02*
Y114432D01*
X139360Y102553D02*
X139806Y102108D01*
X146149Y90108D02*
X159730D01*
X139100Y112651D02*
X139360Y112391D01*
X126806Y109451D02*
X146149Y90108D01*
X132145Y98480D02*
X140517Y90108D01*
X132019Y98480D02*
X132145D01*
X119073Y145481D02*
X125923Y138631D01*
X119073Y145481D02*
Y149167D01*
X128806Y134108D02*
X133391D01*
X125923Y136991D02*
X128806Y134108D01*
X125923Y136991D02*
Y138631D01*
X133391Y137258D02*
X133466Y137183D01*
X141731D02*
X141806Y137108D01*
X133466Y137183D02*
X141731D01*
X89998Y132544D02*
X90434Y132108D01*
X102806D01*
X89306Y141084D02*
X101806D01*
X126806Y114432D02*
X130734Y118360D01*
X124806Y105694D02*
X132019Y98480D01*
X133137Y124405D02*
X133391Y124659D01*
X119073Y110596D02*
Y114282D01*
X124806Y105694D02*
Y116224D01*
X129623Y121041D01*
X119073Y114282D02*
X129196Y124405D01*
X130734Y118360D02*
X133391D01*
X129196Y124405D02*
X133137D01*
X133391Y152006D02*
X133553Y152168D01*
X133391Y140407D02*
Y152006D01*
X154806Y176602D02*
Y182108D01*
Y176602D02*
X156127Y175281D01*
Y165087D02*
Y175281D01*
X82306Y145834D02*
X83080D01*
X314585Y217612D02*
X315806D01*
X313149Y216177D02*
X314585Y217612D01*
X234801Y175281D02*
Y176363D01*
X175946Y123872D02*
X180864D01*
X173584Y121510D02*
X175946Y123872D01*
X180864D02*
X180919Y123927D01*
X148549Y146116D02*
Y157508D01*
X156127Y165087D01*
X151752Y146169D02*
Y152554D01*
X151698Y146116D02*
X151752Y146169D01*
X208805Y121620D02*
X210282D01*
X206306Y84596D02*
X225687D01*
X231199Y90108D01*
X117392Y84596D02*
X122903Y90108D01*
X115915Y84596D02*
X117392D01*
X122903Y90108D02*
X140517D01*
X176817D02*
X182329Y84596D01*
X183806D01*
X159730Y90108D02*
X176817D01*
X217806Y114750D02*
X221415Y118360D01*
X224073D01*
X214806Y106501D02*
X231199Y90108D01*
X220578Y121041D02*
X221047Y121510D01*
X220305Y121041D02*
X220578D01*
X221047Y121510D02*
X224073D01*
X214806Y115542D02*
X220305Y121041D01*
X214806Y106501D02*
Y115542D01*
X129623Y121041D02*
X129896D01*
X130365Y121510D01*
X133391D01*
X19714Y172694D02*
X20577Y171830D01*
X17720Y172694D02*
X19714D01*
X20577Y106015D02*
X20624Y106062D01*
X56759D02*
X56806Y106108D01*
X120549Y121620D02*
X126738Y127809D01*
X263949Y121510D02*
X266311Y123872D01*
X257537Y121510D02*
X263949D01*
X212306Y148608D02*
X215806Y145108D01*
Y139076D02*
X220305Y134576D01*
X215806Y139076D02*
Y145108D01*
X209365Y148608D02*
X212306D01*
X208805Y149167D02*
X209365Y148608D01*
X220305Y134576D02*
X220578D01*
X221047Y134108D01*
X224073D01*
X210282Y138143D02*
X217467Y130958D01*
X208805Y138143D02*
X210282D01*
X217467Y130958D02*
X224073D01*
X220578Y124191D02*
X221047Y124659D01*
X220305Y124191D02*
X220578D01*
X211652Y115538D02*
X220305Y124191D01*
X211652Y111966D02*
Y115538D01*
X210282Y110596D02*
X211652Y111966D01*
X221047Y124659D02*
X224073D01*
X216471Y127809D02*
X224073D01*
X210282Y121620D02*
X216471Y127809D01*
X175450Y130958D02*
X179387Y134895D01*
X180864D01*
X166856Y130958D02*
X175450D01*
X166856Y121510D02*
X173584D01*
X119073Y121620D02*
X120549D01*
X126738Y127809D02*
X133391D01*
X120549Y138143D02*
X127734Y130958D01*
X133391D01*
X119073Y138143D02*
X120549D01*
D17*
X243916Y216108D02*
D03*
X254160D02*
D03*
X213928D02*
D03*
X203683D02*
D03*
D18*
X115915Y95620D02*
D03*
Y84596D02*
D03*
X183806Y95620D02*
D03*
Y84596D02*
D03*
X208805Y110596D02*
D03*
Y121620D02*
D03*
Y138143D02*
D03*
Y149167D02*
D03*
X206306Y95620D02*
D03*
Y84596D02*
D03*
X119073Y138143D02*
D03*
Y149167D02*
D03*
Y110596D02*
D03*
Y121620D02*
D03*
X180864Y123872D02*
D03*
Y134895D02*
D03*
X277306Y95620D02*
D03*
Y84596D02*
D03*
X272544Y123872D02*
D03*
Y134895D02*
D03*
D20*
X201424Y230108D02*
D03*
X216187D02*
D03*
X241656D02*
D03*
X256420D02*
D03*
D21*
X38023Y231612D02*
D03*
X92306D02*
D03*
X82306Y145834D02*
D03*
Y73830D02*
D03*
D22*
X48023Y223108D02*
D03*
X38023D02*
D03*
X28023D02*
D03*
X102306D02*
D03*
X92306D02*
D03*
X82306D02*
D03*
D23*
X18023D02*
D03*
X72306D02*
D03*
D26*
X318168Y75250D02*
D03*
Y85092D02*
D03*
Y94935D02*
D03*
Y104777D02*
D03*
Y114620D02*
D03*
X315806Y227454D02*
D03*
Y217612D02*
D03*
Y207769D02*
D03*
Y197927D02*
D03*
Y188084D02*
D03*
X105755Y27344D02*
D03*
X95913D02*
D03*
X86070D02*
D03*
X76228D02*
D03*
X66385D02*
D03*
X20430Y38368D02*
D03*
X20577Y86330D02*
D03*
Y96173D02*
D03*
Y106015D02*
D03*
X183912Y27344D02*
D03*
X174069D02*
D03*
X164227D02*
D03*
X154384D02*
D03*
X144542D02*
D03*
X236337Y28230D02*
D03*
X246179D02*
D03*
X256022D02*
D03*
X295136D02*
D03*
X304979D02*
D03*
X314821D02*
D03*
X20577Y161988D02*
D03*
Y171830D02*
D03*
Y181673D02*
D03*
D27*
X318168Y124462D02*
D03*
X315806Y178242D02*
D03*
X20430Y28525D02*
D03*
X20577Y76488D02*
D03*
Y152145D02*
D03*
D28*
X136757Y217594D02*
D03*
X128883Y230108D02*
D03*
X282489D02*
D03*
X172243D02*
D03*
D29*
X128883Y217594D02*
D03*
X136757Y230108D02*
D03*
X274615D02*
D03*
X164369D02*
D03*
D30*
X82306Y185204D02*
D03*
Y113200D02*
D03*
D32*
X56543Y27344D02*
D03*
X134699D02*
D03*
X226494Y28230D02*
D03*
X285294D02*
D03*
D36*
X229781Y146116D02*
D03*
X232931D02*
D03*
X236081D02*
D03*
X239230D02*
D03*
X242380D02*
D03*
X245529D02*
D03*
X248679D02*
D03*
X251829D02*
D03*
Y112651D02*
D03*
X248679D02*
D03*
X245529D02*
D03*
X242380D02*
D03*
X239230D02*
D03*
X236081D02*
D03*
X232931D02*
D03*
X229781D02*
D03*
X139100Y146116D02*
D03*
X142249D02*
D03*
X145399D02*
D03*
X148549D02*
D03*
X151698D02*
D03*
X154848D02*
D03*
X157997D02*
D03*
X161147D02*
D03*
Y112651D02*
D03*
X157997D02*
D03*
X154848D02*
D03*
X151698D02*
D03*
X148549D02*
D03*
X145399D02*
D03*
X142249D02*
D03*
X139100D02*
D03*
D37*
X257537Y140407D02*
D03*
Y137258D02*
D03*
Y134108D02*
D03*
Y130958D02*
D03*
Y127809D02*
D03*
Y124659D02*
D03*
Y121510D02*
D03*
Y118360D02*
D03*
X224073D02*
D03*
Y121510D02*
D03*
Y124659D02*
D03*
Y127809D02*
D03*
Y130958D02*
D03*
Y134108D02*
D03*
Y137258D02*
D03*
Y140407D02*
D03*
X166856D02*
D03*
Y137258D02*
D03*
Y134108D02*
D03*
Y130958D02*
D03*
Y127809D02*
D03*
Y124659D02*
D03*
Y121510D02*
D03*
Y118360D02*
D03*
X133391D02*
D03*
Y121510D02*
D03*
Y124659D02*
D03*
Y127809D02*
D03*
Y130958D02*
D03*
Y134108D02*
D03*
Y137258D02*
D03*
Y140407D02*
D03*
D38*
X156127Y175281D02*
D03*
X144120D02*
D03*
X246809D02*
D03*
X234801D02*
D03*
D39*
X315806Y227454D02*
X325806Y217454D01*
Y198084D02*
Y217454D01*
X315806Y188084D02*
X325806Y198084D01*
X306540Y114620D02*
X318168D01*
X295824Y125336D02*
X306540Y114620D01*
X259760Y184154D02*
X295824Y148090D01*
X277576Y123872D02*
X294359D01*
X295824Y125336D02*
Y148090D01*
X294359Y123872D02*
X295824Y125336D01*
X234801Y176363D02*
X263046Y204608D01*
X201478Y175281D02*
X234801D01*
X193806Y167608D02*
X201478Y175281D01*
X190306Y167608D02*
X193806D01*
X190306Y126608D02*
Y167608D01*
X191306Y150608D02*
X203528Y138386D01*
X188306Y124608D02*
X190306Y126608D01*
X155806Y202108D02*
X190306Y167608D01*
X25806Y202108D02*
X155806D01*
X10306Y186608D02*
X25806Y202108D01*
X82306Y131108D02*
Y145834D01*
Y131108D02*
X102817Y110596D01*
X119073D01*
X187624Y123927D02*
X188306Y124608D01*
X208805Y110596D02*
X210282D01*
X202317D02*
X208805D01*
X243674Y184154D02*
X259760D01*
X263046Y204608D02*
X274615Y216177D01*
X263046Y204608D02*
X301581D01*
X313149Y216177D01*
X274615D02*
Y230108D01*
X188306Y124608D02*
X202317Y110596D01*
X180919Y123927D02*
X187624D01*
X208563Y138386D02*
X208805Y138143D01*
X203528Y138386D02*
X208563D01*
X10306Y116287D02*
Y186608D01*
Y116287D02*
X20577Y106015D01*
X130633Y175281D02*
X144120D01*
X109806Y145834D02*
Y154453D01*
X130633Y175281D01*
X109806Y145834D02*
X111382D01*
X83080D02*
X109806D01*
X204209Y96240D02*
X205656D01*
X206276Y95620D01*
X183806D02*
X204829D01*
X111382Y145834D02*
X119073Y138143D01*
X52220Y162445D02*
X68831Y145834D01*
X39806Y162445D02*
X52220D01*
X68831Y145834D02*
X82306D01*
X20624Y106062D02*
X39806Y125244D01*
X20577Y181673D02*
X39806Y162445D01*
Y125244D02*
Y162445D01*
X48306Y97608D02*
X56759Y106062D01*
X20624D02*
X56759D01*
X56806Y116108D02*
X71806Y101108D01*
Y42607D02*
Y101108D01*
X48306Y53108D02*
Y97608D01*
X54806Y150506D02*
Y151108D01*
X56806Y116108D02*
Y148506D01*
X54806Y150506D02*
X56806Y148506D01*
X56543Y27344D02*
X71806Y42607D01*
X56543Y27344D02*
X68779Y15108D01*
X122463D01*
X134699Y27344D01*
X21020Y27935D02*
X55952D01*
X20430Y28525D02*
X21020Y27935D01*
X55952D02*
X56543Y27344D01*
D40*
X108317Y121620D02*
X119073D01*
X107949Y99975D02*
X111560D01*
X115915Y95620D01*
D41*
X161499Y182008D02*
X162906D01*
X146242Y197264D02*
X161499Y182008D01*
X162906Y160208D02*
Y182008D01*
X27462Y197264D02*
X146242D01*
X148819Y194122D02*
Y194687D01*
X154848Y152150D02*
X162906Y160208D01*
X14306Y184108D02*
X27462Y197264D01*
X14306Y176108D02*
Y184108D01*
Y176108D02*
X17720Y172694D01*
X154848Y146116D02*
Y152150D01*
D42*
X250411Y90108D02*
D03*
X159730D02*
D03*
D43*
X231199D02*
D03*
X140517D02*
D03*
D44*
X54806Y151108D02*
D03*
Y176108D02*
D03*
X48306Y53108D02*
D03*
X58306D02*
D03*
D45*
X56806Y96108D02*
D03*
D46*
Y106108D02*
D03*
Y116108D02*
D03*
D47*
X9306Y8608D02*
D03*
Y249108D02*
D03*
X339306Y8608D02*
D03*
Y249108D02*
D03*
D48*
X107949Y99975D02*
D03*
X163306Y102608D02*
D03*
X139806Y102108D02*
D03*
X154148Y100339D02*
D03*
X42306Y192108D02*
D03*
X58806Y192608D02*
D03*
X106806Y180608D02*
D03*
X147806Y136608D02*
D03*
X141806Y137108D02*
D03*
X153806D02*
D03*
X135895Y170340D02*
D03*
X89306Y141084D02*
D03*
X101806D02*
D03*
X127806Y145608D02*
D03*
X160806Y157608D02*
D03*
X133553Y152168D02*
D03*
X150306Y180608D02*
D03*
X136806Y159108D02*
D03*
X158806Y162108D02*
D03*
X94306Y193164D02*
D03*
X142306Y194608D02*
D03*
X97066Y239655D02*
D03*
X128319Y186216D02*
D03*
X148806Y189108D02*
D03*
X128306Y194108D02*
D03*
X148819Y194122D02*
D03*
X91806Y184108D02*
D03*
X235306Y139108D02*
D03*
X253806Y223108D02*
D03*
X237306Y131108D02*
D03*
X89998Y132544D02*
D03*
X102806Y132108D02*
D03*
X107806Y121108D02*
D03*
X174344Y141826D02*
D03*
X202306Y126108D02*
D03*
X277306Y66108D02*
D03*
X240495Y67470D02*
D03*
X252306Y67608D02*
D03*
X265799Y68696D02*
D03*
X298586Y87782D02*
D03*
X302806Y92435D02*
D03*
X257806Y93108D02*
D03*
X262306Y94608D02*
D03*
X279459Y98786D02*
D03*
X273306Y107608D02*
D03*
X281806Y114108D02*
D03*
X278306Y118108D02*
D03*
X238306Y124608D02*
D03*
X280987Y127122D02*
D03*
X245806Y127608D02*
D03*
X248806Y134758D02*
D03*
X238489Y136249D02*
D03*
X264968Y137741D02*
D03*
X242306Y159608D02*
D03*
X179920Y198686D02*
D03*
X188806Y189608D02*
D03*
X201306Y192108D02*
D03*
X203770Y166108D02*
D03*
X191806Y184108D02*
D03*
X198806D02*
D03*
X219806Y171608D02*
D03*
X194668Y158865D02*
D03*
X204306Y158608D02*
D03*
X227323Y166126D02*
D03*
X220306Y144608D02*
D03*
X194306Y208608D02*
D03*
X225806Y182108D02*
D03*
X218806Y152608D02*
D03*
X268306Y143108D02*
D03*
X310680Y143169D02*
D03*
X299806Y145108D02*
D03*
X302675Y149373D02*
D03*
X266306Y151108D02*
D03*
X243306Y154108D02*
D03*
X245628Y191786D02*
D03*
X262306Y163108D02*
D03*
X232737Y104540D02*
D03*
X176306Y118108D02*
D03*
X236806Y104608D02*
D03*
X225306Y76608D02*
D03*
X207306Y102108D02*
D03*
X230240Y72598D02*
D03*
M02*
