G04*
G04 #@! TF.GenerationSoftware,Altium Limited,Altium Designer,22.1.2 (22)*
G04*
G04 Layer_Color=32896*
%FSLAX25Y25*%
%MOIN*%
G70*
G04*
G04 #@! TF.SameCoordinates,791223F6-2876-430F-897D-041DB45C5482*
G04*
G04*
G04 #@! TF.FilePolarity,Positive*
G04*
G01*
G75*
G36*
X257598Y40859D02*
X77098D01*
Y95141D01*
X257598D01*
Y40859D01*
D02*
G37*
%LPC*%
G36*
X141972Y89404D02*
X140648D01*
Y88963D01*
X139765D01*
Y88521D01*
X138883D01*
Y88080D01*
X138000D01*
Y87639D01*
X137559D01*
Y87197D01*
X137117D01*
Y86756D01*
X136235D01*
Y86315D01*
X135793D01*
Y85873D01*
X135352D01*
Y85432D01*
X134911D01*
Y84549D01*
X134469D01*
Y84108D01*
X134028D01*
Y83225D01*
X133587D01*
Y82343D01*
X133145D01*
Y81460D01*
X132704D01*
Y79254D01*
X132263D01*
Y77930D01*
X132704D01*
Y77488D01*
X135793D01*
Y79254D01*
X136235D01*
Y80577D01*
X136676D01*
Y81901D01*
X137117D01*
Y82343D01*
X137559D01*
Y83225D01*
X138000D01*
Y83667D01*
X138441D01*
Y84108D01*
X138883D01*
Y84549D01*
X139765D01*
Y84991D01*
X140207D01*
Y85432D01*
X141089D01*
Y85873D01*
X141972D01*
Y86315D01*
X142854D01*
Y86756D01*
X142413D01*
Y88080D01*
X141972D01*
Y89404D01*
D02*
G37*
G36*
X140648Y92934D02*
X140207D01*
Y92493D01*
X138883D01*
Y92052D01*
X138000D01*
Y91610D01*
X137117D01*
Y91169D01*
X136235D01*
Y90728D01*
X135793D01*
Y90286D01*
X134911D01*
Y89845D01*
X134469D01*
Y89404D01*
X134028D01*
Y88963D01*
X133587D01*
Y88521D01*
X133145D01*
Y88080D01*
X132704D01*
Y87639D01*
X132263D01*
Y87197D01*
X131822D01*
Y86756D01*
X131380D01*
Y85873D01*
X130939D01*
Y85432D01*
X130498D01*
Y84549D01*
X130056D01*
Y83667D01*
X129615D01*
Y82343D01*
X129174D01*
Y81019D01*
X128732D01*
Y77488D01*
X130498D01*
Y77930D01*
X130939D01*
Y81019D01*
X131380D01*
Y82343D01*
X131822D01*
Y83225D01*
X132263D01*
Y84108D01*
X132704D01*
Y84991D01*
X133145D01*
Y85432D01*
X133587D01*
Y85873D01*
X134028D01*
Y86756D01*
X134469D01*
Y87197D01*
X134911D01*
Y87639D01*
X135793D01*
Y88080D01*
X136235D01*
Y88521D01*
X136676D01*
Y88963D01*
X137559D01*
Y89404D01*
X138000D01*
Y89845D01*
X138883D01*
Y90286D01*
X140207D01*
Y90728D01*
X141089D01*
Y92052D01*
X140648D01*
Y92934D01*
D02*
G37*
G36*
X205081Y84108D02*
X196695D01*
Y83667D01*
X194489D01*
Y83225D01*
X193606D01*
Y82784D01*
X192724D01*
Y82343D01*
X192282D01*
Y81901D01*
X191400D01*
Y81460D01*
X190958D01*
Y81019D01*
X190517D01*
Y80577D01*
X190076D01*
Y80136D01*
X189634D01*
Y79254D01*
X189193D01*
Y78812D01*
X188752D01*
Y78371D01*
X188310D01*
Y77930D01*
X187869D01*
Y77488D01*
X187428D01*
Y77047D01*
X186986D01*
Y76164D01*
X186545D01*
Y75723D01*
X186104D01*
Y75282D01*
X185662D01*
Y74840D01*
X185221D01*
Y74399D01*
X184780D01*
Y73958D01*
X184339D01*
Y73516D01*
X183897D01*
Y72634D01*
X183456D01*
Y72192D01*
X183015D01*
Y71751D01*
X182573D01*
Y71310D01*
X182132D01*
Y70868D01*
X181691D01*
Y70427D01*
X181249D01*
Y69986D01*
X180808D01*
Y69103D01*
X180367D01*
Y68662D01*
X179925D01*
Y68221D01*
X179484D01*
Y67779D01*
X179043D01*
Y67338D01*
X178601D01*
Y66896D01*
X178160D01*
Y66014D01*
X177719D01*
Y65573D01*
X177277D01*
Y65131D01*
X176836D01*
Y64690D01*
X176395D01*
Y64249D01*
X175512D01*
Y63807D01*
X174629D01*
Y63366D01*
X173306D01*
Y84108D01*
X166686D01*
Y57187D01*
X176395D01*
Y57629D01*
X177719D01*
Y58070D01*
X179043D01*
Y58511D01*
X179484D01*
Y58953D01*
X179925D01*
Y59394D01*
X180808D01*
Y59835D01*
X181249D01*
Y60277D01*
X181691D01*
Y61159D01*
X182132D01*
Y61601D01*
X182573D01*
Y62042D01*
X183015D01*
Y62483D01*
X183456D01*
Y62925D01*
X183897D01*
Y63366D01*
X184339D01*
Y64249D01*
X184780D01*
Y64690D01*
X185221D01*
Y65131D01*
X185662D01*
Y65573D01*
X186104D01*
Y66014D01*
X186545D01*
Y66455D01*
X186986D01*
Y67338D01*
X187428D01*
Y67779D01*
X187869D01*
Y68221D01*
X188310D01*
Y68662D01*
X188752D01*
Y69103D01*
X189193D01*
Y69544D01*
X189634D01*
Y70427D01*
X190076D01*
Y70868D01*
X190517D01*
Y71310D01*
X190958D01*
Y71751D01*
X191400D01*
Y72192D01*
X191841D01*
Y72634D01*
X192282D01*
Y73516D01*
X192724D01*
Y73958D01*
X193165D01*
Y74399D01*
X193606D01*
Y74840D01*
X194048D01*
Y75282D01*
X194489D01*
Y75723D01*
X194930D01*
Y76164D01*
X195372D01*
Y76606D01*
X195813D01*
Y77047D01*
X196695D01*
Y77488D01*
X198461D01*
Y57187D01*
X205081D01*
Y70427D01*
X208611D01*
Y65131D01*
X209052D01*
Y70427D01*
X209935D01*
Y69986D01*
X210818D01*
Y69544D01*
X211700D01*
Y69103D01*
X212583D01*
Y68662D01*
X213466D01*
Y68221D01*
X214348D01*
Y67779D01*
X215231D01*
Y67338D01*
X216114D01*
Y66896D01*
X216996D01*
Y66455D01*
X217879D01*
Y66014D01*
X218761D01*
Y65573D01*
X219644D01*
Y65131D01*
X220086D01*
Y67338D01*
X219644D01*
Y70427D01*
X224057D01*
Y68662D01*
X241269D01*
Y73075D01*
X224057D01*
Y70868D01*
X219644D01*
Y76164D01*
X219203D01*
Y75723D01*
X218320D01*
Y75282D01*
X217438D01*
Y74840D01*
X216555D01*
Y74399D01*
X215672D01*
Y73958D01*
X214790D01*
Y73516D01*
X213907D01*
Y73075D01*
X213024D01*
Y72634D01*
X212142D01*
Y72192D01*
X211259D01*
Y71751D01*
X210377D01*
Y71310D01*
X209494D01*
Y70868D01*
X209052D01*
Y76164D01*
X208611D01*
Y70868D01*
X205081D01*
Y84108D01*
D02*
G37*
G36*
X243917Y84549D02*
X211259D01*
Y77930D01*
X243034D01*
Y64249D01*
X242593D01*
Y63807D01*
X211259D01*
Y57629D01*
X244799D01*
Y58070D01*
X246123D01*
Y58511D01*
X247006D01*
Y58953D01*
X247889D01*
Y59394D01*
X248330D01*
Y59835D01*
X248771D01*
Y60277D01*
X249213D01*
Y61159D01*
X249654D01*
Y62925D01*
X250095D01*
Y79254D01*
X249654D01*
Y80577D01*
X249213D01*
Y81460D01*
X248771D01*
Y82343D01*
X248330D01*
Y82784D01*
X247447D01*
Y83225D01*
X247006D01*
Y83667D01*
X245682D01*
Y84108D01*
X243917D01*
Y84549D01*
D02*
G37*
G36*
X116375Y84108D02*
X84159D01*
Y77488D01*
X115493D01*
Y77047D01*
X115934D01*
Y63807D01*
X115493D01*
Y63366D01*
X84159D01*
Y57187D01*
X117699D01*
Y57629D01*
X119023D01*
Y58070D01*
X119906D01*
Y58511D01*
X120788D01*
Y58953D01*
X121230D01*
Y59394D01*
X121671D01*
Y59835D01*
Y60277D01*
X122112D01*
Y61159D01*
X122554D01*
Y80136D01*
X122112D01*
Y81019D01*
X121671D01*
Y81460D01*
X121230D01*
Y81901D01*
X120788D01*
Y82343D01*
X120347D01*
Y82784D01*
X119465D01*
Y83225D01*
X118582D01*
Y83667D01*
X116375D01*
Y84108D01*
D02*
G37*
G36*
X143296Y84991D02*
X142413D01*
Y84549D01*
X141531D01*
Y84108D01*
X140648D01*
Y83667D01*
X140207D01*
Y83225D01*
X139765D01*
Y82784D01*
X139324D01*
Y82343D01*
X138883D01*
Y81901D01*
X138441D01*
Y81019D01*
X138000D01*
Y80136D01*
X137559D01*
Y77488D01*
X139765D01*
Y56305D01*
X146385D01*
Y71751D01*
Y72192D01*
Y76606D01*
X161831D01*
Y83225D01*
X144178D01*
Y83667D01*
X143737D01*
Y84549D01*
X143296D01*
Y84991D01*
D02*
G37*
G36*
X233325Y51009D02*
X232442D01*
Y50126D01*
X232001D01*
Y49685D01*
X231118D01*
Y50126D01*
X228912D01*
Y49244D01*
X230236D01*
Y47037D01*
X231560D01*
Y49244D01*
X232442D01*
Y47037D01*
X233325D01*
Y49244D01*
X236414D01*
Y47920D01*
X234208D01*
Y47478D01*
X233766D01*
Y47037D01*
X237297D01*
Y47478D01*
X237738D01*
Y48802D01*
X238180D01*
Y48361D01*
X240828D01*
Y47920D01*
X238180D01*
Y47037D01*
X241710D01*
Y49685D01*
X241269D01*
Y50126D01*
X238180D01*
Y49244D01*
X237738D01*
Y49685D01*
X237297D01*
Y50126D01*
X234208D01*
Y49685D01*
X233766D01*
Y50126D01*
X233325D01*
Y51009D01*
D02*
G37*
G36*
X93868D02*
X92544D01*
Y50568D01*
X92985D01*
Y49685D01*
X92103D01*
Y50126D01*
X88572D01*
Y49685D01*
X88131D01*
Y47037D01*
X89455D01*
Y49244D01*
X91220D01*
Y47037D01*
X93868D01*
Y49244D01*
X95633D01*
Y47037D01*
X96516D01*
Y49685D01*
X96074D01*
Y50126D01*
X94309D01*
Y49685D01*
X93868D01*
Y50126D01*
X93427D01*
Y50568D01*
X93868D01*
Y51009D01*
D02*
G37*
G36*
X219644D02*
X218320D01*
Y50568D01*
X218761D01*
Y49685D01*
X218320D01*
Y49244D01*
X217879D01*
Y49685D01*
X217438D01*
Y50126D01*
X214790D01*
Y49685D01*
X214348D01*
Y49244D01*
X216996D01*
Y47920D01*
X214348D01*
Y47037D01*
X217879D01*
Y47920D01*
X218320D01*
Y47037D01*
X219644D01*
Y51009D01*
D02*
G37*
G36*
X183897Y50126D02*
X180808D01*
Y49685D01*
X180367D01*
Y49244D01*
X179925D01*
Y49685D01*
X179484D01*
Y50126D01*
X176836D01*
Y49685D01*
X176395D01*
Y49244D01*
X175953D01*
Y49685D01*
X175512D01*
Y50126D01*
X172864D01*
Y49685D01*
X172423D01*
Y49244D01*
X171982D01*
Y49685D01*
X171540D01*
Y50126D01*
X166686D01*
Y49685D01*
X166244D01*
Y47037D01*
X167568D01*
Y49244D01*
X168451D01*
Y47037D01*
X169775D01*
Y49244D01*
X170658D01*
Y47037D01*
X171540D01*
Y49244D01*
X171982D01*
Y47478D01*
X172423D01*
Y47037D01*
X175953D01*
Y47478D01*
X176395D01*
Y47037D01*
X179925D01*
Y47478D01*
X180367D01*
Y48802D01*
X180808D01*
Y48361D01*
X183456D01*
Y47920D01*
X180808D01*
Y47037D01*
X183897D01*
Y47478D01*
X184339D01*
Y48802D01*
Y49244D01*
Y49685D01*
X183897D01*
Y50126D01*
D02*
G37*
G36*
X151240Y51009D02*
X149916D01*
Y50568D01*
X150357D01*
Y49685D01*
X149916D01*
Y49244D01*
X149474D01*
Y49685D01*
X149033D01*
Y50126D01*
X145944D01*
Y49244D01*
X148592D01*
Y47920D01*
X145944D01*
Y48361D01*
X145502D01*
Y48802D01*
X142854D01*
Y49244D01*
X145502D01*
Y50126D01*
X142413D01*
Y49685D01*
X141531D01*
Y50126D01*
X141089D01*
Y51009D01*
X140207D01*
Y50126D01*
X139765D01*
Y49244D01*
X140207D01*
Y47037D01*
X141089D01*
Y49244D01*
X141972D01*
Y47037D01*
X145502D01*
Y47478D01*
X145944D01*
Y47037D01*
X149474D01*
Y47920D01*
X149916D01*
Y47037D01*
X151240D01*
Y50126D01*
X150798D01*
Y50568D01*
X151240D01*
Y51009D01*
D02*
G37*
G36*
X137559Y50126D02*
X134469D01*
Y49685D01*
X134028D01*
Y49244D01*
X133587D01*
Y49685D01*
X133145D01*
Y50126D01*
X129615D01*
Y49685D01*
X129174D01*
Y47037D01*
X130498D01*
Y49244D01*
X132263D01*
Y47037D01*
X133587D01*
Y47920D01*
X134028D01*
Y47037D01*
X137559D01*
Y47478D01*
X138000D01*
Y49685D01*
X137559D01*
Y50126D01*
D02*
G37*
G36*
X249213Y51009D02*
X243917D01*
Y50568D01*
Y50126D01*
X248330D01*
Y49244D01*
X243917D01*
Y48361D01*
X248330D01*
Y47920D01*
X243476D01*
Y51009D01*
X242151D01*
Y47037D01*
X243476D01*
Y47478D01*
X243917D01*
Y47037D01*
X249213D01*
Y47478D01*
X249654D01*
Y50568D01*
X249213D01*
Y51009D01*
D02*
G37*
G36*
X160066Y50126D02*
X159183D01*
Y47920D01*
X157418D01*
Y49685D01*
X156977D01*
Y50126D01*
X156094D01*
Y48802D01*
Y48361D01*
Y47478D01*
X156535D01*
Y47037D01*
X159625D01*
Y47478D01*
X160066D01*
Y50126D01*
D02*
G37*
G36*
X126084Y51009D02*
X120788D01*
Y50126D01*
X125202D01*
Y49244D01*
X120788D01*
Y48361D01*
X125202D01*
Y47920D01*
X120347D01*
Y50126D01*
X116817D01*
Y49685D01*
X116375D01*
Y49244D01*
X115934D01*
Y49685D01*
X115493D01*
Y50126D01*
X111962D01*
Y49685D01*
X111521D01*
Y46596D01*
X111962D01*
Y46154D01*
X115493D01*
Y47037D01*
X112845D01*
Y47478D01*
X115493D01*
Y47920D01*
X115934D01*
Y47037D01*
X117258D01*
Y49244D01*
X119023D01*
Y47037D01*
X120347D01*
Y47478D01*
X120788D01*
Y47037D01*
X126084D01*
Y47478D01*
X126526D01*
Y50568D01*
X126084D01*
Y51009D01*
D02*
G37*
G36*
X228029Y50126D02*
X224940D01*
Y49685D01*
X224499D01*
Y47478D01*
X224940D01*
Y47037D01*
X228471D01*
Y47920D01*
X228912D01*
Y49244D01*
X228471D01*
Y49685D01*
X228029D01*
Y50126D01*
D02*
G37*
G36*
X224057D02*
X220527D01*
Y49685D01*
X220086D01*
Y47037D01*
X221410D01*
Y49244D01*
X223175D01*
Y47920D01*
Y47478D01*
Y47037D01*
X224057D01*
Y50126D01*
D02*
G37*
G36*
X211700D02*
X208170D01*
Y49685D01*
X207729D01*
Y47478D01*
X208170D01*
Y47037D01*
X211700D01*
Y48802D01*
X209052D01*
Y49244D01*
X211700D01*
Y50126D01*
D02*
G37*
G36*
X207287D02*
X203757D01*
Y49685D01*
X203315D01*
Y47037D01*
X204639D01*
Y47478D01*
Y49244D01*
X206405D01*
Y47037D01*
X207287D01*
Y50126D01*
D02*
G37*
G36*
X199785Y51009D02*
X198902D01*
Y49685D01*
Y49244D01*
Y47478D01*
X199344D01*
Y47037D01*
X202433D01*
Y47478D01*
X202874D01*
Y49685D01*
X202433D01*
Y50126D01*
X199785D01*
Y51009D01*
D02*
G37*
G36*
X195813D02*
X190076D01*
Y50126D01*
X192282D01*
Y49685D01*
X192724D01*
Y47037D01*
X193606D01*
Y50126D01*
X195813D01*
Y51009D01*
D02*
G37*
G36*
X189634Y50126D02*
X186545D01*
Y48361D01*
X189193D01*
Y47920D01*
X186545D01*
Y47037D01*
X190076D01*
Y49685D01*
X189634D01*
Y50126D01*
D02*
G37*
G36*
X186104Y51009D02*
X184780D01*
Y47037D01*
X186104D01*
Y51009D01*
D02*
G37*
G36*
X165803Y50126D02*
X160949D01*
Y49685D01*
X160507D01*
Y47037D01*
X161831D01*
Y49244D01*
X162714D01*
Y47037D01*
X163596D01*
Y49244D01*
X164920D01*
Y47037D01*
X165803D01*
Y50126D01*
D02*
G37*
G36*
X155653D02*
X152122D01*
Y49685D01*
X151681D01*
Y47037D01*
X152564D01*
Y49244D01*
X154770D01*
Y47037D01*
X155653D01*
Y50126D01*
D02*
G37*
G36*
X139324Y51009D02*
X138441D01*
Y49685D01*
Y49244D01*
Y47037D01*
X139324D01*
Y51009D01*
D02*
G37*
G36*
X111521D02*
X110197D01*
Y47037D01*
X111079D01*
Y47478D01*
Y50568D01*
X111521D01*
Y51009D01*
D02*
G37*
G36*
X109755Y50126D02*
X106225D01*
Y49685D01*
X105784D01*
Y47037D01*
X106666D01*
Y47478D01*
Y49244D01*
X108431D01*
Y47037D01*
X109755D01*
Y50126D01*
D02*
G37*
G36*
X104901D02*
X101812D01*
Y49685D01*
X101370D01*
Y49244D01*
Y48802D01*
Y48361D01*
X104018D01*
Y47920D01*
X101370D01*
Y47037D01*
X104901D01*
Y47478D01*
X105342D01*
Y49685D01*
X104901D01*
Y50126D01*
D02*
G37*
G36*
X100488D02*
X97399D01*
Y49685D01*
X96957D01*
Y48361D01*
X99605D01*
Y47920D01*
X96957D01*
Y47037D01*
X100488D01*
Y47478D01*
X100929D01*
Y49685D01*
X100488D01*
Y50126D01*
D02*
G37*
G36*
X87248D02*
X84159D01*
Y49685D01*
X83718D01*
Y46596D01*
X84159D01*
Y46154D01*
X87689D01*
Y47037D01*
X84600D01*
Y47478D01*
X87689D01*
Y49685D01*
X87248D01*
Y50126D01*
D02*
G37*
%LPD*%
G36*
X240828Y48802D02*
X239062D01*
Y49244D01*
X240828D01*
Y48802D01*
D02*
G37*
G36*
X183456D02*
X181691D01*
Y49244D01*
X183456D01*
Y48802D01*
D02*
G37*
G36*
X179043Y47920D02*
X176395D01*
Y49244D01*
X179043D01*
Y47920D01*
D02*
G37*
G36*
X175071D02*
X173306D01*
Y48802D01*
Y49244D01*
X175071D01*
Y47920D01*
D02*
G37*
G36*
X144620D02*
X142854D01*
Y48361D01*
X144620D01*
Y47920D01*
D02*
G37*
G36*
X136676Y48361D02*
Y47920D01*
X134911D01*
Y49244D01*
X136676D01*
Y48361D01*
D02*
G37*
G36*
X114610D02*
X112845D01*
Y49244D01*
X114610D01*
Y48361D01*
D02*
G37*
G36*
X227588Y47920D02*
X225823D01*
Y49244D01*
X227588D01*
Y47920D01*
D02*
G37*
G36*
X210377D02*
X209052D01*
Y48361D01*
X210377D01*
Y47920D01*
D02*
G37*
G36*
X201550Y48802D02*
X201991D01*
Y48361D01*
Y47920D01*
X199785D01*
Y49244D01*
X201550D01*
Y48802D01*
D02*
G37*
G36*
X189193D02*
X187428D01*
Y49244D01*
X189193D01*
Y48802D01*
D02*
G37*
G36*
X104018D02*
X102694D01*
Y49244D01*
X104018D01*
Y48802D01*
D02*
G37*
G36*
X100046D02*
X98281D01*
Y49244D01*
X100046D01*
Y48802D01*
D02*
G37*
G36*
X86807Y48361D02*
X84600D01*
Y48802D01*
X85041D01*
Y49244D01*
X86807D01*
Y48361D01*
D02*
G37*
M02*
