G04*
G04 #@! TF.GenerationSoftware,Altium Limited,Altium Designer,22.1.2 (22)*
G04*
G04 Layer_Color=8388736*
%FSLAX25Y25*%
%MOIN*%
G70*
G04*
G04 #@! TF.SameCoordinates,E16E6B7E-0D5A-4F64-8BAA-C1CDB9B7C18E*
G04*
G04*
G04 #@! TF.FilePolarity,Negative*
G04*
G01*
G75*
%ADD15O,0.03162X0.08477*%
%ADD16O,0.08477X0.03162*%
%ADD17R,0.03764X0.06338*%
%ADD18R,0.06693X0.03740*%
%ADD19R,0.05721X0.07887*%
%ADD20R,0.06890X0.05906*%
%ADD21C,0.04921*%
%ADD22C,0.06181*%
%ADD23R,0.06181X0.06181*%
%ADD24R,0.05347X0.05347*%
%ADD25C,0.05347*%
%ADD26C,0.05512*%
%ADD27R,0.05512X0.05512*%
%ADD28C,0.05118*%
%ADD29R,0.05118X0.05118*%
%ADD30R,0.04921X0.04921*%
%ADD31C,0.05524*%
%ADD32R,0.05512X0.05512*%
%ADD33R,0.07099X0.07099*%
%ADD34C,0.07099*%
%ADD35C,0.15800*%
D15*
X229781Y146116D02*
D03*
X232931D02*
D03*
X236081D02*
D03*
X239230D02*
D03*
X242380D02*
D03*
X245529D02*
D03*
X248679D02*
D03*
X251829D02*
D03*
Y112651D02*
D03*
X248679D02*
D03*
X245529D02*
D03*
X242380D02*
D03*
X239230D02*
D03*
X236081D02*
D03*
X232931D02*
D03*
X229781D02*
D03*
X139100Y146116D02*
D03*
X142249D02*
D03*
X145399D02*
D03*
X148549D02*
D03*
X151698D02*
D03*
X154848D02*
D03*
X157997D02*
D03*
X161147D02*
D03*
Y112651D02*
D03*
X157997D02*
D03*
X154848D02*
D03*
X151698D02*
D03*
X148549D02*
D03*
X145399D02*
D03*
X142249D02*
D03*
X139100D02*
D03*
D16*
X257537Y140407D02*
D03*
Y137258D02*
D03*
Y134108D02*
D03*
Y130958D02*
D03*
Y127809D02*
D03*
Y124659D02*
D03*
Y121510D02*
D03*
Y118360D02*
D03*
X224073D02*
D03*
Y121510D02*
D03*
Y124659D02*
D03*
Y127809D02*
D03*
Y130958D02*
D03*
Y134108D02*
D03*
Y137258D02*
D03*
Y140407D02*
D03*
X166856D02*
D03*
Y137258D02*
D03*
Y134108D02*
D03*
Y130958D02*
D03*
Y127809D02*
D03*
Y124659D02*
D03*
Y121510D02*
D03*
Y118360D02*
D03*
X133391D02*
D03*
Y121510D02*
D03*
Y124659D02*
D03*
Y127809D02*
D03*
Y130958D02*
D03*
Y134108D02*
D03*
Y137258D02*
D03*
Y140407D02*
D03*
D17*
X243916Y216108D02*
D03*
X254160D02*
D03*
X213928D02*
D03*
X203683D02*
D03*
D18*
X115915Y95620D02*
D03*
Y84596D02*
D03*
X183806Y95620D02*
D03*
Y84596D02*
D03*
X208805Y110596D02*
D03*
Y121620D02*
D03*
Y138143D02*
D03*
Y149167D02*
D03*
X206306Y95620D02*
D03*
Y84596D02*
D03*
X119073Y138143D02*
D03*
Y149167D02*
D03*
Y110596D02*
D03*
Y121620D02*
D03*
X180864Y123872D02*
D03*
Y134895D02*
D03*
X277306Y95620D02*
D03*
Y84596D02*
D03*
X272544Y123872D02*
D03*
Y134895D02*
D03*
D19*
X156127Y175281D02*
D03*
X144120D02*
D03*
X246809D02*
D03*
X234801D02*
D03*
D20*
X201424Y230108D02*
D03*
X216187D02*
D03*
X241656D02*
D03*
X256420D02*
D03*
D21*
X38023Y231612D02*
D03*
X92306D02*
D03*
X82306Y145834D02*
D03*
Y73830D02*
D03*
D22*
X48023Y223108D02*
D03*
X38023D02*
D03*
X28023D02*
D03*
X102306D02*
D03*
X92306D02*
D03*
X82306D02*
D03*
D23*
X18023D02*
D03*
X72306D02*
D03*
D24*
X250411Y90108D02*
D03*
X159730D02*
D03*
D25*
X231199D02*
D03*
X140517D02*
D03*
D26*
X318168Y75250D02*
D03*
Y85092D02*
D03*
Y94935D02*
D03*
Y104777D02*
D03*
Y114620D02*
D03*
X315806Y227454D02*
D03*
Y217612D02*
D03*
Y207769D02*
D03*
Y197927D02*
D03*
Y188084D02*
D03*
X105755Y27344D02*
D03*
X95913D02*
D03*
X86070D02*
D03*
X76228D02*
D03*
X66385D02*
D03*
X20430Y38368D02*
D03*
X20577Y86330D02*
D03*
Y96173D02*
D03*
Y106015D02*
D03*
X183912Y27344D02*
D03*
X174069D02*
D03*
X164227D02*
D03*
X154384D02*
D03*
X144542D02*
D03*
X236337Y28230D02*
D03*
X246179D02*
D03*
X256022D02*
D03*
X295136D02*
D03*
X304979D02*
D03*
X314821D02*
D03*
X20577Y161988D02*
D03*
Y171830D02*
D03*
Y181673D02*
D03*
D27*
X318168Y124462D02*
D03*
X315806Y178242D02*
D03*
X20430Y28525D02*
D03*
X20577Y76488D02*
D03*
Y152145D02*
D03*
D28*
X136757Y217594D02*
D03*
X128883Y230108D02*
D03*
X282489D02*
D03*
X172243D02*
D03*
D29*
X128883Y217594D02*
D03*
X136757Y230108D02*
D03*
X274615D02*
D03*
X164369D02*
D03*
D30*
X82306Y185204D02*
D03*
Y113200D02*
D03*
D31*
X54806Y151108D02*
D03*
Y176108D02*
D03*
X48306Y53108D02*
D03*
X58306D02*
D03*
D32*
X56543Y27344D02*
D03*
X134699D02*
D03*
X226494Y28230D02*
D03*
X285294D02*
D03*
D33*
X56806Y96108D02*
D03*
D34*
Y106108D02*
D03*
Y116108D02*
D03*
D35*
X9306Y8608D02*
D03*
Y249108D02*
D03*
X339306Y8608D02*
D03*
Y249108D02*
D03*
M02*
